<?xml version="1.0" encoding="utf-8"?>
<!-- Generator: Adobe Illustrator 23.0.4, SVG Export Plug-In . SVG Version: 6.00 Build 0)  -->
<svg version="1.1" id="Layer_1" xmlns="http://www.w3.org/2000/svg" xmlns:xlink="http://www.w3.org/1999/xlink" x="0px" y="0px"
	 viewBox="0 0 163.1 25.5" style="enable-background:new 0 0 163.1 25.5;" xml:space="preserve">
<style type="text/css">
	.st0{fill:url(#SVGID_1_);}
	.st1{fill:url(#SVGID_2_);}
	.st2{fill:url(#SVGID_3_);}
	.st3{fill:url(#SVGID_4_);}
	.st4{fill:url(#SVGID_5_);}
	.st5{fill:url(#SVGID_6_);}
	.st6{fill:url(#SVGID_7_);}
	.st7{fill:url(#SVGID_8_);}
	.st8{fill:url(#SVGID_9_);}
	.st9{fill:url(#SVGID_10_);}
	.st10{fill:url(#SVGID_11_);}
	.st11{fill:url(#SVGID_12_);}
	.st12{fill:url(#SVGID_13_);}
	.st13{fill:url(#SVGID_14_);}
	.st14{fill:url(#SVGID_15_);}
	.st15{fill:url(#SVGID_16_);}
	.st16{fill:url(#SVGID_17_);}
</style>
<g>
	<linearGradient id="SVGID_1_" gradientUnits="userSpaceOnUse" x1="693.1874" y1="440.4176" x2="738.9758" y2="491.4691">
		<stop  offset="0" style="stop-color:#545EA9"/>
		<stop  offset="0.7457" style="stop-color:#322D7D"/>
	</linearGradient>
	<path class="st0" d="M707.8,441.2l-2,1.9c-1.2-1.1-2.3-1.6-3.8-1.6c-1.9,0-3.2,0.9-3.2,2.5c0,1.2,0.7,1.8,3.3,2.7
		c2.8,0.9,4.8,2.2,4.8,5.2s-2.1,6.3-7.6,6.3c-2.9,0-5-1.1-6.4-2.6l2.1-2c1.1,1.2,2.5,1.8,4.4,1.8c2.4,0,3.9-1.2,3.9-3.1
		c0-1.4-0.8-2.1-3.1-2.9c-3.3-1.1-4.9-2.5-4.9-5c0-2.6,2.2-5.5,6.8-5.5C704.5,438.9,706.4,439.7,707.8,441.2z"/>
	<linearGradient id="SVGID_2_" gradientUnits="userSpaceOnUse" x1="699.9807" y1="434.3248" x2="745.769" y2="485.3762">
		<stop  offset="0" style="stop-color:#545EA9"/>
		<stop  offset="0.7457" style="stop-color:#322D7D"/>
	</linearGradient>
	<path class="st1" d="M713.1,453.5c-0.2,1.4,0.2,1.9,1.1,1.9c0.6,0,1.2-0.2,1.8-0.5l1,2.3c-1.1,0.7-2.4,1-3.6,1
		c-2.7,0-4.1-1.7-3.7-4.7l1-7.4h-2.2l0.3-2.5h2.3l0.9-3.2l2.8-0.3l-0.5,3.5h3.3l-0.7,2.5h-2.9L713.1,453.5z"/>
	<linearGradient id="SVGID_3_" gradientUnits="userSpaceOnUse" x1="705.6148" y1="429.2715" x2="751.4032" y2="480.3228">
		<stop  offset="0" style="stop-color:#545EA9"/>
		<stop  offset="0.7457" style="stop-color:#322D7D"/>
	</linearGradient>
	<path class="st2" d="M721.6,452.6c0.1,2.2,1.2,2.9,2.8,2.9c1.3,0,2.4-0.4,3.7-1.3l1.3,2.1c-1.6,1.1-3.3,1.8-5.4,1.8
		c-3.9,0-5.8-2.3-5.8-5.9c0-3.9,2-9.1,7.7-9.1c3.2,0,4.9,1.7,4.9,3.7C730.8,450.9,726.3,452.1,721.6,452.6z M727.3,447.1
		c0-0.6-0.3-1.4-1.6-1.4c-2.4,0-3.5,2.4-3.9,4.7C725.6,450,727.3,448.9,727.3,447.1z"/>
	<linearGradient id="SVGID_4_" gradientUnits="userSpaceOnUse" x1="711.1927" y1="424.2686" x2="756.9811" y2="475.32">
		<stop  offset="0" style="stop-color:#545EA9"/>
		<stop  offset="0.7457" style="stop-color:#322D7D"/>
	</linearGradient>
	<path class="st3" d="M734.2,443.6h2.9l0,1.7c1.5-1.6,2.9-2.1,4.2-2.1c2.8,0,4.4,2,4.4,5.5c0,4-1.9,9.4-7.5,9.4
		c-1.1,0-1.9-0.2-2.6-0.4l-0.8,5.5l-3.4,0.4L734.2,443.6z M742.2,448.7c0-2.2-0.9-2.9-2.1-2.9c-1.3,0-2.2,0.8-3.2,1.8l-1,7.6
		c0.7,0.2,1.3,0.4,2.1,0.4C741.1,455.6,742.2,451.6,742.2,448.7z"/>
	<linearGradient id="SVGID_5_" gradientUnits="userSpaceOnUse" x1="725.2035" y1="411.7022" x2="770.9919" y2="462.7537">
		<stop  offset="0" style="stop-color:#545EA9"/>
		<stop  offset="0.7457" style="stop-color:#322D7D"/>
	</linearGradient>
	<path class="st4" d="M766.1,444.1c0,2.6-1.3,5-8.7,11l7.6-0.1l-0.7,2.7h-11.1l0.3-2.6c7.9-7.1,9.2-8.6,9.2-10.9
		c0-1.4-0.9-2.2-2.2-2.2c-1.4,0-2.5,0.6-3.7,1.9l-2-1.8c1.7-1.8,3.7-2.8,6.1-2.8C764.2,439.4,766.1,441.4,766.1,444.1z"/>
</g>
<g>
	<linearGradient id="SVGID_6_" gradientUnits="userSpaceOnUse" x1="7.8805" y1="15.1382" x2="180.2565" y2="185.8803">
		<stop  offset="0" style="stop-color:#545EA9"/>
		<stop  offset="0.7457" style="stop-color:#322D7D"/>
	</linearGradient>
	<path class="st5" d="M13.4,7.9c0,2.7-1.4,5.2-9,11.4l7.8-0.1l-0.8,2.8H0l0.3-2.7c8.2-7.4,9.5-8.9,9.5-11.2c0-1.5-0.9-2.3-2.3-2.3
		c-1.5,0-2.5,0.6-3.8,2L1.6,6c1.8-1.9,3.8-2.9,6.3-2.9C11.5,3.1,13.4,5.2,13.4,7.9z"/>
	<linearGradient id="SVGID_7_" gradientUnits="userSpaceOnUse" x1="14.537" y1="8.4073" x2="186.9071" y2="179.1435">
		<stop  offset="0" style="stop-color:#545EA9"/>
		<stop  offset="0.7457" style="stop-color:#322D7D"/>
	</linearGradient>
	<path class="st6" d="M28.2,11.6l-1.5,10.5h-3.5l1.4-9.9c0.2-1.7-0.3-2.2-1.2-2.2c-1.4,0-2.8,1.7-3.8,3.8l-1.2,8.4H15l2-14.7h3
		l-0.1,2.7c1.3-1.9,3-3.1,5-3.1C27.3,7,28.7,8.7,28.2,11.6z"/>
	<linearGradient id="SVGID_8_" gradientUnits="userSpaceOnUse" x1="25.138" y1="-2.3061" x2="197.5058" y2="168.4279">
		<stop  offset="0" style="stop-color:#545EA9"/>
		<stop  offset="0.7457" style="stop-color:#322D7D"/>
	</linearGradient>
	<path class="st7" d="M45.7,1.6l-2.9,20.5h-3.1l0-2.2c-1,1.5-2.4,2.7-4.4,2.7c-3,0-4.6-2.3-4.6-5.9c0-3.9,1.9-9.6,6.9-9.6
		c1.6,0,2.7,0.7,3.5,1.6l1.1-7.4L45.7,1.6z M34.4,16.7c0,2.2,0.8,3.1,2,3.1c1.5,0,2.6-1.3,3.7-3l0.8-5.8c-0.6-0.9-1.4-1.4-2.5-1.4
		C35.3,9.7,34.4,14.1,34.4,16.7z"/>
	<linearGradient id="SVGID_9_" gradientUnits="userSpaceOnUse" x1="34.94" y1="-12.2167" x2="207.2879" y2="158.4977">
		<stop  offset="0" style="stop-color:#545EA9"/>
		<stop  offset="0.7457" style="stop-color:#322D7D"/>
	</linearGradient>
	<path class="st8" d="M69,8.1c0,3.5-2.2,7.3-8.3,7.3h-2.2l-0.9,6.7h-3.6l2.7-19.1h5.5C66.4,2.9,69,4.6,69,8.1z M65.2,8.3
		c0-1.9-1.3-2.6-3.4-2.6h-2l-1,7h1.9C64.3,12.7,65.2,10.3,65.2,8.3z"/>
	<linearGradient id="SVGID_10_" gradientUnits="userSpaceOnUse" x1="41.142" y1="-18.5123" x2="213.576" y2="152.2873">
		<stop  offset="0" style="stop-color:#545EA9"/>
		<stop  offset="0.7457" style="stop-color:#322D7D"/>
	</linearGradient>
	<path class="st9" d="M80,7.3l-1,3.4c-0.4-0.1-0.7-0.2-1.2-0.2c-1.9,0-3,1.7-3.9,4.3l-1,7.2h-3.5l2-14.7h3l-0.1,2.9
		C75.4,8.1,76.9,7,78.5,7C79,7,79.5,7.1,80,7.3z"/>
	<linearGradient id="SVGID_11_" gradientUnits="userSpaceOnUse" x1="47.0178" y1="-24.4629" x2="219.466" y2="146.3507">
		<stop  offset="0" style="stop-color:#545EA9"/>
		<stop  offset="0.7457" style="stop-color:#322D7D"/>
	</linearGradient>
	<path class="st10" d="M83.5,22.1H80l2-14.7h3.5L83.5,22.1z M82.4,2.4C82.4,1,83.4,0,84.8,0c1.2,0,2,0.8,2,1.9
		c0,1.3-1.1,2.4-2.4,2.4C83.2,4.3,82.4,3.5,82.4,2.4z"/>
	<linearGradient id="SVGID_12_" gradientUnits="userSpaceOnUse" x1="50.0079" y1="-27.4583" x2="222.3867" y2="143.2865">
		<stop  offset="0" style="stop-color:#545EA9"/>
		<stop  offset="0.7457" style="stop-color:#322D7D"/>
	</linearGradient>
	<path class="st11" d="M98.8,10l-8,9.3h6.8l-0.7,2.8H86.1l0.3-2.5l8-9.3h-6.1l0.4-2.8h10.4L98.8,10z"/>
	<linearGradient id="SVGID_13_" gradientUnits="userSpaceOnUse" x1="56.9163" y1="-34.4341" x2="229.2787" y2="136.2946">
		<stop  offset="0" style="stop-color:#545EA9"/>
		<stop  offset="0.7457" style="stop-color:#322D7D"/>
	</linearGradient>
	<path class="st12" d="M103.2,16.7c0.1,2.3,1.2,3,2.9,3c1.3,0,2.5-0.4,3.8-1.4l1.4,2.2c-1.6,1.1-3.4,1.9-5.6,1.9c-4,0-6-2.4-6-6.1
		c0-4,2.1-9.4,8-9.4c3.3,0,5.1,1.8,5.1,3.9C112.7,15,108.1,16.2,103.2,16.7z M109.1,11c0-0.6-0.4-1.5-1.7-1.5c-2.5,0-3.7,2.5-4,4.8
		C107.3,14,109.1,12.9,109.1,11z"/>
	<linearGradient id="SVGID_14_" gradientUnits="userSpaceOnUse" x1="68.4154" y1="-46.0655" x2="240.7875" y2="124.6728">
		<stop  offset="0" style="stop-color:#545EA9"/>
		<stop  offset="0.7457" style="stop-color:#322D7D"/>
	</linearGradient>
	<path class="st13" d="M130,11.8l4.1,10.3h-3.9l-2.7-7.9l-4.8,7.9h-4l6.9-10.2l-3.8-8.9h3.9l2.2,6.7l4.3-6.7h3.9L130,11.8z"/>
	<linearGradient id="SVGID_15_" gradientUnits="userSpaceOnUse" x1="74.7151" y1="-52.4378" x2="247.091" y2="118.3042">
		<stop  offset="0" style="stop-color:#545EA9"/>
		<stop  offset="0.7457" style="stop-color:#322D7D"/>
	</linearGradient>
	<path class="st14" d="M148.5,7.9c0,2.7-1.4,5.2-9,11.4l7.8-0.1l-0.8,2.8h-11.4l0.3-2.7c8.2-7.4,9.5-8.9,9.5-11.2
		c0-1.5-0.9-2.3-2.3-2.3c-1.5,0-2.5,0.6-3.8,2l-2-1.9c1.8-1.9,3.8-2.9,6.3-2.9C146.5,3.1,148.5,5.2,148.5,7.9z"/>
	<linearGradient id="SVGID_16_" gradientUnits="userSpaceOnUse" x1="82.8292" y1="-60.6522" x2="255.2179" y2="110.1026">
		<stop  offset="0" style="stop-color:#545EA9"/>
		<stop  offset="0.7457" style="stop-color:#322D7D"/>
	</linearGradient>
	<path class="st15" d="M162.2,6.1h-6.9l-0.7,4.6c1-0.5,1.9-0.7,2.9-0.7c2.7,0,4.5,1.8,4.5,5.1c0,3-2.1,7.4-7.7,7.4
		c-2.7,0-4.3-1.1-5.6-2.6L151,18c0.9,1.2,2,1.7,3.5,1.7c2.9,0,4-2.5,4-4.6c0-2-1-2.6-2.4-2.6c-0.9,0-1.6,0.2-2.6,0.6h-2.5l1.4-9.8
		h10.7L162.2,6.1z"/>
	<linearGradient id="SVGID_17_" gradientUnits="userSpaceOnUse" x1="39.5507" y1="-16.8247" x2="211.7996" y2="153.7916">
		<stop  offset="0" style="stop-color:#545EA9"/>
		<stop  offset="0.7457" style="stop-color:#322D7D"/>
	</linearGradient>
	<path class="st16" d="M0.1,25.5v-1.4h163v1.4H0.1z"/>
</g>
</svg>
