<?xml version="1.0" encoding="utf-8"?>
<!-- Generator: Adobe Illustrator 23.0.4, SVG Export Plug-In . SVG Version: 6.00 Build 0)  -->
<svg version="1.1" id="Layer_1" xmlns="http://www.w3.org/2000/svg" xmlns:xlink="http://www.w3.org/1999/xlink" x="0px" y="0px"
	 viewBox="0 0 159.8 25.5" style="enable-background:new 0 0 159.8 25.5;" xml:space="preserve">
<style type="text/css">
	.st0{fill:url(#SVGID_1_);}
	.st1{fill:url(#SVGID_2_);}
	.st2{fill:url(#SVGID_3_);}
	.st3{fill:url(#SVGID_4_);}
	.st4{fill:url(#SVGID_5_);}
	.st5{fill:url(#SVGID_6_);}
	.st6{fill:url(#SVGID_7_);}
	.st7{fill:url(#SVGID_8_);}
	.st8{fill:url(#SVGID_9_);}
	.st9{fill:url(#SVGID_10_);}
	.st10{fill:url(#SVGID_11_);}
	.st11{fill:url(#SVGID_12_);}
	.st12{fill:url(#SVGID_13_);}
	.st13{fill:url(#SVGID_14_);}
	.st14{fill:url(#SVGID_15_);}
	.st15{fill:url(#SVGID_16_);}
	.st16{fill:url(#SVGID_17_);}
</style>
<g>
	<linearGradient id="SVGID_1_" gradientUnits="userSpaceOnUse" x1="692.1352" y1="401.4044" x2="737.9236" y2="452.4558">
		<stop  offset="0" style="stop-color:#545EA9"/>
		<stop  offset="0.7457" style="stop-color:#322D7D"/>
	</linearGradient>
	<path class="st0" d="M706.8,402.2l-2,1.9c-1.2-1.1-2.3-1.6-3.8-1.6c-1.9,0-3.2,0.9-3.2,2.5c0,1.2,0.7,1.8,3.3,2.7
		c2.8,0.9,4.8,2.2,4.8,5.2s-2.1,6.3-7.6,6.3c-2.9,0-5-1.1-6.4-2.6l2.1-2c1.1,1.2,2.5,1.8,4.4,1.8c2.4,0,3.9-1.2,3.9-3.1
		c0-1.4-0.8-2.1-3.1-2.9c-3.3-1.1-4.9-2.5-4.9-5c0-2.6,2.2-5.5,6.8-5.5C703.5,399.9,705.3,400.7,706.8,402.2z"/>
	<linearGradient id="SVGID_2_" gradientUnits="userSpaceOnUse" x1="698.9284" y1="395.3115" x2="744.7168" y2="446.3629">
		<stop  offset="0" style="stop-color:#545EA9"/>
		<stop  offset="0.7457" style="stop-color:#322D7D"/>
	</linearGradient>
	<path class="st1" d="M712.1,414.5c-0.2,1.4,0.2,1.9,1.1,1.9c0.6,0,1.2-0.2,1.8-0.5l1,2.3c-1.1,0.7-2.4,1-3.6,1
		c-2.7,0-4.1-1.7-3.7-4.7l1-7.4h-2.2l0.3-2.5h2.3l0.9-3.2l2.8-0.3l-0.5,3.5h3.3l-0.7,2.5h-2.9L712.1,414.5z"/>
	<linearGradient id="SVGID_3_" gradientUnits="userSpaceOnUse" x1="704.5626" y1="390.2581" x2="750.351" y2="441.3096">
		<stop  offset="0" style="stop-color:#545EA9"/>
		<stop  offset="0.7457" style="stop-color:#322D7D"/>
	</linearGradient>
	<path class="st2" d="M720.6,413.6c0.1,2.2,1.2,2.9,2.8,2.9c1.3,0,2.4-0.4,3.7-1.3l1.3,2.1c-1.6,1.1-3.3,1.8-5.4,1.8
		c-3.9,0-5.8-2.3-5.8-5.9c0-3.9,2-9.1,7.7-9.1c3.2,0,4.9,1.7,4.9,3.7C729.7,411.9,725.2,413.1,720.6,413.6z M726.2,408.1
		c0-0.6-0.3-1.4-1.6-1.4c-2.4,0-3.5,2.4-3.9,4.7C724.5,410.9,726.2,409.9,726.2,408.1z"/>
	<linearGradient id="SVGID_4_" gradientUnits="userSpaceOnUse" x1="710.1405" y1="385.2553" x2="755.9289" y2="436.3067">
		<stop  offset="0" style="stop-color:#545EA9"/>
		<stop  offset="0.7457" style="stop-color:#322D7D"/>
	</linearGradient>
	<path class="st3" d="M733.2,404.6h2.9l0,1.7c1.5-1.6,2.9-2.1,4.2-2.1c2.8,0,4.4,2,4.4,5.5c0,4-1.9,9.4-7.5,9.4
		c-1.1,0-1.9-0.2-2.6-0.4l-0.8,5.5l-3.4,0.4L733.2,404.6z M741.2,409.7c0-2.2-0.9-2.9-2.1-2.9c-1.3,0-2.2,0.8-3.2,1.8l-1,7.6
		c0.7,0.2,1.3,0.4,2.1,0.4C740.1,416.6,741.2,412.6,741.2,409.7z"/>
	<linearGradient id="SVGID_5_" gradientUnits="userSpaceOnUse" x1="724.1512" y1="372.689" x2="769.9396" y2="423.7404">
		<stop  offset="0" style="stop-color:#545EA9"/>
		<stop  offset="0.7457" style="stop-color:#322D7D"/>
	</linearGradient>
	<path class="st4" d="M765,405.1c0,2.6-1.3,5-8.7,11l7.6-0.1l-0.7,2.7H752l0.3-2.6c7.9-7.1,9.2-8.6,9.2-10.9c0-1.4-0.9-2.2-2.2-2.2
		c-1.4,0-2.5,0.6-3.7,1.9l-2-1.8c1.7-1.8,3.7-2.8,6.1-2.8C763.1,400.4,765,402.4,765,405.1z"/>
</g>
<g>
	<linearGradient id="SVGID_6_" gradientUnits="userSpaceOnUse" x1="4.8106" y1="6.6752" x2="34.2323" y2="101.4786">
		<stop  offset="0" style="stop-color:#545EA9"/>
		<stop  offset="0.7457" style="stop-color:#322D7D"/>
	</linearGradient>
	<path class="st5" d="M13.7,7.5c0,2-1.2,3.9-4.2,4.7c2,0.2,3.6,1.4,3.6,3.8c0,2.8-2.2,6.4-7.4,6.4c-2.5,0-4.5-1-5.6-2.7L2.2,18
		c1,1.3,2.1,1.8,3.5,1.8c2.2,0,3.8-1.6,3.8-3.9c0-1.6-1.1-2.2-2.9-2.2H5.1l0.7-2.5h1c2.4,0,3.4-1.6,3.4-3.2c0-1.4-0.9-2.1-2.3-2.1
		c-1.5,0-2.7,0.6-4,1.7L2.4,5.4c1.9-1.6,3.8-2.3,6.1-2.3C11.9,3.1,13.7,5.1,13.7,7.5z"/>
	<linearGradient id="SVGID_7_" gradientUnits="userSpaceOnUse" x1="17.1866" y1="2.8303" x2="46.6088" y2="97.635">
		<stop  offset="0" style="stop-color:#545EA9"/>
		<stop  offset="0.7457" style="stop-color:#322D7D"/>
	</linearGradient>
	<path class="st6" d="M26.2,7.3l-1,3.4c-0.4-0.1-0.7-0.2-1.2-0.2c-1.9,0-3,1.7-3.9,4.3l-1,7.2h-3.5l2-14.7h3l-0.1,2.9
		C21.6,8.1,23.1,7,24.7,7C25.3,7,25.7,7.1,26.2,7.3z"/>
	<linearGradient id="SVGID_8_" gradientUnits="userSpaceOnUse" x1="29.4742" y1="-0.9903" x2="58.8971" y2="93.8168">
		<stop  offset="0" style="stop-color:#545EA9"/>
		<stop  offset="0.7457" style="stop-color:#322D7D"/>
	</linearGradient>
	<path class="st7" d="M40.3,1.6l-2.9,20.5h-3.1l0-2.2c-1,1.5-2.4,2.7-4.4,2.7c-3,0-4.6-2.3-4.6-5.9c0-3.9,1.9-9.6,6.9-9.6
		c1.6,0,2.7,0.7,3.5,1.6l1.1-7.4L40.3,1.6z M29,16.7c0,2.2,0.8,3.1,2,3.1c1.5,0,2.6-1.3,3.7-3l0.8-5.8c-0.6-0.9-1.4-1.4-2.5-1.4
		C29.9,9.7,29,14.1,29,16.7z"/>
	<linearGradient id="SVGID_9_" gradientUnits="userSpaceOnUse" x1="49.2492" y1="-7.1325" x2="78.6718" y2="87.6739">
		<stop  offset="0" style="stop-color:#545EA9"/>
		<stop  offset="0.7457" style="stop-color:#322D7D"/>
	</linearGradient>
	<path class="st8" d="M63.6,8.1c0,3.5-2.2,7.3-8.3,7.3H53l-0.9,6.7h-3.6l2.7-19.1h5.5C61,2.9,63.6,4.6,63.6,8.1z M59.8,8.3
		c0-1.9-1.3-2.6-3.4-2.6h-2l-1,7h1.9C58.9,12.7,59.8,10.3,59.8,8.3z"/>
	<linearGradient id="SVGID_10_" gradientUnits="userSpaceOnUse" x1="61.2908" y1="-10.8745" x2="90.7129" y2="83.9302">
		<stop  offset="0" style="stop-color:#545EA9"/>
		<stop  offset="0.7457" style="stop-color:#322D7D"/>
	</linearGradient>
	<path class="st9" d="M74.5,7.3l-1,3.4c-0.4-0.1-0.7-0.2-1.2-0.2c-1.9,0-3,1.7-3.9,4.3l-1,7.2h-3.5l2-14.7h3l-0.1,2.9
		C69.9,8.1,71.4,7,73.1,7C73.6,7,74.1,7.1,74.5,7.3z"/>
	<linearGradient id="SVGID_11_" gradientUnits="userSpaceOnUse" x1="70.0889" y1="-13.6105" x2="99.5123" y2="81.1984">
		<stop  offset="0" style="stop-color:#545EA9"/>
		<stop  offset="0.7457" style="stop-color:#322D7D"/>
	</linearGradient>
	<path class="st10" d="M78.1,22.1h-3.5l2-14.7h3.5L78.1,22.1z M77,2.4C77,1,78,0,79.4,0c1.2,0,2,0.8,2,1.9c0,1.3-1.1,2.4-2.4,2.4
		C77.7,4.3,77,3.5,77,2.4z"/>
	<linearGradient id="SVGID_12_" gradientUnits="userSpaceOnUse" x1="77.6685" y1="-15.96" x2="107.0866" y2="78.8315">
		<stop  offset="0" style="stop-color:#545EA9"/>
		<stop  offset="0.7457" style="stop-color:#322D7D"/>
	</linearGradient>
	<path class="st11" d="M93.4,10l-8,9.3h6.8l-0.7,2.8H80.7l0.3-2.5l8-9.3h-6.1l0.4-2.8h10.4L93.4,10z"/>
	<linearGradient id="SVGID_13_" gradientUnits="userSpaceOnUse" x1="90.2525" y1="-19.8736" x2="119.6735" y2="74.9275">
		<stop  offset="0" style="stop-color:#545EA9"/>
		<stop  offset="0.7457" style="stop-color:#322D7D"/>
	</linearGradient>
	<path class="st12" d="M97.8,16.7c0.1,2.3,1.2,3,2.9,3c1.3,0,2.5-0.4,3.8-1.4l1.4,2.2c-1.6,1.1-3.4,1.9-5.6,1.9c-4,0-6-2.4-6-6.1
		c0-4,2.1-9.4,8-9.4c3.3,0,5.1,1.8,5.1,3.9C107.3,15,102.6,16.2,97.8,16.7z M103.7,11c0-0.6-0.4-1.5-1.7-1.5c-2.5,0-3.7,2.5-4,4.8
		C101.9,14,103.7,12.9,103.7,11z"/>
	<linearGradient id="SVGID_14_" gradientUnits="userSpaceOnUse" x1="110.1596" y1="-26.054" x2="139.577" y2="68.7354">
		<stop  offset="0" style="stop-color:#545EA9"/>
		<stop  offset="0.7457" style="stop-color:#322D7D"/>
	</linearGradient>
	<path class="st13" d="M124.6,11.8l4.1,10.3h-3.9l-2.7-7.9l-4.8,7.9h-4l6.9-10.2l-3.8-8.9h3.9l2.2,6.7l4.3-6.7h3.9L124.6,11.8z"/>
	<linearGradient id="SVGID_15_" gradientUnits="userSpaceOnUse" x1="124.0568" y1="-30.38" x2="153.4794" y2="64.4262">
		<stop  offset="0" style="stop-color:#545EA9"/>
		<stop  offset="0.7457" style="stop-color:#322D7D"/>
	</linearGradient>
	<path class="st14" d="M143.2,14.7c0,3.1-2,7.8-7.1,7.8c-4,0-5.7-2.6-5.7-6.6c0-6.4,3.3-12.8,9.1-12.8c1.7,0,2.9,0.5,3.9,1.2
		l-1.5,2.1c-0.7-0.5-1.5-0.7-2.5-0.7c-2.4,0-4.2,2.2-4.9,5.9c1.4-1.4,2.9-2,4.3-2C141.4,9.7,143.2,11.4,143.2,14.7z M139.8,14.7
		c0-1.9-0.8-2.5-2-2.5c-1.4,0-2.7,0.8-3.7,2c-0.1,0.8-0.1,1.5-0.1,2.1c0,2.5,0.7,3.5,2.3,3.5C139,19.9,139.8,16.6,139.8,14.7z"/>
	<linearGradient id="SVGID_16_" gradientUnits="userSpaceOnUse" x1="137.5677" y1="-34.5778" x2="166.9901" y2="60.2275">
		<stop  offset="0" style="stop-color:#545EA9"/>
		<stop  offset="0.7457" style="stop-color:#322D7D"/>
	</linearGradient>
	<path class="st15" d="M153.6,3.1c3.6,0,5.5,2.5,5.5,6.9c0,5-1.9,12.5-8.1,12.5c-3.6,0-5.5-2.5-5.5-6.9
		C145.5,10.5,147.3,3.1,153.6,3.1z M153.4,5.8c-3.2,0-4.4,6.2-4.4,10.5c0,2.5,0.8,3.5,2.2,3.5c3.2,0,4.4-6.3,4.4-10.5
		C155.6,6.7,154.8,5.8,153.4,5.8z"/>
	<linearGradient id="SVGID_17_" gradientUnits="userSpaceOnUse" x1="68.4373" y1="-13.0502" x2="97.8264" y2="81.648">
		<stop  offset="0" style="stop-color:#545EA9"/>
		<stop  offset="0.7457" style="stop-color:#322D7D"/>
	</linearGradient>
	<path class="st16" d="M0.6,25.5v-1.4h159.2v1.4H0.6z"/>
</g>
</svg>
