<?xml version="1.0" encoding="utf-8"?>
<!-- Generator: Adobe Illustrator 23.0.4, SVG Export Plug-In . SVG Version: 6.00 Build 0)  -->
<svg version="1.1" id="Layer_1" xmlns="http://www.w3.org/2000/svg" xmlns:xlink="http://www.w3.org/1999/xlink" x="0px" y="0px"
	 viewBox="0 0 172.5 25.5" style="enable-background:new 0 0 172.5 25.5;" xml:space="preserve">
<style type="text/css">
	.st0{fill:url(#SVGID_1_);}
	.st1{fill:url(#SVGID_2_);}
	.st2{fill:url(#SVGID_3_);}
	.st3{fill:url(#SVGID_4_);}
	.st4{fill:url(#SVGID_5_);}
	.st5{fill:url(#SVGID_6_);}
	.st6{fill:url(#SVGID_7_);}
	.st7{fill:url(#SVGID_8_);}
	.st8{fill:url(#SVGID_9_);}
	.st9{fill:url(#SVGID_10_);}
	.st10{fill:url(#SVGID_11_);}
	.st11{fill:url(#SVGID_12_);}
	.st12{fill:url(#SVGID_13_);}
	.st13{fill:url(#SVGID_14_);}
	.st14{fill:url(#SVGID_15_);}
	.st15{fill:url(#SVGID_16_);}
	.st16{fill:url(#SVGID_17_);}
	.st17{fill:url(#SVGID_18_);}
</style>
<g>
	<linearGradient id="SVGID_1_" gradientUnits="userSpaceOnUse" x1="698.4457" y1="434.2052" x2="744.2341" y2="485.2566">
		<stop  offset="0" style="stop-color:#545EA9"/>
		<stop  offset="0.7457" style="stop-color:#322D7D"/>
	</linearGradient>
	<path class="st0" d="M713.1,435l-2,1.9c-1.2-1.1-2.3-1.6-3.8-1.6c-1.9,0-3.2,0.9-3.2,2.5c0,1.2,0.7,1.8,3.3,2.7
		c2.8,0.9,4.8,2.2,4.8,5.2s-2.1,6.3-7.6,6.3c-2.9,0-5-1.1-6.4-2.6l2.1-2c1.1,1.2,2.5,1.8,4.4,1.8c2.4,0,3.9-1.2,3.9-3.1
		c0-1.4-0.8-2.1-3.1-2.9c-3.3-1.1-4.9-2.5-4.9-5c0-2.6,2.2-5.5,6.8-5.5C709.8,432.7,711.6,433.5,713.1,435z"/>
	<linearGradient id="SVGID_2_" gradientUnits="userSpaceOnUse" x1="705.2389" y1="428.1123" x2="751.0273" y2="479.1637">
		<stop  offset="0" style="stop-color:#545EA9"/>
		<stop  offset="0.7457" style="stop-color:#322D7D"/>
	</linearGradient>
	<path class="st1" d="M718.4,447.3c-0.2,1.4,0.2,1.9,1.1,1.9c0.6,0,1.2-0.2,1.8-0.5l1,2.3c-1.1,0.7-2.4,1-3.6,1
		c-2.7,0-4.1-1.7-3.7-4.7l1-7.4h-2.2l0.3-2.5h2.3l0.9-3.2l2.8-0.3l-0.5,3.5h3.3l-0.7,2.5h-2.9L718.4,447.3z"/>
	<linearGradient id="SVGID_3_" gradientUnits="userSpaceOnUse" x1="710.873" y1="423.059" x2="756.6614" y2="474.1104">
		<stop  offset="0" style="stop-color:#545EA9"/>
		<stop  offset="0.7457" style="stop-color:#322D7D"/>
	</linearGradient>
	<path class="st2" d="M726.9,446.4c0.1,2.2,1.2,2.9,2.8,2.9c1.3,0,2.4-0.4,3.7-1.3l1.3,2.1c-1.6,1.1-3.3,1.8-5.4,1.8
		c-3.9,0-5.8-2.3-5.8-5.9c0-3.9,2-9.1,7.7-9.1c3.2,0,4.9,1.7,4.9,3.7C736,444.7,731.5,445.9,726.9,446.4z M732.6,440.9
		c0-0.6-0.3-1.4-1.6-1.4c-2.4,0-3.5,2.4-3.9,4.7C730.8,443.7,732.6,442.7,732.6,440.9z"/>
	<linearGradient id="SVGID_4_" gradientUnits="userSpaceOnUse" x1="716.451" y1="418.0561" x2="762.2394" y2="469.1075">
		<stop  offset="0" style="stop-color:#545EA9"/>
		<stop  offset="0.7457" style="stop-color:#322D7D"/>
	</linearGradient>
	<path class="st3" d="M739.5,437.4h2.9l0,1.7c1.5-1.6,2.9-2.1,4.2-2.1c2.8,0,4.4,2,4.4,5.5c0,4-1.9,9.4-7.5,9.4
		c-1.1,0-1.9-0.2-2.6-0.4L740,457l-3.4,0.4L739.5,437.4z M747.5,442.5c0-2.2-0.9-2.9-2.1-2.9c-1.3,0-2.2,0.8-3.2,1.8l-1,7.6
		c0.7,0.2,1.3,0.4,2.1,0.4C746.4,449.4,747.5,445.4,747.5,442.5z"/>
	<linearGradient id="SVGID_5_" gradientUnits="userSpaceOnUse" x1="730.4617" y1="405.4898" x2="776.2501" y2="456.5412">
		<stop  offset="0" style="stop-color:#545EA9"/>
		<stop  offset="0.7457" style="stop-color:#322D7D"/>
	</linearGradient>
	<path class="st4" d="M771.3,437.9c0,2.6-1.3,5-8.7,11l7.6-0.1l-0.7,2.7h-11.1l0.3-2.6c7.9-7.1,9.2-8.6,9.2-10.9
		c0-1.4-0.9-2.2-2.2-2.2c-1.4,0-2.5,0.6-3.7,1.9l-2-1.8c1.7-1.8,3.7-2.8,6.1-2.8C769.4,433.2,771.3,435.2,771.3,437.9z"/>
</g>
<g>
	<linearGradient id="SVGID_6_" gradientUnits="userSpaceOnUse" x1="0.4701" y1="12.5776" x2="14.2782" y2="12.5776">
		<stop  offset="0" style="stop-color:#545EA9"/>
		<stop  offset="0.7457" style="stop-color:#322D7D"/>
	</linearGradient>
	<path class="st5" d="M13.9,17.8h-2.2l-0.6,4.3H7.7l0.6-4.3H0.5l0.3-2.4L7.7,3.1l2.9,1.1L4.6,15.1h4.1l1-4.7h3l-0.7,4.7h2.2
		L13.9,17.8z"/>
	<linearGradient id="SVGID_7_" gradientUnits="userSpaceOnUse" x1="15.7688" y1="13.1314" x2="25.2597" y2="13.1314">
		<stop  offset="0" style="stop-color:#545EA9"/>
		<stop  offset="0.7457" style="stop-color:#322D7D"/>
	</linearGradient>
	<path class="st6" d="M20.4,17.7c-0.2,1.4,0.2,1.9,1.1,1.9c0.6,0,1.2-0.2,1.9-0.5l1,2.4c-1.2,0.7-2.5,1.1-3.7,1.1
		c-2.8,0-4.2-1.7-3.8-4.8L18,10h-2.3l0.4-2.5h2.4l0.9-3.3l2.9-0.3l-0.5,3.7h3.4L24.5,10h-3L20.4,17.7z"/>
	<linearGradient id="SVGID_8_" gradientUnits="userSpaceOnUse" x1="26.2262" y1="11.6492" x2="39.5745" y2="11.6492">
		<stop  offset="0" style="stop-color:#545EA9"/>
		<stop  offset="0.7457" style="stop-color:#322D7D"/>
	</linearGradient>
	<path class="st7" d="M39.5,11.6L38,22.1h-3.5l1.4-9.9c0.2-1.7-0.3-2.2-1.1-2.2c-1.5,0-2.9,1.7-4,3.8l-1.1,8.4h-3.5l2.9-20.5
		l3.5-0.4L31.4,10c1.1-1.8,2.8-3,4.7-3C38.6,7,39.9,8.7,39.5,11.6z"/>
	<linearGradient id="SVGID_9_" gradientUnits="userSpaceOnUse" x1="48.9106" y1="12.508" x2="64.0465" y2="12.508">
		<stop  offset="0" style="stop-color:#545EA9"/>
		<stop  offset="0.7457" style="stop-color:#322D7D"/>
	</linearGradient>
	<path class="st8" d="M64,8.1c0,3.5-2.2,7.3-8.3,7.3h-2.2l-0.9,6.7h-3.6l2.7-19.1h5.5C61.4,2.9,64,4.6,64,8.1z M60.3,8.3
		c0-1.9-1.3-2.6-3.4-2.6h-2l-1,7h1.9C59.4,12.7,60.3,10.3,60.3,8.3z"/>
	<linearGradient id="SVGID_10_" gradientUnits="userSpaceOnUse" x1="64.3754" y1="14.5583" x2="75.001" y2="14.5583">
		<stop  offset="0" style="stop-color:#545EA9"/>
		<stop  offset="0.7457" style="stop-color:#322D7D"/>
	</linearGradient>
	<path class="st9" d="M75,7.3l-1,3.4c-0.4-0.1-0.7-0.2-1.2-0.2c-1.9,0-3,1.7-3.9,4.3l-1,7.2h-3.5l2-14.7h3l-0.1,2.9
		C70.4,8.1,71.9,7,73.5,7C74.1,7,74.5,7.1,75,7.3z"/>
	<linearGradient id="SVGID_11_" gradientUnits="userSpaceOnUse" x1="75.0814" y1="11.0399" x2="81.8328" y2="11.0399">
		<stop  offset="0" style="stop-color:#545EA9"/>
		<stop  offset="0.7457" style="stop-color:#322D7D"/>
	</linearGradient>
	<path class="st10" d="M78.6,22.1h-3.5l2-14.7h3.5L78.6,22.1z M77.4,2.4C77.4,1,78.5,0,79.8,0c1.2,0,2,0.8,2,1.9
		c0,1.3-1.1,2.4-2.4,2.4C78.2,4.3,77.4,3.5,77.4,2.4z"/>
	<linearGradient id="SVGID_12_" gradientUnits="userSpaceOnUse" x1="81.1398" y1="14.7523" x2="94.1996" y2="14.7523">
		<stop  offset="0" style="stop-color:#545EA9"/>
		<stop  offset="0.7457" style="stop-color:#322D7D"/>
	</linearGradient>
	<path class="st11" d="M93.9,10l-8,9.3h6.8l-0.7,2.8H81.1l0.3-2.5l8-9.3h-6.1l0.4-2.8h10.4L93.9,10z"/>
	<linearGradient id="SVGID_13_" gradientUnits="userSpaceOnUse" x1="94.7223" y1="14.7523" x2="107.7564" y2="14.7523">
		<stop  offset="0" style="stop-color:#545EA9"/>
		<stop  offset="0.7457" style="stop-color:#322D7D"/>
	</linearGradient>
	<path class="st12" d="M98.3,16.7c0.1,2.3,1.2,3,2.9,3c1.3,0,2.5-0.4,3.8-1.4l1.4,2.2c-1.6,1.1-3.4,1.9-5.6,1.9c-4,0-6-2.4-6-6.1
		c0-4,2.1-9.4,8-9.4c3.3,0,5.1,1.8,5.1,3.9C107.8,15,103.1,16.2,98.3,16.7z M104.2,11c0-0.6-0.4-1.5-1.7-1.5c-2.5,0-3.7,2.5-4,4.8
		C102.4,14,104.2,12.9,104.2,11z"/>
	<linearGradient id="SVGID_14_" gradientUnits="userSpaceOnUse" x1="113.8392" y1="12.508" x2="131.3539" y2="12.508">
		<stop  offset="0" style="stop-color:#545EA9"/>
		<stop  offset="0.7457" style="stop-color:#322D7D"/>
	</linearGradient>
	<path class="st13" d="M125,11.8l4.1,10.3h-3.9l-2.7-7.9l-4.8,7.9h-4l6.9-10.2L117,2.9h3.9l2.2,6.7l4.3-6.7h3.9L125,11.8z"/>
	<linearGradient id="SVGID_15_" gradientUnits="userSpaceOnUse" x1="130.688" y1="12.7575" x2="140.2896" y2="12.7575">
		<stop  offset="0" style="stop-color:#545EA9"/>
		<stop  offset="0.7457" style="stop-color:#322D7D"/>
	</linearGradient>
	<path class="st14" d="M137.7,22.1h-3.5l2.1-14.8l-4.5,2.5l-1.2-2.6l6.5-3.7h3.1L137.7,22.1z"/>
	<linearGradient id="SVGID_16_" gradientUnits="userSpaceOnUse" x1="142.5833" y1="12.7987" x2="156.1415" y2="12.7987">
		<stop  offset="0" style="stop-color:#545EA9"/>
		<stop  offset="0.7457" style="stop-color:#322D7D"/>
	</linearGradient>
	<path class="st15" d="M150.7,3.1c3.6,0,5.5,2.5,5.5,6.9c0,5-1.9,12.5-8.1,12.5c-3.6,0-5.5-2.5-5.5-6.9
		C142.6,10.5,144.4,3.1,150.7,3.1z M150.5,5.8c-3.2,0-4.4,6.2-4.4,10.5c0,2.5,0.8,3.5,2.2,3.5c3.2,0,4.4-6.3,4.4-10.5
		C152.7,6.7,151.9,5.8,150.5,5.8z"/>
	<linearGradient id="SVGID_17_" gradientUnits="userSpaceOnUse" x1="158.2137" y1="12.7987" x2="171.7719" y2="12.7987">
		<stop  offset="0" style="stop-color:#545EA9"/>
		<stop  offset="0.7457" style="stop-color:#322D7D"/>
	</linearGradient>
	<path class="st16" d="M166.3,3.1c3.6,0,5.5,2.5,5.5,6.9c0,5-1.9,12.5-8.1,12.5c-3.6,0-5.5-2.5-5.5-6.9
		C158.2,10.5,160,3.1,166.3,3.1z M166.1,5.8c-3.2,0-4.4,6.2-4.4,10.5c0,2.5,0.8,3.5,2.2,3.5c3.2,0,4.4-6.3,4.4-10.5
		C168.3,6.7,167.5,5.8,166.1,5.8z"/>
	<linearGradient id="SVGID_18_" gradientUnits="userSpaceOnUse" x1="0" y1="24.8496" x2="172.5432" y2="24.8496">
		<stop  offset="0" style="stop-color:#545EA9"/>
		<stop  offset="0.7457" style="stop-color:#322D7D"/>
	</linearGradient>
	<path class="st17" d="M0,25.5v-1.4h172.5v1.4H0z"/>
</g>
</svg>
