<?xml version="1.0" encoding="utf-8"?>
<!-- Generator: Adobe Illustrator 23.0.4, SVG Export Plug-In . SVG Version: 6.00 Build 0)  -->
<svg version="1.1" id="Layer_1" xmlns="http://www.w3.org/2000/svg" xmlns:xlink="http://www.w3.org/1999/xlink" x="0px" y="0px"
	 viewBox="0 0 176.7 64.7" style="enable-background:new 0 0 176.7 64.7;" xml:space="preserve">
<style type="text/css">
	.st0{fill:#FFFFFF;}
</style>
<g>
	<g>
		<path class="st0" d="M94.1,3.1c0.2,0.1,0.3,0.2,0.3,0.3c0.1,0.1,0.1,0.2,0.1,0.3c0,0.1,0,0.2,0,0.3c0,0.1,0,0.3,0,0.4
			c0,0.6,0,1,0,1.4c-0.1,0.9-0.2,1.6-0.4,1.9C94,8,94.1,8.1,94.2,8.2c0,0.1,0.1,0.2,0.1,0.2c0,0.2-0.4,0.4-1.1,0.5
			c-0.3,0-0.6,0-0.9,0h-0.3c-0.2,0-0.4,0-0.6,0c-0.2,0-0.4,0-0.6,0c-0.1,0.4-0.2,0.6-0.4,0.6c-0.1,0-0.2,0-0.2-0.1
			c-0.1-0.1-0.1-0.2-0.1-0.3c-0.1-0.7-0.1-1.2-0.2-1.7c-0.1-0.8-0.2-1.3-0.2-1.5c-0.1-0.3-0.3-0.6-0.6-1.1c-0.3-0.5-0.5-0.7-0.5-0.8
			c0-0.1,0.1-0.2,0.3-0.2c0.3,0,0.8,0.2,1.3,0.5c0.5,0.3,0.7,0.6,0.7,0.9l0,0.3c0.2,0,0.3,0,0.5-0.1C91.6,5.1,91.9,5,92,5
			c0.2,0,0.4,0,0.6,0.1c0.2,0.1,0.3,0.2,0.3,0.4c0,0.3-0.3,0.5-0.9,0.6c-0.3,0.1-0.7,0.1-1.3,0.1v2.1c0.3,0,0.7,0,1.2-0.1
			c0.5-0.1,1-0.2,1.4-0.4V4.5c0-0.1-0.2-0.4-0.4-1c-0.3-0.5-0.4-0.9-0.4-0.9c0-0.1,0.1-0.2,0.2-0.2c0.2,0,0.5,0.1,0.7,0.2
			C93.7,2.8,93.9,2.9,94.1,3.1z M95.8,0.7c-0.3-0.2-0.4-0.4-0.4-0.5c0-0.1,0.2-0.2,0.5-0.2c0.4,0,0.9,0.1,1.5,0.4c0.6,0.3,1,0.6,1,1
			l0,0.4v5.9c0.2,0,0.5-0.1,0.9-0.2c0.2-0.1,0.4-0.1,0.6-0.1c0.3,0,0.5,0.1,0.8,0.2c0.2,0.1,0.4,0.3,0.4,0.6c0,0.2-0.1,0.3-0.2,0.4
			s-0.3,0.2-0.5,0.2c0,0-0.3-0.1-1-0.2c-0.3-0.1-0.7-0.1-1-0.1c0,0.4,0,0.7-0.1,1c-0.1,0.7-0.1,1.3-0.2,1.8c0,0.3-0.2,0.8-0.4,1.5
			c-0.2,0.7-0.4,1-0.5,1c0,0-0.1-0.1-0.1-0.2c0-0.1,0-0.3,0-0.5l0-3c0-2.1,0-3.7,0-4.8s0-2.3,0-3.4c-0.1-0.2-0.4-0.5-0.7-0.8
			C96.1,0.9,95.9,0.8,95.8,0.7z"/>
		<path class="st0" d="M108.2,3.2c1,0,1.8,0.3,2.3,1c0.4,0.5,0.6,1.2,0.6,2c0,0.6-0.2,1.1-0.7,1.6c-0.5,0.5-1,0.7-1.7,0.7
			c-0.9,0-1.6-0.3-2.2-0.8c-0.6-0.6-0.9-1.2-0.9-2c0-0.7,0.3-1.3,0.8-1.8C106.9,3.4,107.5,3.2,108.2,3.2z M108.4,4.3
			c-0.5,0-0.9,0.2-1.3,0.5c-0.4,0.3-0.6,0.7-0.6,1.1c0,0.4,0.2,0.8,0.7,1.1c0.5,0.3,0.9,0.5,1.5,0.5c0.4,0,0.8-0.2,1.1-0.5
			c0.3-0.3,0.5-0.6,0.5-1c0-0.4-0.2-0.8-0.5-1.2C109.4,4.4,108.9,4.3,108.4,4.3z M112.5,0.7c-0.2-0.2-0.3-0.3-0.3-0.4
			c0-0.1,0.1-0.2,0.4-0.2c0.4,0,0.9,0.2,1.5,0.5c0.7,0.4,1,0.7,1,1.1c0,0.1,0,0.2,0,0.3s0,0.2,0,0.3v5.6c0,0.3,0,0.6,0,0.8
			c-0.1,1.2-0.1,2-0.3,2.7c-0.1,0.4-0.2,0.8-0.4,1.5c-0.2,0.8-0.4,1.2-0.5,1.2c0,0,0,0,0-0.1c0-0.1,0-0.2,0-0.3l-0.1-11.4
			c-0.1-0.2-0.3-0.5-0.6-0.8C113.1,1.1,112.8,0.9,112.5,0.7z"/>
		<path class="st0" d="M124.2,2.9c1,0,1.8,0.3,2.4,0.9c0.5,0.5,0.7,1.2,0.7,2c0,0.6-0.3,1.2-0.8,1.7c-0.5,0.5-1.2,0.8-1.9,0.8
			c-0.7,0-1.4-0.3-2-0.9c-0.6-0.6-0.9-1.2-0.9-2c0-0.7,0.3-1.3,0.8-1.8S123.5,2.9,124.2,2.9z M124.5,4c-0.5,0-0.9,0.2-1.3,0.5
			c-0.4,0.3-0.6,0.7-0.6,1.2c0,0.4,0.2,0.8,0.7,1.1c0.4,0.3,0.9,0.4,1.4,0.4c0.4,0,0.8-0.2,1.1-0.5c0.3-0.3,0.5-0.7,0.5-1.1
			c0-0.4-0.2-0.8-0.5-1.2C125.5,4.1,125,4,124.5,4z M128.9,0.7c-0.2-0.2-0.3-0.3-0.3-0.4c0-0.1,0.2-0.2,0.5-0.2
			c0.4,0,0.9,0.2,1.4,0.5c0.6,0.4,0.9,0.7,0.9,1.1c0,0.1,0,0.3-0.1,0.5c0,0.2-0.1,0.3-0.1,0.4v5.9c0,0.7,0,1.3,0,1.7
			c0,0.4-0.1,0.8-0.1,1.2c-0.1,0.4-0.2,0.9-0.4,1.4c-0.2,0.8-0.4,1.1-0.5,1.1c0,0-0.1-0.1-0.1-0.2c0-0.1,0-0.3,0-0.5l-0.1-6.9
			c-0.1,0-0.3,0.1-0.7,0.2c-0.3,0.1-0.5,0.2-0.5,0.2c-0.1,0-0.4-0.1-0.8-0.4c-0.4-0.3-0.6-0.5-0.6-0.6c0-0.1,0.1-0.2,0.4-0.2h0.5
			c0.5,0,0.8,0,1.1-0.1c0.3-0.1,0.5-0.2,0.7-0.2V2.3c-0.1-0.3-0.3-0.6-0.5-1C129.4,1.2,129.2,0.9,128.9,0.7z"/>
		<path class="st0" d="M146.5,6.6c-1.1,0.1-2.1,0.2-2.9,0.4c-1.4,0.2-2.4,0.5-3,0.7c-0.1,0.1-0.2,0.1-0.3,0.1
			c-0.2,0-0.4-0.1-0.5-0.2c-0.1-0.2-0.2-0.4-0.2-0.7c0-0.1,0-0.2,0-0.3c0-0.1,0-0.2,0.1-0.4c0-0.6-0.2-1.2-0.5-1.7
			c-0.4-0.5-0.7-1.1-1.1-1.6c0-0.2,0.1-0.3,0.4-0.3c0.4,0,0.8,0.2,1.3,0.5c0.5,0.3,0.7,0.7,0.7,1c0,0.1,0,0.2,0,0.3
			c0,0.1,0,0.3,0,0.4v1.1c0,0.2,0,0.4,0.1,0.5c0,0.1,0.1,0.1,0.2,0.1l5.8-0.7V1.9c-0.1-0.2-0.4-0.6-1.1-1.1
			c-0.3-0.3-0.4-0.4-0.4-0.5c0-0.2,0.2-0.2,0.5-0.2c0.4,0,0.9,0.1,1.4,0.4s0.9,0.6,0.9,0.9l0,0.6v2.3c0,0.9,0,1.6-0.1,2.2
			c-0.1,0.7-0.3,1.4-0.6,2c-0.2,0.3-0.3,0.5-0.3,0.5c0,0-0.1,0-0.1-0.1c0-0.1,0-0.2,0-0.3L146.5,6.6z M141.3,9.8
			c0.8,0,1.5,0,2.3-0.1c0.8-0.1,1.5-0.2,2-0.3c0.2,0,0.3-0.1,0.5-0.2c0.2-0.1,0.3-0.1,0.3-0.1c0.1,0,0.3,0.1,0.6,0.4
			c0.3,0.3,0.4,0.4,0.4,0.5c0,0.1,0,0.1,0,0.2c-0.1,0.2-0.1,0.4-0.1,0.6c0,0.3-0.1,0.6-0.1,1.1c-0.1,0.5-0.2,0.9-0.4,1.4
			c-0.2,0.4-0.4,0.7-0.4,0.7c-0.1,0-0.1-0.2-0.1-0.7c0-0.5,0-1.1,0-1.6c0-0.5,0-1,0-1.4c-0.8,0-1.6,0.1-2.2,0.2
			c-0.4,0.1-0.8,0.2-1.2,0.3c-0.1,0-0.2,0.1-0.3,0.2c-0.1,0.1-0.2,0.1-0.4,0.1c-0.2,0-0.5-0.1-1-0.4c-0.5-0.3-0.8-0.5-0.8-0.6
			c0-0.1,0.2-0.2,0.5-0.2H141.3z"/>
		<path class="st0" d="M154,10.4c-0.2-0.2-0.3-0.3-0.3-0.4c0-0.1,0.2-0.2,0.6-0.2c0.4,0,1,0,2,0c0.9,0,1.4,0,1.5,0
			c1.4,0,2.6,0,3.7-0.1c1.1-0.1,2-0.2,2.6-0.4c0.3-0.1,0.6-0.1,0.8-0.1c0.2,0,0.5,0.1,0.8,0.3c0.3,0.2,0.5,0.4,0.5,0.7
			c0,0.2-0.1,0.3-0.2,0.4c-0.1,0.1-0.3,0.2-0.5,0.2h-0.2c-0.3-0.1-0.6-0.1-1.1-0.1c-0.5,0-0.9,0-1.2,0c-1.2,0-2.4,0-3.6,0.1
			c-1.2,0.1-2.1,0.2-2.5,0.3c-0.2,0.1-0.3,0.1-0.5,0.2c-0.2,0.1-0.3,0.1-0.3,0.1c-0.2,0-0.5-0.1-1-0.4
			C154.5,10.7,154.2,10.6,154,10.4z M159.9,1.7c0.3,0.1,0.6,0.3,1.1,0.6c0.5,0.4,0.7,0.7,0.7,1c0,0.2-0.1,0.3-0.3,0.5l-0.6,0.7
			c0.3,0.1,0.6,0.1,0.9,0.1s0.6,0,0.8,0l0.9,0c0.3,0,0.6,0.1,0.9,0.4c0.3,0.2,0.5,0.5,0.5,0.8c0,0.3-0.2,0.5-0.5,0.5
			c-0.3,0-0.6-0.1-0.9-0.3c-0.3-0.2-0.8-0.4-1.4-0.6c-0.6-0.2-1.1-0.4-1.6-0.5c-0.7,0.6-1.5,1.1-2.2,1.4c-0.9,0.4-1.7,0.6-2.5,0.6
			c0,0-0.1,0-0.1,0c0,0,0,0,0,0c0.1,0,0.1-0.1,0.1-0.1c0.1,0,0.2-0.1,0.2-0.1c0.7-0.2,1.5-0.5,2.2-1.1c0.8-0.6,1.5-1.3,1.9-2.2
			c0-0.2-0.2-0.6-0.6-1.1c-0.2-0.3-0.2-0.4-0.2-0.5c0-0.1,0.1-0.2,0.3-0.2L159.9,1.7z"/>
	</g>
	<g>
		<path class="st0" d="M13.6,33.1c1.5-0.6,2.8-1.5,3.6-2.5c0.9-1.1,1.4-2.3,1.4-3.6c0-1.7-0.7-3.1-2.1-4c-1.4-1-3.4-1.5-5.9-1.5
			c-0.3,0-0.9,0-1.6,0c-0.6,0-1.1,0-1.4,0H0.2c0,0,0,0,0,0c0,0,0,0.1,0,0.3c0,0,0,0.1,0,0.1c0,0.1,0,0.3,0.1,0.3
			c0.9,0,1.6,0.1,2,0.2c0.4,0.2,0.7,0.4,0.9,0.8c0.2,0.4,0.3,1,0.3,1.8v19.4c0,0.8-0.1,1.4-0.3,1.8c-0.2,0.4-0.5,0.6-0.9,0.8
			c-0.4,0.2-1.1,0.2-2,0.2C0,47.3,0,47.7,0,47.7c0,0.2,0.1,0.4,0.2,0.4h8.3c0.7,0,1.4,0,2,0c0.5,0,0.9,0,1.3,0c1.8,0,3.4-0.3,4.8-1
			c1.4-0.7,2.6-1.6,3.4-2.8c0.8-1.2,1.2-2.5,1.2-4c0-1.9-0.7-3.5-2.1-4.8C17.7,34.2,15.9,33.4,13.6,33.1z M7.6,25.1
			c0-1.1,0.2-1.8,0.5-2.2c0.3-0.4,0.9-0.5,1.8-0.5c1.5,0,2.6,0.4,3.3,1.3c0.8,0.9,1.1,2.1,1.1,3.7c0,0.3,0,0.7-0.1,1
			c-0.3,2.1-1.9,3.9-4,4.3c0,0,0,0-0.1,0h0c-1.5,0.3-2.4,0.9-2.7,1.3V25.1z M15.3,45.6c-0.9,1-2.4,1.4-4.3,1.4c-1,0-1.7-0.1-2.2-0.3
			c-0.5-0.2-0.8-0.4-1-0.8c-0.2-0.4-0.3-0.9-0.3-1.5v-9.1c0.1-0.1,1-1.2,2.5-1.2c2.1,0,3.8,0.6,4.9,1.9c1.1,1.3,1.7,3,1.7,5.1
			C16.7,43.2,16.3,44.6,15.3,45.6z"/>
		<path class="st0" d="M34.2,23.2c0.1-0.4,0.4-0.7,0.8-0.8c0.4-0.2,1-0.2,1.9-0.2c0.1,0,0.2-0.1,0.2-0.3c0-0.2-0.1-0.3-0.2-0.3H27
			c-0.1,0-0.2,0.1-0.2,0.3c0,0.2,0.1,0.3,0.2,0.3c0.9,0,1.5,0.1,2,0.2c0.4,0.1,0.7,0.4,0.8,0.8c0.2,0.4,0.2,1,0.2,1.8v19.5
			c0,0.8-0.1,1.5-0.2,1.8c-0.2,0.5-0.5,0.8-0.8,0.9c-0.4,0.1-1.1,0.2-2,0.2c-0.1,0-0.2,0.1-0.2,0.3S26.9,48,27,48h9.9
			c0.1,0,0.2-0.1,0.2-0.3s-0.1-0.3-0.2-0.3c-0.9,0-1.6-0.1-2-0.2c-0.5-0.2-0.7-0.7-0.8-0.9c-0.1-0.4-0.2-1-0.2-1.9V25
			C34,24.2,34,23.5,34.2,23.2z"/>
		<path class="st0" d="M114.2,23.1c0.1-0.4,0.4-0.7,0.8-0.8c0.4-0.2,1-0.2,1.9-0.2c0.1,0,0.2-0.1,0.2-0.3c0-0.2-0.1-0.3-0.2-0.3
			l-2,0l-7.9,0c-0.1,0-0.2,0.1-0.2,0.3c0,0.2,0.1,0.3,0.2,0.3c0.9,0,1.6,0.1,2,0.2c0.4,0.2,0.7,0.4,0.8,0.8c0.2,0.4,0.2,1,0.2,1.8
			v19.5c0,0.8-0.1,1.4-0.2,1.8c-0.2,0.5-0.5,0.8-0.8,0.9c-0.4,0.1-1,0.2-2,0.2c-0.1,0-0.2,0.1-0.2,0.3s0.1,0.3,0.2,0.3h9.9
			c0.1,0,0.2-0.1,0.2-0.3s-0.1-0.3-0.2-0.3c-0.9,0-1.6-0.1-2-0.2c-0.5-0.2-0.7-0.7-0.8-0.9c-0.1-0.4-0.2-1-0.2-1.9V25
			C114,24.2,114.1,23.5,114.2,23.1z"/>
		<path class="st0" d="M63.1,23c-1.9-1.2-4.2-1.9-6.7-1.9c-2.3,0-4.5,0.5-6.7,1.6c-2.2,1-4,2.6-5.3,4.6c-1.4,2.1-2.1,4.6-2.1,7.4
			c0,2.5,0.5,4.8,1.6,6.8c1,2.1,2.6,3.8,4.5,5c1.9,1.2,4.2,1.8,6.6,1.8c2.5,0,4.8-0.6,7-1.9c2.1-1.2,3.9-2.9,5.1-5
			c1.3-2.1,1.9-4.5,1.9-7c0-2.3-0.5-4.5-1.5-6.5C66.5,25.9,65,24.3,63.1,23z M63.6,42c-0.7,1.7-1.7,3.1-3,4
			c-1.2,0.9-2.7,1.4-4.3,1.4c-1.8,0-3.5-0.6-5-1.8c-1.5-1.2-2.6-2.9-3.5-5c-0.8-2.1-1.3-4.6-1.3-7.2c0-3.4,0.7-6.1,2.1-8
			c1.4-1.9,3.4-2.9,6-2.9c2,0,3.8,0.6,5.3,1.7c1.5,1.1,2.7,2.7,3.5,4.8c0.8,2,1.2,4.3,1.2,6.9C64.7,38.1,64.3,40.2,63.6,42z"/>
		<path class="st0" d="M144.8,40.3c-0.2,0-0.3,0.1-0.3,0.2c-1.8,4.7-4.6,7-8.1,7c-1.9,0-3.6-0.6-5.1-1.9c-1.5-1.2-2.7-3-3.6-5.1
			c-0.9-2.1-1.3-4.5-1.3-7.1c0-3.4,0.8-6.2,2.3-8.2c1.6-2,3.7-3,6.5-3c2.1,0,3.9,0.6,5.5,1.7c1.5,1.1,2.7,2.8,3.5,5
			c0,0.1,0.1,0.2,0.3,0.2c0.2,0,0.2-0.1,0.2-0.2l-0.5-5.4c0-0.3-0.1-0.5-0.1-0.7c-0.1-0.1-0.2-0.3-0.5-0.3c-0.7-0.4-1.8-0.7-3.1-0.9
			c-1.3-0.2-2.5-0.3-3.7-0.3c-2.6,0-5,0.6-7.3,1.7c-2.3,1.1-4.1,2.7-5.5,4.8c-1.4,2-2.1,4.4-2.1,7c0,2.3,0.5,4.5,1.5,6.6
			c1,2.1,2.6,3.8,4.8,5.2c2.2,1.4,4.9,2,8.1,2c2.8,0,5.8-0.5,8-1.5c0.3-0.1,0.5-0.3,0.6-0.5c0.1-0.2,0.1-0.3,0.1-0.3l0-5.6
			C145,40.5,144.9,40.4,144.8,40.3z"/>
		<path class="st0" d="M167.2,37.7c-0.5-0.9-1.2-1.7-2-2.4c-0.8-0.6-1.9-1.4-3.2-2.3c-1.2-0.8-2.2-1.5-3-2.1
			c-0.7-0.6-1.3-1.3-1.8-2.1c-0.5-0.8-0.7-1.7-0.7-2.7c0-1.2,0.4-2.2,1-2.9c0.7-0.7,1.6-1.1,2.8-1.1c1.8,0,3.1,0.7,4,2.1
			c0.9,1.4,1.6,2.9,2.1,4.6c0,0.1,0,0.1,0.1,0.1c0.1,0,0.1,0,0.2,0c0.1,0,0.3-0.1,0.3-0.2l0-5.7c0-0.2,0-0.4-0.1-0.5
			c-0.1-0.1-0.3-0.2-0.5-0.3c-0.6-0.3-1.4-0.5-2.4-0.7c-0.9-0.2-1.8-0.3-2.7-0.3c-1.4,0-2.7,0.2-3.9,0.7c-1.2,0.5-2.3,1.2-3,2.3
			c-0.8,1-1.2,2.3-1.2,3.7c0,1.2,0.3,2.2,0.8,3.1c0.5,0.9,1.1,1.6,1.8,2.2c0.7,0.6,1.7,1.3,3,2.2c1.3,0.9,2.3,1.6,3.1,2.3
			c0.8,0.6,1.4,1.4,1.9,2.3c0.5,0.9,0.8,2,0.8,3.2c0,1.5-0.4,2.6-1.1,3.3c-0.8,0.6-1.7,1-2.8,1c-1.7,0-3.2-0.7-4.3-2.2
			c-1.1-1.5-2.1-3.4-3-5.7c0-0.1-0.1-0.2-0.3-0.2c-0.1,0-0.2,0.1-0.2,0.2l0,6.4c0,0.4,0.2,0.7,0.4,0.8c0.5,0.4,1.5,0.8,2.9,1.1
			c1.2,0.3,2.4,0.5,3.5,0.5c1.6,0,3.1-0.3,4.4-0.9c1.3-0.6,2.3-1.5,3-2.6c0.7-1.1,1.1-2.4,1.1-3.8C168,39.7,167.7,38.6,167.2,37.7z"
			/>
		<path class="st0" d="M100.9,21.5h-7.7c-0.1,0-0.1,0.2-0.1,0.3c0,0.1,0,0.3,0.1,0.3c1,0,1.8,0.4,2.4,1.2c0.6,0.8,0.8,1.9,0.8,3.4
			v17.9l-15.7-23c0-0.1-0.1-0.1-0.1-0.1l-7.1,0c-0.1,0-0.2,0.1-0.2,0.3c0,0.1,0,0.3,0.1,0.3c0,0,3.9,0.2,3.8,2.2V43
			c0,1.5-0.3,2.5-0.9,3.3c-0.6,0.8-1.5,1.2-2.6,1.2c-0.1,0-0.2,0.1-0.2,0.3s0.1,0.3,0.2,0.3h7.9c0.1,0,0.1-0.2,0.1-0.3
			s0-0.3-0.1-0.3c-1,0-1.8-0.4-2.4-1.2c-0.6-0.8-0.8-1.9-0.8-3.3V24.5L95.1,48l0,0l2.4,0l0-21.4c0-1.5,0.3-2.6,0.9-3.4
			c0.6-0.8,1.4-1.2,2.4-1.2c0.1,0,0.1-0.2,0.1-0.3C101.1,21.7,101.1,21.5,100.9,21.5z"/>
	</g>
	<g>
		<path class="st0" d="M174.1,21.5c1.2,0,2.2,1,2.2,2.2s-1,2.2-2.2,2.2c-1.2,0-2.2-1-2.2-2.2S172.9,21.5,174.1,21.5 M174.1,21.2
			c-1.4,0-2.5,1.1-2.5,2.5s1.1,2.5,2.5,2.5s2.5-1.1,2.5-2.5S175.5,21.2,174.1,21.2L174.1,21.2z"/>
		<path class="st0" d="M175.5,24.8c0,0-0.1,0.1-0.1,0.1c0,0-0.1,0-0.1,0c0,0,0-0.1-0.1-0.1c0-0.1,0-0.1,0-0.1l-0.1-0.5
			c0-0.1-0.1-0.2-0.2-0.3c-0.1-0.1-0.3-0.1-0.5-0.1c0.6-0.1,0.9-0.3,0.9-0.7c0-0.2-0.1-0.4-0.3-0.5c-0.2-0.1-0.4-0.2-0.8-0.2l-0.8,0
			c-0.2,0-0.4,0-0.4,0v0.1c0.1,0,0.1,0,0.2,0.1c0,0,0,0.1,0,0.2v1.7c0,0.1,0,0.2,0,0.2c0,0-0.1,0.1-0.2,0.1v0.1l0.5,0l0.5,0v-0.1
			c-0.1,0-0.1,0-0.2-0.1c0,0,0-0.1,0-0.2v-0.8c0.2,0,0.4,0,0.5,0c0.1,0,0.2,0.1,0.2,0.1c0,0,0.1,0.1,0.1,0.2l0.2,0.6
			c0,0.1,0.1,0.2,0.2,0.2c0.1,0.1,0.2,0.1,0.3,0.1c0.1,0,0.2,0,0.3,0C175.5,24.9,175.6,24.9,175.5,24.8L175.5,24.8z M174,23.6h-0.2
			v-0.8c0-0.1,0-0.2,0.1-0.2c0,0,0.1-0.1,0.3-0.1c0.2,0,0.4,0,0.5,0.1c0.1,0.1,0.1,0.2,0.1,0.4c0,0.2-0.1,0.3-0.2,0.4
			C174.5,23.6,174.3,23.6,174,23.6z"/>
	</g>
	<g>
		<path class="st0" d="M4.7,57.3H0l0,0c0,0.1,0,0.2,0,0.4c0,0.1,0,0.2,0,0.3l0,0h1.4l0.5,0v6.5l0,0c0.1,0,0.3,0,0.4,0
			c0.2,0,0.3,0,0.4,0l0,0v-6.5l0.5,0h0.9c0.4,0,0.5-0.2,0.5-0.4C4.8,57.6,4.8,57.5,4.7,57.3L4.7,57.3z"/>
		<path class="st0" d="M12,57.3c-0.2,0-0.3,0-0.4,0l0,0v2.4l0,0.7l-0.6,0H8.9l-0.6,0l0-0.7v-2.4l0,0c-0.1,0-0.2,0-0.4,0
			c-0.2,0-0.3,0-0.4,0l0,0v7.2l0,0c0.1,0,0.2,0,0.4,0c0.2,0,0.3,0,0.4,0l0,0v-2.6l0-0.7l0.6,0H11l0.6,0l0,0.7v2.6l0,0
			c0.1,0,0.2,0,0.4,0s0.3,0,0.4,0l0,0v-7.2l0,0C12.3,57.3,12.2,57.3,12,57.3z"/>
		<path class="st0" d="M16.9,63.8l0-0.3v-2.2c0.2,0,0.3,0,0.6,0h2.2l0,0c0-0.1,0-0.2,0-0.3c0-0.1,0-0.2,0-0.4l0,0h-2.2l-0.6,0v-1.8
			l0-0.6h3.3l0,0c0-0.1,0.1-0.2,0.1-0.4c0-0.1,0-0.2,0-0.3l0,0h-4.1L16,57.4V64c0,0.2,0,0.3,0.1,0.4c0.1,0.1,0.2,0.2,0.4,0.2h3.3
			c0.3,0,0.5-0.1,0.6-0.4c0-0.1,0-0.2,0-0.3v0h-2.9C17.3,63.8,17.1,63.8,16.9,63.8z"/>
		<path class="st0" d="M30.1,60.7l-1.2-0.5c-0.3-0.1-0.6-0.3-0.7-0.4c-0.2-0.2-0.3-0.4-0.3-0.7c0-0.1,0-0.3,0.1-0.4
			c0.1-0.1,0.2-0.2,0.3-0.3c0.1-0.1,0.3-0.2,0.4-0.2c0.4-0.1,0.8-0.1,1.4,0c0.3,0.1,0.6,0.2,0.9,0.4l0,0l0,0
			c0.2-0.2,0.3-0.4,0.3-0.7v0l0,0c-0.7-0.3-1.4-0.5-2.1-0.5c-0.3,0-0.7,0.1-0.9,0.2c-0.3,0.1-0.5,0.2-0.7,0.4
			c-0.2,0.2-0.4,0.4-0.5,0.6c-0.1,0.2-0.2,0.5-0.2,0.8c0,0.8,0.5,1.4,1.4,1.8l1.2,0.5c0.7,0.3,1.1,0.7,1.1,1.3
			c0,0.3-0.1,0.6-0.4,0.8c-0.3,0.2-0.7,0.3-1.1,0.3c-0.7,0-1.4-0.2-2.1-0.7l0,0l0,0c-0.2,0.2-0.4,0.4-0.4,0.7l0,0l0,0
			c0.7,0.5,1.5,0.8,2.4,0.8c0.9,0,1.5-0.2,1.9-0.6c0.4-0.4,0.6-0.9,0.6-1.5C31.7,61.8,31.2,61.2,30.1,60.7z"/>
		<path class="st0" d="M38.5,57.9c-0.2-0.2-0.5-0.3-0.7-0.4c-0.3-0.1-0.6-0.1-1-0.1l-2,0h0l-0.1,0.1v7.1l0,0c0.1,0,0.2,0,0.4,0
			c0.2,0,0.3,0,0.4,0l0,0v-2.7h1.2c0.7,0,1.3-0.2,1.7-0.6c0.4-0.4,0.6-1,0.6-1.7c0-0.4-0.1-0.7-0.2-1C38.9,58.3,38.7,58.1,38.5,57.9
			z M35.6,58c0.1,0,0.3,0,0.5,0h0.7c0.3,0,0.5,0,0.7,0.1c0.2,0.1,0.3,0.2,0.4,0.3c0.1,0.1,0.2,0.3,0.2,0.5c0,0.2,0.1,0.4,0.1,0.6
			c0,0.2,0,0.4-0.1,0.6c0,0.2-0.1,0.4-0.2,0.5c-0.1,0.1-0.2,0.3-0.4,0.3c-0.2,0.1-0.4,0.1-0.7,0.1h-0.8c-0.2,0-0.3,0-0.5,0V58z"/>
		<path class="st0" d="M44.1,57.3L44.1,57.3c-0.1,0-0.3,0-0.5,0c-0.2,0-0.4,0-0.5,0l0,0l-2.4,7.1l0,0l0,0.1l0,0
			c0.3,0.1,0.6,0.1,0.8,0l0,0l0.6-1.9l0.7,0h1.4l0.7,0l0.5,1.5c0.1,0.2,0.1,0.3,0.2,0.4c0.1,0.1,0.2,0.1,0.4,0.1
			c0.2,0,0.3,0,0.4-0.1l0,0L44.1,57.3L44.1,57.3z M44.7,61.9c-0.1,0-0.2,0-0.3,0l-0.3,0h-1.2l-0.5,0l0.8-2.4
			c0.1-0.3,0.2-0.7,0.3-1.2c0.1,0.4,0.3,0.9,0.5,1.7L44.7,61.9z"/>
		<path class="st0" d="M53.9,64c-0.1-0.1-0.1-0.3-0.2-0.5l-0.5-1.4c-0.2-0.4-0.4-0.7-0.6-0.8c0.4-0.1,0.7-0.4,0.9-0.7
			c0.2-0.3,0.4-0.8,0.4-1.2c0-0.7-0.2-1.2-0.6-1.6c-0.4-0.4-1-0.6-1.7-0.6l-2.1,0h0l-0.1,0.1v7.1l0,0c0.1,0,0.2,0,0.4,0
			c0.1,0,0.3,0,0.4,0l0,0v-3h1c0.3,0,0.5,0.1,0.7,0.2c0.2,0.2,0.3,0.4,0.4,0.7l0.6,1.6c0.1,0.2,0.2,0.3,0.2,0.4
			c0.1,0.1,0.2,0.1,0.4,0.1c0.3,0,0.5-0.1,0.6-0.3l0,0l0,0C54,64.2,54,64.1,53.9,64z M50.1,58c0.1,0,0.3,0,0.5,0h0.8
			c0.3,0,0.5,0,0.7,0.1c0.2,0.1,0.3,0.2,0.5,0.3c0.1,0.1,0.2,0.3,0.2,0.4c0,0.2,0.1,0.3,0.1,0.5c0,0.2,0,0.4-0.1,0.5
			c0,0.2-0.1,0.3-0.2,0.4c-0.1,0.1-0.3,0.2-0.4,0.3c-0.2,0.1-0.4,0.1-0.7,0.1c-0.3,0-0.5,0-0.8,0c-0.2,0-0.3,0-0.5,0V58z"/>
		<path class="st0" d="M61.5,63.6L60.9,62c-0.2-0.4-0.4-0.8-0.6-1c-0.2-0.2-0.4-0.3-0.7-0.4c0.1-0.1,0.2-0.2,0.3-0.3l1.8-2.9
			l-0.1-0.1l0,0c-0.2,0-0.4,0-0.5,0c-0.1,0-0.2,0-0.3,0.1c-0.1,0.1-0.2,0.2-0.3,0.3l-1.5,2.5c-0.1,0.2-0.2,0.2-0.3,0.2l-0.7,0v-3.1
			l0,0c-0.1,0-0.2,0-0.4,0c-0.2,0-0.3,0-0.4,0l0,0v7.2l0,0c0.1,0,0.2,0,0.4,0c0.2,0,0.3,0,0.4,0l0,0v-3.3c0.3,0,0.6,0,0.9,0
			c0.3,0,0.5,0.1,0.7,0.2c0.2,0.2,0.4,0.5,0.5,0.9l0.7,1.7c0.1,0.2,0.1,0.3,0.2,0.4c0.1,0.1,0.2,0.1,0.5,0.1c0.2,0,0.4-0.1,0.5-0.3
			l0,0l0,0C61.8,64.1,61.6,63.9,61.5,63.6z"/>
		<path class="st0" d="M65.5,63.8v-5.9c0-0.2,0-0.3-0.1-0.4c-0.1-0.1-0.2-0.1-0.4-0.1h-0.3l-0.1,0.1V64c0,0.2,0,0.3,0.1,0.4
			c0.1,0.1,0.2,0.2,0.4,0.2h2.9c0.3,0,0.5-0.1,0.6-0.4c0-0.1,0-0.2,0-0.4v0h-2.3C66.1,63.8,65.8,63.8,65.5,63.8z"/>
		<path class="st0" d="M72.4,63.8l0-0.3v-2.2c0.2,0,0.3,0,0.6,0h2.2l0,0c0-0.1,0-0.2,0-0.3c0-0.1,0-0.2,0-0.4l0,0H73l-0.6,0v-1.8
			l0-0.6h3.3l0,0c0-0.1,0.1-0.2,0.1-0.4c0-0.1,0-0.2,0-0.3l0,0h-4.1l-0.1,0.1V64c0,0.2,0,0.3,0.1,0.4c0.1,0.1,0.2,0.2,0.4,0.2h3.3
			c0.3,0,0.5-0.1,0.6-0.4c0-0.1,0-0.2,0-0.3v0H73C72.8,63.8,72.6,63.8,72.4,63.8z"/>
		<path class="st0" d="M81.7,60.7l-1.2-0.5c-0.3-0.1-0.6-0.3-0.7-0.4c-0.2-0.2-0.3-0.4-0.3-0.7c0-0.1,0-0.3,0.1-0.4
			c0.1-0.1,0.2-0.2,0.3-0.3c0.1-0.1,0.3-0.2,0.4-0.2c0.4-0.1,0.8-0.1,1.4,0c0.3,0.1,0.6,0.2,0.9,0.4l0,0l0,0
			c0.2-0.2,0.3-0.4,0.3-0.7v0l0,0c-0.7-0.3-1.4-0.5-2.1-0.5c-0.3,0-0.7,0.1-0.9,0.2c-0.3,0.1-0.5,0.2-0.7,0.4
			c-0.2,0.2-0.4,0.4-0.5,0.6c-0.1,0.2-0.2,0.5-0.2,0.8c0,0.8,0.5,1.4,1.4,1.8l1.2,0.5c0.7,0.3,1.1,0.7,1.1,1.3
			c0,0.3-0.1,0.6-0.4,0.8c-0.3,0.2-0.7,0.3-1.1,0.3c-0.7,0-1.4-0.2-2.1-0.7l0,0l0,0c-0.2,0.2-0.4,0.4-0.4,0.7l0,0l0,0
			c0.7,0.5,1.5,0.8,2.4,0.8c0.9,0,1.5-0.2,1.9-0.6c0.4-0.4,0.6-0.9,0.6-1.5C83.3,61.8,82.8,61.2,81.7,60.7z"/>
		<path class="st0" d="M90.7,57.3c-0.2,0-0.3,0-0.4,0l0,0v7.2l0,0c0.1,0,0.2,0,0.4,0c0.2,0,0.3,0,0.4,0l0,0v-7.2l0,0
			C91,57.3,90.8,57.3,90.7,57.3z"/>
		<path class="st0" d="M99.4,57.3c-0.2,0-0.3,0-0.4,0.1c-0.1,0.1-0.1,0.2-0.1,0.4v3.3c0,0.7,0,1.4,0.1,2.2c-0.3-0.6-0.5-1.1-0.7-1.3
			l-2.5-4.7l0,0l0,0c-0.1,0-0.3,0-0.5,0c-0.2,0-0.4,0-0.5,0l0,0v7.2l0,0c0.1,0,0.2,0,0.4,0c0.1,0,0.2,0,0.4,0l0,0v-4
			c0-0.2,0-0.9-0.1-2.1c0.2,0.5,0.5,0.9,0.6,1.3l2.5,4.7l0,0l0,0c0.1,0,0.3,0,0.5,0c0.2,0,0.4,0,0.5,0l0,0v-7.2l-0.1-0.1H99.4z"/>
		<path class="st0" d="M111,57.3c-0.2-0.1-0.4-0.1-0.6,0c-0.1,0-0.1,0-0.2,0l0,0l-1.1,2.8v0c-0.1,0.3-0.2,0.6-0.3,0.8
			c-0.1,0.1-0.1,0.2-0.1,0.3c-0.1-0.3-0.2-0.5-0.2-0.7c-0.1-0.2-0.1-0.3-0.2-0.5l-1-2.4c-0.1-0.1-0.1-0.3-0.2-0.3
			c-0.2-0.1-0.4-0.1-0.5,0c-0.1,0-0.2,0.1-0.3,0.1l0,0l2,4.7v2.4l0,0c0.1,0,0.2,0,0.4,0c0.2,0,0.3,0,0.4,0l0,0v-2.4l2-4.7l0,0
			L111,57.3L111,57.3z"/>
		<path class="st0" d="M118.2,58.3c-0.2-0.3-0.5-0.6-0.9-0.8c-0.4-0.2-0.8-0.3-1.3-0.3c-0.5,0-0.9,0.1-1.2,0.3
			c-0.4,0.2-0.7,0.4-0.9,0.8c-0.2,0.3-0.4,0.7-0.5,1.2c-0.1,0.5-0.2,1-0.2,1.5c0,1.4,0.4,2.5,1.1,3.1c0.5,0.4,1,0.6,1.7,0.6
			c0.5,0,0.9-0.1,1.2-0.3c0.4-0.2,0.7-0.4,0.9-0.8c0.2-0.3,0.4-0.7,0.5-1.2c0.1-0.5,0.2-1,0.2-1.5c0-0.5-0.1-1-0.2-1.4
			C118.6,59.1,118.4,58.7,118.2,58.3z M116,63.9c-0.4,0-0.7-0.1-1-0.3c-0.2-0.2-0.4-0.4-0.6-0.7c-0.1-0.3-0.2-0.6-0.3-1
			c0-0.3-0.1-0.7-0.1-1c0-0.2,0-0.3,0-0.5c0-0.2,0-0.3,0.1-0.5c0-0.2,0.1-0.5,0.2-0.7c0.1-0.2,0.2-0.4,0.3-0.6
			c0.1-0.2,0.3-0.3,0.5-0.4c0.2-0.1,0.5-0.2,0.8-0.2c0.4,0,0.7,0.1,1,0.3c0.2,0.2,0.4,0.4,0.6,0.7c0.1,0.3,0.2,0.6,0.3,1
			c0,0.4,0.1,0.7,0.1,1c0,0.2,0,0.4,0,0.6c0,0.2-0.1,0.4-0.1,0.7c-0.1,0.2-0.1,0.4-0.2,0.6c-0.1,0.2-0.2,0.4-0.3,0.5
			c-0.1,0.2-0.3,0.3-0.5,0.4C116.5,63.9,116.3,63.9,116,63.9z"/>
		<path class="st0" d="M126.6,57.3c-0.2,0-0.3,0-0.4,0l0,0v4.7c0,0.6-0.1,1.1-0.4,1.4c-0.3,0.3-0.7,0.5-1.2,0.5
			c-0.5,0-1-0.2-1.2-0.5c-0.3-0.3-0.4-0.8-0.4-1.4v-4.2c0-0.2,0-0.3-0.1-0.4c-0.1-0.1-0.2-0.1-0.4-0.1H122l-0.1,0.1v4.7
			c0,0.4,0.1,0.8,0.2,1.1c0.1,0.3,0.3,0.6,0.5,0.8c0.2,0.2,0.5,0.4,0.8,0.5c0.3,0.1,0.7,0.2,1.1,0.2c0.4,0,0.7-0.1,1.1-0.2
			c0.3-0.1,0.6-0.3,0.8-0.5c0.2-0.2,0.4-0.5,0.5-0.8c0.1-0.3,0.2-0.7,0.2-1.1v-4.7l0,0C126.9,57.3,126.8,57.3,126.6,57.3z"/>
		<path class="st0" d="M135.1,64c-0.1-0.1-0.2-0.3-0.2-0.5l-0.5-1.4c-0.2-0.4-0.4-0.7-0.6-0.8c0.4-0.1,0.7-0.4,0.9-0.7
			c0.2-0.3,0.4-0.8,0.4-1.2c0-0.7-0.2-1.2-0.6-1.6c-0.4-0.4-1-0.6-1.7-0.6l-2.1,0h0l-0.1,0.1v7.1l0,0c0.1,0,0.2,0,0.4,0
			c0.1,0,0.3,0,0.4,0l0,0v-3h1c0.3,0,0.5,0.1,0.7,0.2c0.2,0.2,0.3,0.4,0.4,0.7l0.6,1.6c0.1,0.2,0.2,0.3,0.2,0.4
			c0.1,0.1,0.2,0.1,0.4,0.1c0.3,0,0.5-0.1,0.6-0.3l0,0l0,0C135.3,64.2,135.2,64.1,135.1,64z M131.4,58c0.1,0,0.3,0,0.5,0h0.8
			c0.3,0,0.5,0,0.7,0.1c0.2,0.1,0.3,0.2,0.5,0.3c0.1,0.1,0.2,0.3,0.2,0.4c0,0.2,0.1,0.3,0.1,0.5c0,0.2,0,0.4-0.1,0.5
			c0,0.2-0.1,0.3-0.2,0.4c-0.1,0.1-0.3,0.2-0.4,0.3c-0.2,0.1-0.4,0.1-0.7,0.1c-0.3,0-0.5,0-0.8,0c-0.2,0-0.3,0-0.5,0V58z"/>
		<path class="st0" d="M143,63.8l0-0.3v-2.2c0.2,0,0.3,0,0.6,0h2.2l0,0c0-0.1,0-0.2,0-0.3c0-0.1,0-0.2,0-0.4l0,0h-2.2l-0.6,0v-1.8
			l0-0.6h3.3l0,0c0-0.1,0.1-0.2,0.1-0.4c0-0.1,0-0.2,0-0.3l0,0h-4.1l-0.1,0.1V64c0,0.2,0,0.3,0.1,0.4c0.1,0.1,0.2,0.2,0.4,0.2h3.3
			c0.3,0,0.5-0.1,0.6-0.4c0-0.1,0-0.2,0-0.3v0h-2.9C143.4,63.8,143.2,63.8,143,63.8z"/>
		<path class="st0" d="M153.5,57.3c-0.2-0.1-0.4-0.1-0.6,0c-0.1,0-0.1,0-0.2,0l0,0l-1.1,2.8v0c-0.1,0.3-0.2,0.6-0.3,0.8
			c-0.1,0.1-0.1,0.2-0.1,0.3c-0.1-0.3-0.2-0.5-0.2-0.7c-0.1-0.2-0.1-0.3-0.2-0.5l-1-2.4c-0.1-0.1-0.1-0.3-0.2-0.3
			c-0.2-0.1-0.4-0.1-0.5,0c-0.1,0-0.2,0.1-0.3,0.1l0,0l2,4.7v2.4l0,0c0.1,0,0.2,0,0.4,0c0.2,0,0.3,0,0.4,0l0,0v-2.4l2-4.7l0,0
			L153.5,57.3L153.5,57.3z"/>
		<path class="st0" d="M157,63.8l0-0.3v-2.2c0.2,0,0.3,0,0.6,0h2.2l0,0c0-0.1,0-0.2,0-0.3c0-0.1,0-0.2,0-0.4l0,0h-2.2l-0.6,0v-1.8
			l0-0.6h3.3l0,0c0-0.1,0.1-0.2,0.1-0.4c0-0.1,0-0.2,0-0.3l0,0h-4.1l-0.1,0.1V64c0,0.2,0,0.3,0.1,0.4c0.1,0.1,0.2,0.2,0.4,0.2h3.3
			c0.3,0,0.5-0.1,0.6-0.4c0-0.1,0-0.2,0-0.3v0h-2.9C157.5,63.8,157.3,63.8,157,63.8z"/>
		<path class="st0" d="M166.4,60.7l-1.2-0.5c-0.3-0.1-0.6-0.3-0.7-0.4c-0.2-0.2-0.3-0.4-0.3-0.7c0-0.1,0-0.3,0.1-0.4
			c0.1-0.1,0.2-0.2,0.3-0.3c0.1-0.1,0.3-0.2,0.4-0.2c0.4-0.1,0.8-0.1,1.4,0c0.3,0.1,0.6,0.2,0.9,0.4l0,0l0,0
			c0.2-0.2,0.3-0.4,0.3-0.7v0l0,0c-0.7-0.3-1.4-0.5-2.1-0.5c-0.3,0-0.7,0.1-0.9,0.2c-0.3,0.1-0.5,0.2-0.7,0.4
			c-0.2,0.2-0.4,0.4-0.5,0.6c-0.1,0.2-0.2,0.5-0.2,0.8c0,0.8,0.5,1.4,1.4,1.8l1.2,0.5c0.7,0.3,1.1,0.7,1.1,1.3
			c0,0.3-0.1,0.6-0.4,0.8c-0.3,0.2-0.7,0.3-1.1,0.3c-0.7,0-1.4-0.2-2.1-0.7l0,0l0,0c-0.2,0.2-0.4,0.4-0.4,0.7l0,0l0,0
			c0.7,0.5,1.5,0.8,2.4,0.8c0.9,0,1.5-0.2,1.9-0.6c0.4-0.4,0.6-0.9,0.6-1.5C168,61.8,167.4,61.2,166.4,60.7z"/>
	</g>
</g>
</svg>
