<?xml version="1.0" encoding="utf-8"?>
<!-- Generator: Adobe Illustrator 23.0.4, SVG Export Plug-In . SVG Version: 6.00 Build 0)  -->
<svg version="1.1" id="Layer_1" xmlns="http://www.w3.org/2000/svg" xmlns:xlink="http://www.w3.org/1999/xlink" x="0px" y="0px"
	 viewBox="0 0 114.8 16.5" style="enable-background:new 0 0 114.8 16.5;" xml:space="preserve">
<style type="text/css">
	.st0{fill:url(#SVGID_1_);}
	.st1{fill:url(#SVGID_2_);}
	.st2{fill:url(#SVGID_3_);}
	.st3{fill:url(#SVGID_4_);}
	.st4{fill:url(#SVGID_5_);}
	.st5{fill:url(#SVGID_6_);}
	.st6{fill:url(#SVGID_7_);}
	.st7{fill:url(#SVGID_8_);}
	.st8{fill:url(#SVGID_9_);}
	.st9{fill:url(#SVGID_10_);}
	.st10{fill:url(#SVGID_11_);}
	.st11{fill:url(#SVGID_12_);}
	.st12{fill:url(#SVGID_13_);}
	.st13{fill:url(#SVGID_14_);}
	.st14{fill:url(#SVGID_15_);}
	.st15{fill:url(#SVGID_16_);}
	.st16{fill:url(#SVGID_17_);}
	.st17{fill:url(#SVGID_18_);}
</style>
<g>
	<linearGradient id="SVGID_1_" gradientUnits="userSpaceOnUse" x1="669.5812" y1="397.3665" x2="715.3696" y2="448.4179">
		<stop  offset="0" style="stop-color:#545EA9"/>
		<stop  offset="0.7457" style="stop-color:#322D7D"/>
	</linearGradient>
	<path class="st0" d="M684.2,398.2l-2,1.9c-1.2-1.1-2.3-1.6-3.8-1.6c-1.9,0-3.2,0.9-3.2,2.5c0,1.2,0.7,1.8,3.3,2.7
		c2.8,0.9,4.8,2.2,4.8,5.2c0,3-2.1,6.3-7.6,6.3c-2.9,0-5-1.1-6.4-2.6l2.1-2c1.1,1.2,2.5,1.8,4.4,1.8c2.4,0,3.9-1.2,3.9-3.1
		c0-1.4-0.8-2.1-3.1-2.9c-3.3-1.1-4.9-2.5-4.9-5c0-2.6,2.2-5.5,6.8-5.5C680.9,395.8,682.8,396.7,684.2,398.2z"/>
	<linearGradient id="SVGID_2_" gradientUnits="userSpaceOnUse" x1="676.3745" y1="391.2736" x2="722.1628" y2="442.325">
		<stop  offset="0" style="stop-color:#545EA9"/>
		<stop  offset="0.7457" style="stop-color:#322D7D"/>
	</linearGradient>
	<path class="st1" d="M689.5,410.5c-0.2,1.4,0.2,1.9,1.1,1.9c0.6,0,1.2-0.2,1.8-0.5l1,2.3c-1.1,0.7-2.4,1-3.6,1
		c-2.7,0-4.1-1.7-3.7-4.7l1-7.4H685l0.3-2.5h2.3l0.9-3.2l2.8-0.3l-0.5,3.5h3.3l-0.7,2.5h-2.9L689.5,410.5z"/>
	<linearGradient id="SVGID_3_" gradientUnits="userSpaceOnUse" x1="682.0086" y1="386.2202" x2="727.797" y2="437.2717">
		<stop  offset="0" style="stop-color:#545EA9"/>
		<stop  offset="0.7457" style="stop-color:#322D7D"/>
	</linearGradient>
	<path class="st2" d="M698,409.5c0.1,2.2,1.2,2.9,2.8,2.9c1.3,0,2.4-0.4,3.7-1.3l1.3,2.1c-1.6,1.1-3.3,1.8-5.4,1.8
		c-3.9,0-5.8-2.3-5.8-5.9c0-3.9,2-9.1,7.7-9.1c3.2,0,4.9,1.7,4.9,3.7C707.2,407.9,702.7,409,698,409.5z M703.7,404
		c0-0.6-0.3-1.4-1.6-1.4c-2.4,0-3.5,2.4-3.9,4.7C702,406.9,703.7,405.9,703.7,404z"/>
	<linearGradient id="SVGID_4_" gradientUnits="userSpaceOnUse" x1="687.5865" y1="381.2174" x2="733.3749" y2="432.2688">
		<stop  offset="0" style="stop-color:#545EA9"/>
		<stop  offset="0.7457" style="stop-color:#322D7D"/>
	</linearGradient>
	<path class="st3" d="M710.6,400.6h2.9l0,1.7c1.5-1.6,2.9-2.1,4.2-2.1c2.8,0,4.4,2,4.4,5.5c0,4-1.9,9.4-7.5,9.4
		c-1.1,0-1.9-0.2-2.6-0.4l-0.8,5.5l-3.4,0.4L710.6,400.6z M718.6,405.6c0-2.2-0.9-2.9-2.1-2.9c-1.3,0-2.2,0.8-3.2,1.8l-1,7.6
		c0.7,0.2,1.3,0.4,2.1,0.4C717.5,412.6,718.6,408.5,718.6,405.6z"/>
	<linearGradient id="SVGID_5_" gradientUnits="userSpaceOnUse" x1="701.5972" y1="368.651" x2="747.3856" y2="419.7025">
		<stop  offset="0" style="stop-color:#545EA9"/>
		<stop  offset="0.7457" style="stop-color:#322D7D"/>
	</linearGradient>
	<path class="st4" d="M742.5,401c0,2.6-1.3,5-8.7,11l7.6-0.1l-0.7,2.7h-11.1l0.3-2.6c7.9-7.1,9.2-8.6,9.2-10.9
		c0-1.4-0.9-2.2-2.2-2.2c-1.4,0-2.5,0.6-3.7,1.9l-2-1.8c1.7-1.8,3.7-2.8,6.1-2.8C740.6,396.4,742.5,398.4,742.5,401z"/>
</g>
<g>
	<linearGradient id="SVGID_6_" gradientUnits="userSpaceOnUse" x1="0.8559" y1="8.058" x2="11.106" y2="8.058">
		<stop  offset="0" style="stop-color:#545EA9"/>
		<stop  offset="0.7457" style="stop-color:#322D7D"/>
	</linearGradient>
	<path class="st5" d="M11.1,3.1L9.8,4.3C9,3.7,8.3,3.4,7.3,3.4c-3,0-4.1,3.6-4.1,6.4c0,2.1,0.8,2.9,2.4,2.9c0.7,0,1.4-0.2,2-0.5
		L8.1,9H6.3V7.2h4.3l-0.8,6c-1.3,0.8-2.7,1.2-4.4,1.2c-2.9,0-4.6-1.7-4.6-4.9c0-3.6,1.9-8,6.5-8C9,1.6,10.2,2.2,11.1,3.1z"/>
	<linearGradient id="SVGID_7_" gradientUnits="userSpaceOnUse" x1="11.9232" y1="9.3789" x2="18.7685" y2="9.3789">
		<stop  offset="0" style="stop-color:#545EA9"/>
		<stop  offset="0.7457" style="stop-color:#322D7D"/>
	</linearGradient>
	<path class="st6" d="M18.8,4.7l-0.7,2.2c-0.3-0.1-0.5-0.1-0.8-0.1c-1.2,0-1.9,1.1-2.5,2.8l-0.7,4.7h-2.2l1.3-9.4h1.9l-0.1,1.8
		c0.7-1.4,1.7-2.1,2.7-2.1C18.2,4.5,18.5,4.6,18.8,4.7z"/>
	<linearGradient id="SVGID_8_" gradientUnits="userSpaceOnUse" x1="18.2503" y1="9.5039" x2="27.092" y2="9.5039">
		<stop  offset="0" style="stop-color:#545EA9"/>
		<stop  offset="0.7457" style="stop-color:#322D7D"/>
	</linearGradient>
	<path class="st7" d="M27.1,5.4l-0.9,6.3c-0.1,0.6,0,1,0.5,1.2L26,14.5c-1-0.1-1.7-0.6-1.9-1.6c-0.7,0.9-1.6,1.6-2.8,1.6
		c-2,0-3-1.5-3-3.7c0-2.7,1.4-6.3,5.2-6.3C24.7,4.5,25.9,4.8,27.1,5.4z M20.6,10.8c0,1.4,0.5,2,1.3,2c0.9,0,1.5-0.6,2.1-1.5l0.7-4.8
		c-0.4-0.2-0.7-0.3-1.3-0.3C21.4,6.2,20.6,8.8,20.6,10.8z"/>
	<linearGradient id="SVGID_9_" gradientUnits="userSpaceOnUse" x1="28.4626" y1="9.3702" x2="37.0499" y2="9.3702">
		<stop  offset="0" style="stop-color:#545EA9"/>
		<stop  offset="0.7457" style="stop-color:#322D7D"/>
	</linearGradient>
	<path class="st8" d="M37,7.5l-0.9,6.7h-2.2l0.9-6.4c0.1-1.1-0.2-1.4-0.8-1.4c-0.9,0-1.8,1.1-2.5,2.4l-0.8,5.4h-2.2l1.3-9.4h1.9
		l-0.1,1.7c0.8-1.2,1.9-2,3.2-2C36.4,4.5,37.3,5.6,37,7.5z"/>
	<linearGradient id="SVGID_10_" gradientUnits="userSpaceOnUse" x1="38.6392" y1="7.6385" x2="48.2654" y2="7.6385">
		<stop  offset="0" style="stop-color:#545EA9"/>
		<stop  offset="0.7457" style="stop-color:#322D7D"/>
	</linearGradient>
	<path class="st9" d="M48.3,1l-1.9,13.2h-2l0-1.4c-0.6,1-1.6,1.7-2.8,1.7c-2,0-3-1.5-3-3.8c0-2.5,1.2-6.2,4.5-6.2c1,0,1.8,0.4,2.3,1
		l0.7-4.8L48.3,1z M41,10.8c0,1.4,0.5,2,1.3,2c1,0,1.7-0.8,2.4-1.9l0.5-3.7c-0.4-0.6-0.9-0.9-1.6-0.9C41.6,6.2,41,9.1,41,10.8z"/>
	<linearGradient id="SVGID_11_" gradientUnits="userSpaceOnUse" x1="53.503" y1="8.058" x2="63.2545" y2="8.058">
		<stop  offset="0" style="stop-color:#545EA9"/>
		<stop  offset="0.7457" style="stop-color:#322D7D"/>
	</linearGradient>
	<path class="st10" d="M63.3,5.2c0,2.3-1.4,4.7-5.4,4.7h-1.4l-0.6,4.3h-2.3l1.7-12.3h3.6C61.6,1.9,63.3,3,63.3,5.2z M60.8,5.3
		c0-1.2-0.8-1.7-2.2-1.7h-1.3l-0.6,4.5h1.2C60.2,8.2,60.8,6.6,60.8,5.3z"/>
	<linearGradient id="SVGID_12_" gradientUnits="userSpaceOnUse" x1="63.4668" y1="9.3789" x2="70.3121" y2="9.3789">
		<stop  offset="0" style="stop-color:#545EA9"/>
		<stop  offset="0.7457" style="stop-color:#322D7D"/>
	</linearGradient>
	<path class="st11" d="M70.3,4.7l-0.7,2.2c-0.3-0.1-0.5-0.1-0.8-0.1c-1.2,0-1.9,1.1-2.5,2.8l-0.7,4.7h-2.2l1.3-9.4h1.9l-0.1,1.8
		c0.7-1.4,1.7-2.1,2.7-2.1C69.7,4.5,70,4.6,70.3,4.7z"/>
	<linearGradient id="SVGID_13_" gradientUnits="userSpaceOnUse" x1="70.3635" y1="7.1123" x2="74.713" y2="7.1123">
		<stop  offset="0" style="stop-color:#545EA9"/>
		<stop  offset="0.7457" style="stop-color:#322D7D"/>
	</linearGradient>
	<path class="st12" d="M72.6,14.2h-2.2l1.3-9.4h2.2L72.6,14.2z M71.9,1.5c0-0.9,0.7-1.5,1.6-1.5c0.8,0,1.3,0.5,1.3,1.2
		c0,0.9-0.7,1.5-1.6,1.5C72.4,2.8,71.9,2.2,71.9,1.5z"/>
	<linearGradient id="SVGID_14_" gradientUnits="userSpaceOnUse" x1="74.2665" y1="9.5039" x2="82.6809" y2="9.5039">
		<stop  offset="0" style="stop-color:#545EA9"/>
		<stop  offset="0.7457" style="stop-color:#322D7D"/>
	</linearGradient>
	<path class="st13" d="M82.5,6.4l-5.2,6h4.4l-0.5,1.8h-7l0.2-1.6l5.2-6h-3.9L76,4.8h6.7L82.5,6.4z"/>
	<linearGradient id="SVGID_15_" gradientUnits="userSpaceOnUse" x1="83.0168" y1="9.5039" x2="91.4138" y2="9.5039">
		<stop  offset="0" style="stop-color:#545EA9"/>
		<stop  offset="0.7457" style="stop-color:#322D7D"/>
	</linearGradient>
	<path class="st14" d="M85.3,10.8c0.1,1.5,0.8,2,1.8,2c0.9,0,1.6-0.3,2.5-0.9l0.9,1.4c-1,0.7-2.2,1.2-3.6,1.2
		c-2.6,0-3.9-1.5-3.9-3.9c0-2.6,1.3-6.1,5.1-6.1c2.2,0,3.3,1.2,3.3,2.5C91.4,9.7,88.4,10.4,85.3,10.8z M89.1,7.1c0-0.4-0.2-1-1.1-1
		c-1.6,0-2.4,1.6-2.6,3.1C88,9,89.1,8.3,89.1,7.1z"/>
	<linearGradient id="SVGID_16_" gradientUnits="userSpaceOnUse" x1="95.3325" y1="8.058" x2="106.6161" y2="8.058">
		<stop  offset="0" style="stop-color:#545EA9"/>
		<stop  offset="0.7457" style="stop-color:#322D7D"/>
	</linearGradient>
	<path class="st15" d="M102.6,7.6l2.7,6.6h-2.5L101,9.1l-3.1,5.1h-2.5l4.5-6.6l-2.4-5.8h2.5l1.4,4.3l2.8-4.3h2.5L102.6,7.6z"/>
	<linearGradient id="SVGID_17_" gradientUnits="userSpaceOnUse" x1="105.5091" y1="8.2454" x2="114.3508" y2="8.2454">
		<stop  offset="0" style="stop-color:#545EA9"/>
		<stop  offset="0.7457" style="stop-color:#322D7D"/>
	</linearGradient>
	<path class="st16" d="M114.4,4.9c0,1.3-0.8,2.5-2.7,3c1.3,0.1,2.3,0.9,2.3,2.5c0,1.8-1.4,4.1-4.8,4.1c-1.6,0-2.9-0.6-3.6-1.8
		l1.4-1.2c0.6,0.8,1.4,1.1,2.3,1.1c1.4,0,2.4-1,2.4-2.5c0-1.1-0.7-1.4-1.9-1.4h-1l0.5-1.6h0.6c1.6,0,2.2-1,2.2-2.1
		c0-0.9-0.6-1.3-1.5-1.3c-0.9,0-1.7,0.4-2.5,1.1l-1-1.3c1.2-1,2.5-1.5,3.9-1.5C113.2,2,114.4,3.3,114.4,4.9z"/>
	<linearGradient id="SVGID_18_" gradientUnits="userSpaceOnUse" x1="0" y1="16.0089" x2="114.8303" y2="16.0089">
		<stop  offset="0" style="stop-color:#545EA9"/>
		<stop  offset="0.7457" style="stop-color:#322D7D"/>
	</linearGradient>
	<path class="st17" d="M114.8,15.6v0.9H0v-0.9"/>
</g>
</svg>
