<?xml version="1.0" encoding="utf-8"?>
<!-- Generator: Adobe Illustrator 23.0.2, SVG Export Plug-In . SVG Version: 6.00 Build 0)  -->
<svg version="1.1" id="Layer_1" xmlns="http://www.w3.org/2000/svg" xmlns:xlink="http://www.w3.org/1999/xlink" x="0px" y="0px"
	 viewBox="0 0 105 105" style="enable-background:new 0 0 105 105;" xml:space="preserve">
<style type="text/css">
	.st0{fill:url(#SVGID_1_);}
</style>
<linearGradient id="SVGID_1_" gradientUnits="userSpaceOnUse" x1="14.2228" y1="-36.7498" x2="179.4684" y2="352.7576">
	<stop  offset="4.625822e-03" style="stop-color:#545EA9"/>
	<stop  offset="0.4908" style="stop-color:#322D7D"/>
	<stop  offset="1" style="stop-color:#525AA5"/>
</linearGradient>
<path class="st0" d="M46.5,86.4c-0.4-0.3-0.5-0.7-0.5-1.2V21.8c0-0.5,0.2-0.9,0.6-1.3c0.4-0.3,0.8-0.5,1.2-0.5h9.5
	c0.4,0,0.8,0.2,1.2,0.5c0.3,0.4,0.5,0.8,0.5,1.3v63.4c0,0.4-0.2,0.8-0.5,1.2c-0.3,0.4-0.7,0.5-1.2,0.5h-9.5
	C47.3,86.9,46.8,86.8,46.5,86.4z"/>
</svg>
