<?xml version="1.0" encoding="utf-8"?>
<!-- Generator: Adobe Illustrator 23.0.2, SVG Export Plug-In . SVG Version: 6.00 Build 0)  -->
<svg version="1.1" id="Layer_1" xmlns="http://www.w3.org/2000/svg" xmlns:xlink="http://www.w3.org/1999/xlink" x="0px" y="0px"
	 viewBox="0 0 105 105" style="enable-background:new 0 0 105 105;" xml:space="preserve">
<style type="text/css">
	.st0{fill:url(#SVGID_1_);}
</style>
<linearGradient id="SVGID_1_" gradientUnits="userSpaceOnUse" x1="-5.8552" y1="-94.3219" x2="159.3904" y2="295.1855">
	<stop  offset="4.625822e-03" style="stop-color:#545EA9"/>
	<stop  offset="0.4908" style="stop-color:#322D7D"/>
	<stop  offset="1" style="stop-color:#525AA5"/>
</linearGradient>
<path class="st0" d="M39,84.9V33.4c0-0.6-0.2-1.2-0.7-1.6c-0.4-0.4-1-0.6-1.6-0.6h-5.4c-0.3,0-0.6-0.1-0.9-0.4
	c-0.3-0.3-0.4-0.6-0.4-1V21c0-0.4,0.1-0.7,0.4-1c0.3-0.3,0.5-0.4,0.9-0.4H73c0.3,0,0.6,0.1,0.9,0.4c0.3,0.3,0.4,0.6,0.4,1v8.9
	c0,0.4-0.1,0.7-0.4,1c-0.3,0.3-0.5,0.4-0.9,0.4H55.2c-0.6,0-1.2,0.2-1.6,0.7c-0.4,0.4-0.7,1-0.7,1.5v51.6c0,0.4-0.1,0.7-0.4,0.9
	c-0.3,0.2-0.5,0.3-0.9,0.3H40.3C39.4,86.2,39,85.8,39,84.9z"/>
</svg>
