<?xml version="1.0" encoding="utf-8"?>
<!-- Generator: Adobe Illustrator 23.0.2, SVG Export Plug-In . SVG Version: 6.00 Build 0)  -->
<svg version="1.1" id="Layer_1" xmlns="http://www.w3.org/2000/svg" xmlns:xlink="http://www.w3.org/1999/xlink" x="0px" y="0px"
	 viewBox="0 0 105 105" style="enable-background:new 0 0 105 105;" xml:space="preserve">
<style type="text/css">
	.st0{fill:url(#SVGID_1_);}
</style>
<linearGradient id="SVGID_1_" gradientUnits="userSpaceOnUse" x1="-79.5739" y1="-272.233" x2="85.6716" y2="117.2744">
	<stop  offset="4.625822e-03" style="stop-color:#545EA9"/>
	<stop  offset="0.4908" style="stop-color:#322D7D"/>
	<stop  offset="1" style="stop-color:#525AA5"/>
</linearGradient>
<path class="st0" d="M66.8,53.3c2.4,1.2,4.2,3,5.7,5.2c1.4,2.2,2.1,5.1,2.1,8.8c0,3.6-1,6.7-2.9,9.5c-1.9,2.7-4.7,4.9-8.3,6.4
	c-3.6,1.6-7.7,2.3-12.3,2.3c-1.1,0-2.4-0.1-3.9-0.4c-0.6-0.1-1.1-0.2-1.3-0.5c-0.3-0.3-0.3-0.7-0.2-1.3l0.4-2.8
	c0.1-0.5,0.1-1.1,0.2-1.8c0.1-0.7,0.2-1.3,0.3-1.9c0.1-1,0.7-1.5,1.8-1.5l4,0.1c3.2,0,5.8-0.7,7.8-2.2c2-1.5,3-3.3,3-5.4
	c0-1.6-0.5-3.2-1.6-4.7c-0.7-0.9-2-1.8-3.8-2.6c-1.8-0.8-4.4-1.8-7.5-2.8c-4.8-1.7-8.8-3.2-11.8-4.6c-3-1.4-5.3-3.2-6.7-5.3
	c-1.8-2.8-2.7-5.7-2.7-8.7c0-3.1,0.9-6.1,2.7-8.9c1.8-2.8,4.3-5.1,7.6-7c3.2-1.9,7-3,11.2-3.5c3.1-0.1,6,0.1,9,0.6
	c2.9,0.5,5.5,1.3,7.6,2.3c2,1,3.8,2.3,5.5,3.7c0.3,0.3,0.6,0.5,0.8,0.9c0.2,0.3,0.3,0.5,0.2,0.7c-0.3,0.7-1.4,2.4-3.2,5l-1.1,1.6
	c-0.2,0.2-0.5,0.3-0.9,0.3c-0.3,0-0.6-0.1-1-0.3c-2.6-1.5-4.9-2.4-6.8-3c-2.2-0.6-4.5-1-6.7-1c-2.6,0-5.1,0.4-7.4,1.3
	c-1.7,0.8-3.1,1.8-4.1,3c-1,1.2-1.5,2.4-1.5,3.6c0,1.9,1.1,3.6,3.3,5c0.9,0.6,2.7,1.5,5.3,2.7c2.6,1.2,4.9,2.1,6.7,2.8
	C61,50.6,64.5,52.1,66.8,53.3z"/>
</svg>
