<?xml version="1.0" encoding="utf-8"?>
<!-- Generator: Adobe Illustrator 23.0.2, SVG Export Plug-In . SVG Version: 6.00 Build 0)  -->
<svg version="1.1" id="Layer_1" xmlns="http://www.w3.org/2000/svg" xmlns:xlink="http://www.w3.org/1999/xlink" x="0px" y="0px"
	 viewBox="0 0 105 105" style="enable-background:new 0 0 105 105;" xml:space="preserve">
<style type="text/css">
	.st0{fill:url(#SVGID_1_);}
</style>
<linearGradient id="SVGID_1_" gradientUnits="userSpaceOnUse" x1="28.4998" y1="5.1656" x2="193.7454" y2="394.673">
	<stop  offset="4.625822e-03" style="stop-color:#545EA9"/>
	<stop  offset="0.4908" style="stop-color:#322D7D"/>
	<stop  offset="1" style="stop-color:#525AA5"/>
</linearGradient>
<path class="st0" d="M30.7,86.2c-0.4-0.3-0.5-0.7-0.5-1.2V51.7c0-0.5,0.2-0.9,0.5-1.3c0.3-0.3,0.7-0.5,1.2-0.5H53
	c2.4,0,4.5-0.9,6.3-2.6c1.7-1.7,2.6-3.8,2.6-6.2c0-2.5-0.9-4.6-2.6-6.3c-1.8-1.7-3.8-2.6-6.3-2.6H31.9c-0.4,0-0.8-0.2-1.2-0.5
	c-0.4-0.3-0.5-0.8-0.5-1.3v-8.8c0-0.5,0.2-0.9,0.5-1.3c0.3-0.3,0.7-0.5,1.2-0.5H53c3.8,0,7.4,1,10.6,2.9c3.2,1.9,5.8,4.5,7.7,7.8
	c1.9,3.3,2.9,6.8,2.9,10.6s-1,7.4-2.9,10.6c-1.9,3.2-4.5,5.8-7.7,7.7c-3.2,1.9-6.8,2.9-10.6,2.9H42.9c-0.7,0-1.2,0.1-1.4,0.3
	c-0.3,0.2-0.4,0.6-0.4,1.1V85c0,0.5-0.2,0.9-0.5,1.2c-0.4,0.3-0.8,0.5-1.3,0.5h-7.4C31.5,86.7,31.1,86.5,30.7,86.2z"/>
</svg>
