<?xml version="1.0" encoding="utf-8"?>
<!-- Generator: Adobe Illustrator 23.0.2, SVG Export Plug-In . SVG Version: 6.00 Build 0)  -->
<svg version="1.1" id="Layer_1" xmlns="http://www.w3.org/2000/svg" xmlns:xlink="http://www.w3.org/1999/xlink" x="0px" y="0px"
	 viewBox="0 0 105 105" style="enable-background:new 0 0 105 105;" xml:space="preserve">
<style type="text/css">
	.st0{fill:url(#SVGID_1_);}
</style>
<linearGradient id="SVGID_1_" gradientUnits="userSpaceOnUse" x1="-53.7932" y1="-185.736" x2="111.4524" y2="203.7714">
	<stop  offset="4.625822e-03" style="stop-color:#545EA9"/>
	<stop  offset="0.4908" style="stop-color:#322D7D"/>
	<stop  offset="1" style="stop-color:#525AA5"/>
</linearGradient>
<path class="st0" d="M29.9,86.4c-0.4-0.3-0.5-0.7-0.5-1.2V51.9c0-0.5,0.2-0.9,0.5-1.3c0.3-0.3,0.8-0.5,1.3-0.5h19.8
	c2.5,0,4.7-0.9,6.4-2.6c1.8-1.7,2.6-3.8,2.6-6.2c0-2.5-0.9-4.6-2.6-6.3c-1.8-1.7-3.9-2.6-6.4-2.6h-8c-0.7,0-1.3,0.2-1.8,0.7
	c-0.5,0.5-0.7,1-0.7,1.7v2.4c0,0.6-0.2,1.2-0.7,1.7c-0.4,0.5-1,0.7-1.7,0.7h-6.3c-0.6,0-1.2-0.2-1.7-0.7c-0.5-0.5-0.7-1-0.7-1.7
	V21.8c0-0.5,0.2-0.9,0.5-1.3c0.3-0.3,0.8-0.5,1.3-0.5h19.8c3.9,0,7.6,1,10.9,2.9c3.3,1.9,5.9,4.5,7.9,7.7c1.9,3.2,2.9,6.8,2.9,10.7
	c0,3.3-0.7,6.4-2.2,9.4c-1.5,2.9-3.6,5.4-6.2,7.4c-0.4,0.3-0.6,0.6-0.6,1s0,0.7,0.1,1l11.1,24.7c0.3,0.4,0.4,0.9,0.4,1.2
	c0,0.7-0.4,1.1-1.3,1.1H66c-0.7,0-1.2-0.1-1.6-0.2c-0.4-0.1-0.7-0.4-0.9-1l-9.9-22.3c-0.2-0.4-0.4-0.6-0.8-0.8
	c-0.3-0.1-1-0.2-1.9-0.2h-8.1c-0.8,0-1.4,0.1-1.8,0.3c-0.4,0.2-0.6,0.7-0.6,1.4v21c0,0.5-0.2,0.9-0.5,1.2c-0.4,0.3-0.8,0.5-1.3,0.5
	h-7.4C30.7,86.9,30.2,86.8,29.9,86.4z"/>
</svg>
