<?xml version="1.0" encoding="utf-8"?>
<!-- Generator: Adobe Illustrator 23.0.2, SVG Export Plug-In . SVG Version: 6.00 Build 0)  -->
<svg version="1.1" id="Layer_1" xmlns="http://www.w3.org/2000/svg" xmlns:xlink="http://www.w3.org/1999/xlink" x="0px" y="0px"
	 viewBox="0 0 105 105" style="enable-background:new 0 0 105 105;" xml:space="preserve">
<style type="text/css">
	.st0{fill:url(#SVGID_1_);}
</style>
<linearGradient id="SVGID_1_" gradientUnits="userSpaceOnUse" x1="-1.2228" y1="-79.4076" x2="164.0228" y2="310.0998">
	<stop  offset="4.625822e-03" style="stop-color:#545EA9"/>
	<stop  offset="0.4908" style="stop-color:#322D7D"/>
	<stop  offset="1" style="stop-color:#525AA5"/>
</linearGradient>
<path class="st0" d="M39.1,82.9c-5.2-3.1-9.2-7.2-12.3-12.5c-3-5.3-4.5-11-4.5-17.2c0-6.2,1.5-11.9,4.5-17.1
	c3-5.3,7.1-9.4,12.3-12.5C44.3,20.5,49.9,19,56,19c4.9,0,9.5,1,13.8,3c4.3,2,8,4.7,11.1,8.1c0.3,0.3,0.4,0.6,0.4,1
	c0,0.4-0.2,0.8-0.5,1.1L74,38c-0.3,0.3-0.7,0.5-1.1,0.5c-0.4,0-0.7-0.2-1-0.5c-2-2.2-4.4-4-7.2-5.2c-2.8-1.2-5.7-1.9-8.7-1.9
	c-3.9,0-7.6,1-10.9,3c-3.3,2-6,4.7-8,8.2c-2,3.4-3,7.2-3,11.2s1,7.7,3,11.2c2,3.4,4.6,6.2,8,8.2c3.3,2,7,3,10.9,3
	c2.9,0,5.7-0.6,8.3-1.7c2.6-1.1,4.9-2.7,7-4.7c0.6-0.5,1.2-0.8,1.8-0.8c0.6,0,1,0.2,1.3,0.5l1.8,1.5l3.8,3.4c0.6,0.4,1,1.1,1,1.8
	c0,0.4-0.2,0.8-0.5,1.1c-3.1,3.4-6.8,6-11,7.9c-4.2,1.9-8.7,2.8-13.5,2.8C49.9,87.5,44.3,86,39.1,82.9z"/>
</svg>
