<?xml version="1.0" encoding="utf-8"?>
<!-- Generator: Adobe Illustrator 23.0.2, SVG Export Plug-In . SVG Version: 6.00 Build 0)  -->
<svg version="1.1" id="Layer_1" xmlns="http://www.w3.org/2000/svg" xmlns:xlink="http://www.w3.org/1999/xlink" x="0px" y="0px"
	 viewBox="0 0 105 105" style="enable-background:new 0 0 105 105;" xml:space="preserve">
<style type="text/css">
	.st0{fill:url(#SVGID_1_);}
	.st1{fill:url(#SVGID_2_);}
	.st2{fill:url(#SVGID_3_);}
	.st3{fill:url(#SVGID_4_);}
	.st4{fill:url(#SVGID_5_);}
	.st5{fill:url(#SVGID_6_);}
	.st6{fill:url(#SVGID_7_);}
</style>
<g>
	<linearGradient id="SVGID_1_" gradientUnits="userSpaceOnUse" x1="18.715" y1="59.3559" x2="86.8941" y2="59.3559">
		<stop  offset="4.625822e-03" style="stop-color:#545EA9"/>
		<stop  offset="0.4908" style="stop-color:#322D7D"/>
		<stop  offset="1" style="stop-color:#525AA5"/>
	</linearGradient>
	<path class="st0" d="M21.9,73.7c-2.1-4.7-3.2-9.5-3.2-14.6c0-3.9,0.7-7.8,2-11.6c1.3-3.8,3.3-7.2,5.9-10.4c3.1-3.8,6.8-6.8,11-8.8
		s8.6-3.2,13.3-3.5H51c0.5,0,0.9,0.2,1.3,0.6c0.4,0.4,0.6,0.9,0.6,1.4v8.3c0,1.2-0.7,1.9-2,2c-2.9,0.3-5.6,1.1-8.2,2.4
		c-2.6,1.4-4.8,3.2-6.6,5.5c-3.4,4.2-5.2,8.9-5.2,14.2c0,3.2,0.7,6.3,2,9.2c1.3,3,3.2,5.5,5.7,7.6c4.2,3.4,8.9,5.2,14.1,5.2
		c3.2,0,6.2-0.7,9.2-2c2.9-1.3,5.4-3.3,7.4-5.8c1.7-2,3-4.3,3.9-6.7c0.9-2.4,1.3-4.9,1.3-7.5c0-3.6-0.8-7-2.4-10.1
		c-0.3-0.6-0.5-1.3-0.5-1.9c0-0.8,0.4-1.6,1.1-2.2c0.5-0.3,1.5-1,3-2c1.5-1,2.4-1.7,2.8-1.9c0.5-0.3,1-0.5,1.4-0.5
		c1,0,1.8,0.5,2.3,1.4c3.1,5.3,4.6,11.1,4.6,17.3c0,4-0.7,7.9-2,11.7c-1.3,3.8-3.3,7.2-5.9,10.4c-3.1,4-7,7.1-11.7,9.2
		c-4.7,2.1-9.6,3.2-14.7,3.2c-4,0-7.9-0.7-11.6-2.1c-3.8-1.4-7.1-3.4-10-6C27,82.4,24,78.4,21.9,73.7z"/>
	<linearGradient id="SVGID_2_" gradientUnits="userSpaceOnUse" x1="17.2352" y1="26.6981" x2="25.5816" y2="26.6981">
		<stop  offset="4.625822e-03" style="stop-color:#545EA9"/>
		<stop  offset="0.4908" style="stop-color:#322D7D"/>
		<stop  offset="1" style="stop-color:#525AA5"/>
	</linearGradient>
	<polygon class="st1" points="20,25.3 20.5,22.3 22.6,24.6 25.6,24.1 24.1,26.8 25.5,29.5 22.5,28.9 20.3,31.1 19.9,28 17.2,26.6 	
		"/>
	<g>
		<g>
			<g>
				<linearGradient id="SVGID_3_" gradientUnits="userSpaceOnUse" x1="75.2074" y1="13.2193" x2="78.7238" y2="13.2193">
					<stop  offset="4.625822e-03" style="stop-color:#545EA9"/>
					<stop  offset="0.4908" style="stop-color:#322D7D"/>
					<stop  offset="1" style="stop-color:#525AA5"/>
				</linearGradient>
				<circle class="st2" cx="77" cy="13.2" r="1.8"/>
			</g>
		</g>
		<g>
			<g>
				<linearGradient id="SVGID_4_" gradientUnits="userSpaceOnUse" x1="75.2074" y1="34.6175" x2="78.7238" y2="34.6175">
					<stop  offset="4.625822e-03" style="stop-color:#545EA9"/>
					<stop  offset="0.4908" style="stop-color:#322D7D"/>
					<stop  offset="1" style="stop-color:#525AA5"/>
				</linearGradient>
				<circle class="st3" cx="77" cy="34.6" r="1.8"/>
			</g>
		</g>
		<g>
			<g>
				<linearGradient id="SVGID_5_" gradientUnits="userSpaceOnUse" x1="56.0791" y1="25.7729" x2="59.5955" y2="25.7729">
					<stop  offset="4.625822e-03" style="stop-color:#545EA9"/>
					<stop  offset="0.4908" style="stop-color:#322D7D"/>
					<stop  offset="1" style="stop-color:#525AA5"/>
				</linearGradient>
				<circle class="st4" cx="57.8" cy="25.8" r="1.8"/>
			</g>
		</g>
		<g>
			<g>
				<linearGradient id="SVGID_6_" gradientUnits="userSpaceOnUse" x1="46.5518" y1="65.7591" x2="50.8505" y2="65.7591">
					<stop  offset="4.625822e-03" style="stop-color:#545EA9"/>
					<stop  offset="0.4908" style="stop-color:#322D7D"/>
					<stop  offset="1" style="stop-color:#525AA5"/>
				</linearGradient>
				<circle class="st5" cx="48.7" cy="65.8" r="2.1"/>
			</g>
		</g>
		<g>
			<g>
				<linearGradient id="SVGID_7_" gradientUnits="userSpaceOnUse" x1="48.5134" y1="39.5744" x2="77.2192" y2="39.5744">
					<stop  offset="4.625822e-03" style="stop-color:#545EA9"/>
					<stop  offset="0.4908" style="stop-color:#322D7D"/>
					<stop  offset="1" style="stop-color:#525AA5"/>
				</linearGradient>
				<polygon class="st6" points="48.9,65.9 48.5,65.6 76.7,34.5 76.7,13.2 77.2,13.2 77.2,34.7 				"/>
			</g>
		</g>
	</g>
</g>
</svg>
