<?xml version="1.0" encoding="utf-8"?>
<!-- Generator: Adobe Illustrator 22.0.1, SVG Export Plug-In . SVG Version: 6.00 Build 0)  -->
<svg version="1.1" id="Layer_1" xmlns="http://www.w3.org/2000/svg" xmlns:xlink="http://www.w3.org/1999/xlink" x="0px" y="0px"
	 viewBox="0 0 623.3 159.2" style="enable-background:new 0 0 623.3 159.2;" xml:space="preserve">
<style type="text/css">
	.st0{fill:none;stroke:#FFFFFF;stroke-miterlimit:10;}
	.st1{fill:#FFFFFF;}
</style>
<image style="overflow:visible;opacity:0.35;enable-background:new    ;" width="640" height="155" xlink:href="E8A6CDA1D90ADBE9.png"  transform="matrix(1 0 0 1 -5.5958 16.796)">
</image>
<g>
	<path class="st0" d="M61.8,98.1c0,0.7-0.6,1.3-1.3,1.3h-0.1c-1.5-0.1-3-0.2-4.6-0.2c-4.9,0-10.5,0.5-16.1,1.3
		c-7,1.1-14,2.7-19.8,4.6l-0.1,0.6c-0.3,5.3-0.5,10.5-0.5,15.5c0,13.6,1.3,24.7,4.2,30.3c0.1,0.2,0.2,0.2,0.2,0.4
		c0.1,0.2,0.1,0.5,0.1,0.7c0,0.5-0.2,1.1-0.4,1.5c-0.3,0.6-0.9,1.1-1.5,1.3c-0.5,0.2-0.9,0.3-1.4,0.3h-0.3c-0.9,0-1.8-0.3-2.4-0.9
		c-0.1-0.1-0.2-0.2-0.2-0.2c-3.6-5.1-5.1-18.3-5.1-34.2c0-7.2,0.3-15,0.9-22.8c1.6-24.9,5.7-50.3,10.1-60C15,39.3,8.7,41.3,7,43
		c-0.2,0.2-0.4,0.2-0.7,0.3s-0.6,0.1-0.9,0.1c-0.9,0-1.6-0.3-2.3-0.9c-0.4-0.4-0.7-0.9-0.9-1.3c-0.1-0.3-0.1-0.5-0.1-0.9
		c0-0.2,0-0.5,0.1-0.8c0.2-1,1-2,2.4-2.7c0.1,0,0.2-0.1,0.3-0.2c14.7-3.9,32.4-7.3,49.3-9.7c14.4-2,28.1-3.1,38.9-3.1
		c1.8,0,3.6,0,5.3,0.1c0.2,0,0.4,0,0.5,0.1c0.5,0.2,0.8,0.7,0.8,1.2c0,0.2-0.1,0.4-0.2,0.5l-1.6,3.5c-0.2,0.5-0.6,0.8-1.1,0.8h-0.2
		c-2.7-0.2-5.7-0.3-8.9-0.3c-12.1,0-27.1,1.4-41,3.4C41,34,35.5,35,30.4,36c0,0.1-0.1,0.3-0.1,0.5c-4.2,14.3-8.4,40-10,63.9
		c6-1.3,12.7-2.6,19.1-3.5c7.1-0.9,14-1.5,19.2-1.5h2c0.6,0.1,1.2,0.5,1.2,1.2v0.2L61.8,98.1z"/>
	<path class="st0" d="M94.9,71.8c-4.6,3.1-4.6,6.6-5.6,13.5c-0.5,3.1-2.6,16.5-2.6,27.9c0,9.3,1.4,17.2,6.1,17.2
		c1,0,2.2-0.4,3.5-1.2c8-4.8,19.1-16.9,33.6-37.7c0.2-0.4,0.6-0.5,1-0.5c0.2,0,0.5,0.1,0.7,0.2c0.3,0.2,0.5,0.6,0.5,1
		c0,0.2-0.1,0.5-0.2,0.7c-14.8,21.1-26,33.5-34.4,38.4c-3,1.8-5.6,2.7-8,2.7c-0.9,0-1.8-0.2-2.7-0.4c-2.9-0.9-5.1-3.5-6.5-7.7
		c-1.6-4.4-2.3-10.7-2.3-18.4c0-5.4,0.3-11.5,1-18.4c1.1-10.5,3.5-23.1,6.9-33.7c2.9-9,6.5-16.7,10.7-20.9c3-3,6.4-4.3,9.7-4.3
		c1.2,0,2.3,0.2,3.4,0.5c2.4,0.9,4.6,2.5,6,4.9c1,1.8,1.6,3.9,1.6,6.4c0,0.8,0,1.6-0.2,2.4C116,51.8,110,61.7,94.9,71.8z M114.2,42
		c0-4.7-2.6-7.5-5.1-8.1c-0.2-0.1-0.5-0.1-0.8-0.1c-2.7,0-4.3,3.1-5.5,5.3c-3.5,6.3-6.7,16.1-8.7,23.2c-0.9,3.2-1.5,5.3-1.5,6.4
		c0,0.5,0.2,0.8,0.5,0.8c0.5,0,1.6-0.6,3.3-2C110.1,56.8,114.2,48,114.2,42z"/>
	<path class="st0" d="M164.4,90.7c0.3,0,0.6,0.1,0.9,0.3c0.2,0.2,0.4,0.5,0.4,0.9c0,0.2-0.1,0.5-0.3,0.8c-5.2,6-22,24.2-32.2,24.2
		c-0.6,0-1.3-0.1-1.9-0.2c-2.4-0.6-4-2.5-4.8-5.8c-0.2-1.2-0.4-2.6-0.4-4.2c0-4.9,1.3-11.8,4.1-21.3c0.1,0,0.1,0,0.1-0.1
		c0.6-1.7,2.2-2.7,3.7-3c0.2,0,0.5-0.1,0.8-0.1s0.7,0.1,1,0.2c0.6,0.1,1.2,0.4,1.6,0.8c0.6,0.6,1,1.4,1,2.4c0,0.2,0,0.6-0.1,0.9v0.1
		c-0.3,1.6-0.7,3.4-1.1,5.1c-1.2,5.1-2.3,10.2-2.4,14.1v0.9c0,3.9,1.3,5.4,3.3,5.4c7.1,0,23.1-18.4,25.4-21.1
		C163.7,90.8,164.1,90.7,164.4,90.7z M140.1,70.2c0,0.5-0.1,0.9-0.2,1.3c-0.4,0.8-1,1.6-1.7,2.1s-1.6,0.8-2.4,0.8h-0.2
		c-1.4-0.2-2.5-1.2-2.5-3.6c0-0.4,0-0.8,0.1-1.2c0.2-1.5,1.3-2.5,2.5-2.8c0.3-0.1,0.6-0.2,1-0.2c0.3,0,0.7,0.1,1,0.2
		c0.4,0.2,0.8,0.5,0.9,0.9C139.6,68.4,140.1,69.3,140.1,70.2z"/>
	<path class="st0" d="M167,138.7v3.1c2.4-19.5,6.2-45.8,20.8-56.2c3.1-2.2,5.8-3.4,8-3.8h0.2c0.5-0.1,1.1-0.2,1.6-0.2
		c0.8,0,1.5,0.2,2,0.3c2.3,0.6,3.8,2.4,4.9,4.7c0.9,2.1,1.4,4.9,1.4,8v2.6c-0.1,1.8-0.2,3.1-0.2,3.9c0,0.9,0.2,1.3,0.7,1.3
		c0.4,0,1.1-0.3,2-0.7c2.7-1.1,5.3-2,7.4-3.1c5.1-2.6,8.6-5.5,10.9-8.9c0.2-0.3,0.6-0.5,1-0.5c0.2,0,0.5,0.1,0.6,0.2
		c0.4,0.2,0.5,0.6,0.5,1c0,0.3-0.1,0.5-0.2,0.8c-2.4,3.8-6.4,7-11.8,9.7c-2.4,1.2-5.1,2.4-8.1,3.5c-4.1,1.4-3.6,0.5-5.6,6
		c-3.2,8.7-10.2,19.3-18.7,19.3c-0.3,0-0.7-0.1-1.1-0.1c-2.4-0.3-3.9-1.6-4.6-3.8c-0.3-0.9-0.5-1.8-0.5-2.8c0-1.3,0.2-2.6,0.7-4
		c1.6-4.7,6-9.9,13.7-12.6c4.9-1.7,5.1-5,5.2-12.5v-0.4c0-4.3-0.9-7.8-3.8-7.8c-1.2,0-2.8,0.6-4.9,2c-14.4,10.2-17.7,37.9-20.1,57.2
		c-0.4,3.6-0.8,6.9-1.3,9.7v0.1c-0.2,1.6-0.9,2.7-1.7,3.4c-0.6,0.5-1.3,0.6-1.9,0.6H164c-0.5,0-1.1-0.2-1.6-0.5
		c-0.9-0.5-1.6-1.5-2-2.8v-0.3c-0.5-7.1-1-15.4-1-24.4c0-3.8,0.1-7.8,0.2-11.8c0.6-13.5,2.3-28,6-42c0-0.1,0-0.2,0.1-0.2
		c1.2-2.6,3.1-3.7,4.7-3.8h0.5c0.5,0,0.9,0.1,1.3,0.2c0.5,0.2,1.1,0.5,1.5,0.9c0.5,0.5,0.9,1.3,0.9,2.2c0,0.4-0.1,0.9-0.2,1.3v0.1
		C168.5,91.8,167,120.6,167,138.7z M194.2,114.2c0.9-2,1.7-3.8,1.7-4.9c0-0.5-0.2-0.9-0.9-0.9c-0.4,0-0.9,0.2-1.7,0.5
		c-6.6,2.8-10.6,7-12,11.1c-0.2,0.9-0.5,2.1-0.5,3.3c0,1.8,0.5,3.5,2,3.5c0.5,0,0.9-0.2,1.6-0.5
		C188.9,123.9,192.1,119.5,194.2,114.2z"/>
	<path class="st0" d="M269.2,79.2c1-1.5,3.4-2.3,5.4-2.3s3.8,0.8,3.8,2.5c0,0.3-0.1,0.7-0.2,1.2c-1.4,4.2-2.7,8.2-3.7,12.2v0.1
		c-0.5,1.8-1,4.6-1.3,6.4c4.9-8.8,11.6-17.7,17.3-22.1c1.3-0.9,2.4-1.7,3.5-2.3l0.2-0.1c1.3-0.7,2.5-1.2,3.7-1.4
		c0.5-0.1,0.9-0.2,1.4-0.2c1.9,0,3.5,0.8,4.6,2.5c1.2,1.7,1.9,4.5,1.9,8.5c0,1.7-0.2,3.6-0.4,5.8c-0.2,1.6-0.9,4.6-1.6,8.1
		c-0.6,2.9-1.3,6.1-2,9.5c-0.9,4.8-1.3,8.5-1.3,11.3c0,2,0.2,3.5,0.6,4.7c0.5,1.5,1.3,2,2.4,2h0.2c0.6,0,1.3-0.2,2.1-0.5l0.4-0.2
		c0.9-0.5,2-1.2,3.2-2c7.4-5.4,16.6-17.1,21.9-24.8c0.4-0.7,0.7-1.2,1.1-1.6c1.3-1.8,2-3.1,3.1-5.4c0.2-0.5,0.7-0.7,1.2-0.7
		c0.2,0,0.3,0,0.5,0.1c0.5,0.2,0.8,0.6,0.8,1.1c0,0.2-0.1,0.4-0.2,0.5c-1.1,2.6-2,3.8-3.4,5.8c-0.3,0.5-0.7,1-1.1,1.6
		c-5.3,7.9-14.8,19.8-22.4,25.5c-2.7,2-6.8,4.2-10.4,4.2c-2.5,0-4.7-1-6-3.8c-1-2.1-1.4-5-1.4-8.4c0-6.1,1.3-13.7,2.4-20.8
		c0.7-4.2,1-7.5,1-10c0-4.8-1.2-6.7-2.9-6.7c-5.4,0-16.5,16.8-20.5,25.1c0,0.1,0,0.1-0.1,0.2c-1.2,2.6-2.3,5.2-3.1,7.8
		c-0.2,0.7-0.6,1.2-1.1,1.4c-0.2,0.1-0.5,0.2-0.6,0.2c-0.9,0-1.6-0.8-2-2.2c-0.4-0.9-0.8-2.4-1-4.2c-0.4-2.5-0.7-5.6-0.7-9
		C264.4,91.9,265.6,84.2,269.2,79.2L269.2,79.2z"/>
	<path class="st0" d="M258.7,72.9c-1,0-2-0.2-2.7-0.8c-0.9-0.5-1.5-1.3-1.9-2.2c-0.4-0.8-0.6-1.7-0.6-2.6V67c0.2-1.7,1-3.5,2.8-5
		c0.2-0.2,0.5-0.3,0.9-0.3c0.3,0,0.7,0.2,0.9,0.4c0.2,0.2,0.3,0.5,0.3,0.9c0,0.3-0.2,0.6-0.3,0.9c-0.7,0.9-1,1.9-1,2.9l0.1,0.9
		c0.1,0.5,0.2,1,0.5,1.4c0.2,0.4,0.5,0.7,0.7,0.9c0.3,0.3,0.6,0.4,0.9,0.4h0.2c0.6,0,1.1,0.4,1.3,1v0.2c0,0.6-0.4,1.2-1,1.3
		L258.7,72.9z"/>
	<path class="st0" d="M405.5,144.6c-4.7-0.2-9.3-1.9-13.4-5.1c-7.1-5.6-12.8-15.8-15.3-31.5c-0.8-5.3-1.2-10.9-1.2-16.6
		c0-8.2,0.8-16.6,2-24.5c2.7-17.9,7.8-33.1,11.3-37.1h0.1c1.3-1.7,2.8-2.5,4.2-2.7h0.5c0.7,0,1.3,0.2,1.8,0.4l0.2,0.1
		c0.6,0.3,1.1,0.8,1.5,1.4s0.5,1.4,0.5,2.3c0,0.8-0.2,1.6-0.5,2.6c-4.6,12-8.4,29.7-9.5,47.2c-0.2,3.4-0.3,6.7-0.3,10
		c0,11.1,1.3,21.8,4.3,30.4c1.5,4.3,3.6,7.8,6.2,10.4c2,2.1,4.3,3.6,6.8,4.4c2.6,0.8,4.9,1.1,7.1,1.1c24.5,0,25.6-46.7,25.6-78.9
		V47.8c0-3.5,0.4-11.2,4.6-12.5c0.5-0.2,1.1-0.2,1.6-0.2c4.6,0,5.6,7.6,5.6,14.8l-0.1,3c-0.3,7.5-0.9,16.9-0.9,26.6
		c0,18.9,2.4,39,14.7,49.4c2.4,2,5,3.5,7.8,4.2c1.5,0.5,3,0.6,4.4,0.6c0.9,0,1.8-0.1,2.7-0.2c2.4-0.5,4.5-1.6,6.5-3.4
		c2-1.9,3.9-4.7,5.3-8.5c3.1-8.7,4.6-20.4,4.6-32.6c0-4.3-0.2-8.8-0.6-13.1c-1.4-17.4-5.4-34.2-11.1-43.5c0-0.1,0-0.2-0.1-0.2
		c-0.4-1.1-0.6-2.1-0.6-3c0-0.6,0.2-1.2,0.3-1.6c0.3-0.6,0.8-1.1,1.3-1.4c0.5-0.2,0.9-0.3,1.4-0.3l0.7,0.1c1.2,0.2,2.5,1.2,3.9,2.9
		c3.5,4,8.6,19.2,11.3,37.1c1.3,7.8,2,16.2,2,24.5c0,5.6-0.3,11.2-1.2,16.5c-2.5,15.7-8.2,26-15.3,31.5c-4.2,3.2-8.7,4.9-13.4,5.1
		h-1.1c-4.3,0-8.6-1.3-12.8-3.5c-8.1-4.6-15.3-13.7-19.3-26.3l-0.2-0.8l-0.5,1.5c-4,12.6-11.2,21.7-19.3,26.3
		c-4.1,2.3-8.4,3.5-12.7,3.5h-1.4V144.6z"/>
	<path class="st0" d="M552,90.7c0.3,0,0.6,0.1,0.9,0.3c0.2,0.2,0.4,0.5,0.4,0.9c0,0.2-0.1,0.5-0.3,0.8c-5.2,6-22,24.2-32.2,24.2
		c-0.6,0-1.3-0.1-1.9-0.2c-2.4-0.6-4-2.5-4.8-5.8c-0.2-1.2-0.4-2.6-0.4-4.2c0-4.9,1.3-11.8,4.1-21.3c0.1,0,0.1,0,0.1-0.1
		c0.6-1.7,2.2-2.7,3.7-3c0.2,0,0.5-0.1,0.8-0.1s0.7,0.1,1,0.2c0.6,0.1,1.2,0.4,1.6,0.8c0.6,0.6,1,1.4,1,2.4c0,0.2,0,0.6-0.1,0.9v0.1
		c-0.3,1.6-0.7,3.4-1.1,5.1c-1.2,5.1-2.3,10.2-2.4,14.1v0.9c0,3.9,1.3,5.4,3.3,5.4c7.1,0,23.1-18.4,25.4-21.1
		C551.3,90.8,551.7,90.7,552,90.7z M527.7,70.2c0,0.5-0.1,0.9-0.2,1.3c-0.4,0.8-1,1.6-1.7,2.1s-1.6,0.8-2.4,0.8h-0.2
		c-1.4-0.2-2.5-1.2-2.5-3.6c0-0.4,0-0.8,0.1-1.2c0.2-1.5,1.3-2.5,2.5-2.8c0.3-0.1,0.6-0.2,1-0.2c0.3,0,0.7,0.1,1,0.2
		c0.4,0.2,0.8,0.5,0.9,0.9C527.2,68.4,527.7,69.3,527.7,70.2z"/>
	<path class="st0" d="M554.1,79.2c1-1.5,3.4-2.3,5.4-2.3s3.8,0.8,3.8,2.5c0,0.3-0.1,0.7-0.2,1.2c-1.4,4.2-2.7,8.2-3.7,12.2v0.1
		c-0.5,1.8-1,4.6-1.3,6.4c4.9-8.8,11.6-17.7,17.3-22.1c1.3-0.9,2.4-1.7,3.5-2.3l0.2-0.1c1.3-0.7,2.5-1.2,3.7-1.4
		c0.5-0.1,0.9-0.2,1.4-0.2c1.9,0,3.5,0.8,4.6,2.5c1.2,1.7,1.9,4.5,1.9,8.5c0,1.7-0.2,3.6-0.4,5.8c-0.2,1.6-0.9,4.6-1.6,8.1
		c-0.6,2.9-1.3,6.1-2,9.5c-0.9,4.8-1.3,8.5-1.3,11.3c0,2,0.2,3.5,0.6,4.7c0.5,1.5,1.3,2,2.4,2h0.2c0.6,0,1.3-0.2,2.1-0.5l0.4-0.2
		c0.9-0.5,2-1.2,3.2-2c7.4-5.4,16.6-17.1,21.9-24.8c0.4-0.7,0.7-1.2,1.1-1.6c1.3-1.8,2-3.1,3.1-5.4c0.2-0.5,0.7-0.7,1.2-0.7
		c0.2,0,0.3,0,0.5,0.1c0.5,0.2,0.8,0.6,0.8,1.1c0,0.2-0.1,0.4-0.2,0.5c-1.1,2.6-2,3.8-3.4,5.8c-0.3,0.5-0.7,1-1.1,1.6
		c-5.3,7.9-14.8,19.8-22.4,25.5c-2.7,2-6.8,4.2-10.4,4.2c-2.5,0-4.7-1-6-3.8c-1-2.1-1.4-5-1.4-8.4c0-6.1,1.3-13.7,2.4-20.8
		c0.7-4.2,1-7.5,1-10c0-4.8-1.2-6.7-2.9-6.7c-5.4,0-16.5,16.8-20.5,25.1c0,0.1,0,0.1-0.1,0.2c-1.2,2.6-2.3,5.2-3.1,7.8
		c-0.2,0.7-0.6,1.2-1.1,1.4c-0.2,0.1-0.5,0.2-0.6,0.2c-0.9,0-1.6-0.8-2-2.2c-0.4-0.9-0.8-2.4-1-4.2c-0.4-2.5-0.7-5.6-0.7-9
		C549.3,91.9,550.5,84.2,554.1,79.2L554.1,79.2z"/>
</g>
<path class="st1" d="M59.7,96.4c0,0.7-0.6,1.3-1.3,1.3h-0.1c-1.5-0.1-3-0.2-4.6-0.2c-4.9,0-10.5,0.5-16.1,1.3
	c-7,1.1-14,2.7-19.8,4.6l-0.1,0.6c-0.3,5.3-0.5,10.5-0.5,15.5c0,13.6,1.3,24.7,4.2,30.3c0.1,0.2,0.2,0.2,0.2,0.4
	c0.1,0.2,0.1,0.5,0.1,0.7c0,0.5-0.2,1.1-0.4,1.5c-0.3,0.6-0.9,1.1-1.5,1.3c-0.5,0.2-0.9,0.3-1.4,0.3h-0.3c-0.9,0-1.8-0.3-2.4-0.9
	c-0.1-0.1-0.2-0.2-0.2-0.2c-3.6-5.1-5.1-18.3-5.1-34.2c0-7.2,0.3-15,0.9-22.8c1.6-24.9,5.7-50.3,10.1-60c-8.6,1.9-14.9,3.9-16.6,5.6
	c-0.2,0.2-0.4,0.2-0.7,0.3s-0.6,0.1-0.9,0.1c-0.9,0-1.6-0.3-2.3-0.9c-0.4-0.4-0.7-0.9-0.9-1.3c0-0.5,0-0.7,0-1c0-0.2,0-0.5,0.1-0.8
	c0.2-1,1-2,2.4-2.7c0.1,0,0.2-0.1,0.3-0.2c14.7-3.9,32.4-7.3,49.3-9.7c14.4-2,28.1-3.1,38.9-3.1c1.8,0,3.6,0,5.3,0.1
	c0.2,0,0.4,0,0.5,0.1c0.5,0.2,0.8,0.7,0.8,1.2c0,0.2-0.1,0.4-0.2,0.5l-1.6,3.5c-0.2,0.5-0.6,0.8-1.1,0.8h-0.2
	c-2.7-0.2-5.7-0.3-8.9-0.3c-12.1,0-27.1,1.4-41,3.4c-5.7,0.9-11.3,1.8-16.4,2.8c0,0.1-0.1,0.3-0.1,0.5c-4.2,14.3-8.4,40-10,63.9
	c6-1.3,12.7-2.6,19.1-3.5c7.1-0.9,14-1.5,19.2-1.5h2c0.6,0.1,1.2,0.5,1.2,1.2v0.2L59.7,96.4z"/>
<path class="st1" d="M92.7,70.2c-4.6,3.1-4.6,6.6-5.6,13.5c-0.5,3.1-2.6,16.5-2.6,27.9c0,9.3,1.4,17.2,6.1,17.2c1,0,2.2-0.4,3.5-1.2
	c8-4.8,19.1-16.9,33.6-37.7c0.2-0.4,0.6-0.5,1-0.5c0.2,0,0.5,0.1,0.7,0.2c0.3,0.2,0.5,0.6,0.5,1c0,0.2-0.1,0.5-0.2,0.7
	c-14.8,21.1-26,33.5-34.4,38.4c-3,1.8-5.6,2.7-8,2.7c-0.9,0-1.8-0.2-2.7-0.4c-2.9-0.9-5.1-3.5-6.5-7.7c-1.6-4.4-2.3-10.7-2.3-18.4
	c0-5.4,0.3-11.5,1-18.4c1.1-10.5,3.5-23.1,6.9-33.7c2.9-9,6.5-16.7,10.7-20.9c3-3,6.4-4.3,9.7-4.3c1.2,0,2.3,0.2,3.4,0.5
	c2.4,0.9,4.6,2.5,6,4.9c1,1.8,1.6,3.9,1.6,6.4c0,0.8,0,1.6-0.2,2.4C113.8,50.2,107.9,60.1,92.7,70.2z M112.1,40.4
	c0-4.7-2.6-7.5-5.1-8.1c-0.2-0.1-0.5-0.1-0.8-0.1c-2.7,0-4.3,3.1-5.5,5.3C97.2,43.8,94,53.6,92,60.7c-0.9,3.2-1.5,5.3-1.5,6.4
	c0,0.5,0.2,0.8,0.5,0.8c0.5,0,1.6-0.6,3.3-2C108,55.1,112.1,46.3,112.1,40.4z"/>
<path class="st1" d="M162.2,89c0.3,0,0.6,0.1,0.9,0.3c0.2,0.2,0.4,0.5,0.4,0.9c0,0.2-0.1,0.5-0.3,0.8c-5.2,6-22,24.2-32.2,24.2
	c-0.6,0-1.3-0.1-1.9-0.2c-2.4-0.6-4-2.5-4.8-5.8c-0.2-1.2-0.4-2.6-0.4-4.2c0-4.9,1.3-11.8,4.1-21.3c0.1,0,0.1,0,0.1-0.1
	c0.6-1.7,2.2-2.7,3.7-3c0.2,0,0.5-0.1,0.8-0.1s0.7,0.1,1,0.2c0.6,0.1,1.2,0.4,1.6,0.8c0.6,0.6,1,1.4,1,2.4c0,0.2,0,0.6-0.1,0.9V85
	c-0.3,1.6-0.7,3.4-1.1,5.1c-1.2,5.1-2.3,10.2-2.4,14.1v0.9c0,3.9,1.3,5.4,3.3,5.4c7.1,0,23.1-18.4,25.4-21.1
	C161.5,89.2,161.9,89,162.2,89z M137.9,68.6c0,0.5-0.1,0.9-0.2,1.3c-0.4,0.8-1,1.6-1.7,2.1s-1.6,0.8-2.4,0.8h-0.2
	c-1.4-0.2-2.5-1.2-2.5-3.6c0-0.4,0-0.8,0.1-1.2c0.2-1.5,1.3-2.5,2.5-2.8c0.3-0.1,0.6-0.2,1-0.2c0.3,0,0.7,0.1,1,0.2
	c0.4,0.2,0.8,0.5,0.9,0.9C137.4,66.7,137.9,67.6,137.9,68.6z"/>
<path class="st1" d="M164.9,137v3.1c2.4-19.5,6.2-45.8,20.8-56.2c3.1-2.2,5.8-3.4,8-3.8h0.2c0.5-0.1,1.1-0.2,1.6-0.2
	c0.8,0,1.5,0.2,2,0.3c2.3,0.6,3.8,2.4,4.9,4.7c0.9,2.1,1.4,4.9,1.4,8v2.6c-0.1,1.8-0.2,3.1-0.2,3.9c0,0.9,0.2,1.3,0.7,1.3
	c0.4,0,1.1-0.3,2-0.7c2.7-1.1,5.3-2,7.4-3.1c5.1-2.6,8.6-5.5,10.9-8.9c0.2-0.3,0.6-0.5,1-0.5c0.2,0,0.5,0.1,0.6,0.2
	c0.4,0.2,0.5,0.6,0.5,1c0,0.3-0.1,0.5-0.2,0.8c-2.4,3.8-6.4,7-11.8,9.7c-2.4,1.2-5.1,2.4-8.1,3.5c-4.1,1.4-3.6,0.5-5.6,6
	c-3.2,8.7-10.2,19.3-18.7,19.3c-0.3,0-0.7-0.1-1.1-0.1c-2.4-0.3-3.9-1.6-4.6-3.8c-0.3-0.9-0.5-1.8-0.5-2.8c0-1.3,0.2-2.6,0.7-4
	c1.6-4.7,6-9.9,13.7-12.6c4.9-1.7,5.1-5,5.2-12.5v-0.4c0-4.3-0.9-7.8-3.8-7.8c-1.2,0-2.8,0.6-4.9,2c-14.4,10.2-17.7,37.9-20.1,57.2
	c-0.4,3.6-0.8,6.9-1.3,9.7v0.1c-0.2,1.6-0.9,2.7-1.7,3.4c-0.6,0.5-1.3,0.6-1.9,0.6h-0.2c-0.5,0-1.1-0.2-1.6-0.5
	c-0.9-0.5-1.6-1.5-2-2.8v-0.3c-0.5-7.1-1-15.4-1-24.4c0-3.8,0.1-7.8,0.2-11.8c0.6-13.5,2.3-28,6-42c0-0.1,0-0.2,0.1-0.2
	c1.2-2.6,3.1-3.7,4.7-3.8h0.5c0.5,0,0.9,0.1,1.3,0.2c0.5,0.2,1.1,0.5,1.5,0.9c0.5,0.5,0.9,1.3,0.9,2.2c0,0.4-0.1,0.9-0.2,1.3v0.1
	C166.3,90.1,164.9,118.9,164.9,137z M192.1,112.6c0.9-2,1.7-3.8,1.7-4.9c0-0.5-0.2-0.9-0.9-0.9c-0.4,0-0.9,0.2-1.7,0.5
	c-6.6,2.8-10.6,7-12,11.1c-0.2,0.9-0.5,2.1-0.5,3.3c0,1.8,0.5,3.5,2,3.5c0.5,0,0.9-0.2,1.6-0.5C186.8,122.3,189.9,117.8,192.1,112.6
	z"/>
<path class="st1" d="M267,77.6c1-1.5,3.4-2.3,5.4-2.3s3.8,0.8,3.8,2.5c0,0.3-0.1,0.7-0.2,1.2c-1.4,4.2-2.7,8.2-3.7,12.2v0.1
	c-0.5,1.8-1,4.6-1.3,6.4c4.9-8.8,11.6-17.7,17.3-22.1c1.3-0.9,2.4-1.7,3.5-2.3l0.2-0.1c1.3-0.7,2.5-1.2,3.7-1.4
	c0.5-0.1,0.9-0.2,1.4-0.2c1.9,0,3.5,0.8,4.6,2.5c1.2,1.7,1.9,4.5,1.9,8.5c0,1.7-0.2,3.6-0.4,5.8c-0.2,1.6-0.9,4.6-1.6,8.1
	c-0.6,2.9-1.3,6.1-2,9.5c-0.9,4.8-1.3,8.5-1.3,11.3c0,2,0.2,3.5,0.6,4.7c0.5,1.5,1.3,2,2.4,2h0.2c0.6,0,1.3-0.2,2.1-0.5l0.4-0.2
	c0.9-0.5,2-1.2,3.2-2c7.4-5.4,16.6-17.1,21.9-24.8c0.4-0.7,0.7-1.2,1.1-1.6c1.3-1.8,2-3.1,3.1-5.4c0.2-0.5,0.7-0.7,1.2-0.7
	c0.2,0,0.3,0,0.5,0.1c0.5,0.2,0.8,0.6,0.8,1.1c0,0.2-0.1,0.4-0.2,0.5c-1.1,2.6-2,3.8-3.4,5.8c-0.3,0.5-0.7,1-1.1,1.6
	c-5.3,7.9-14.8,19.8-22.4,25.5c-2.7,2-6.8,4.2-10.4,4.2c-2.5,0-4.7-1-6-3.8c-1-2.1-1.4-5-1.4-8.4c0-6.1,1.3-13.7,2.4-20.8
	c0.7-4.2,1-7.5,1-10c0-4.8-1.2-6.7-2.9-6.7c-5.4,0-16.5,16.8-20.5,25.1c0,0.1,0,0.1-0.1,0.2c-1.2,2.6-2.3,5.2-3.1,7.8
	c-0.2,0.7-0.6,1.2-1.1,1.4c-0.2,0.1-0.5,0.2-0.6,0.2c-0.9,0-1.6-0.8-2-2.2c-0.4-0.9-0.8-2.4-1-4.2c-0.4-2.5-0.7-5.6-0.7-9
	C262.3,90.2,263.4,82.6,267,77.6L267,77.6z"/>
<path class="st1" d="M260.9,71.3c-1,0-2-0.2-2.7-0.8c-0.9-0.5-1.5-1.3-1.9-2.2c-0.4-0.8-0.6-1.7-0.6-2.6v-0.4c0.2-1.7,1-3.5,2.8-5
	c0.2-0.2,0.5-0.3,0.9-0.3c0.3,0,0.7,0.2,0.9,0.4c0.2,0.2,0.3,0.5,0.3,0.9c0,0.3-0.2,0.6-0.3,0.9c-0.7,0.9-1,1.9-1,2.9l0.1,0.9
	c0.1,0.5,0.2,1,0.5,1.4c0.2,0.4,0.5,0.7,0.7,0.9c0.3,0.3,0.6,0.4,0.9,0.4h0.2c0.6,0,1.1,0.4,1.3,1v0.2c0,0.6-0.4,1.2-1,1.3
	L260.9,71.3z"/>
<path class="st1" d="M403.4,142.9c-4.7-0.2-9.3-1.9-13.4-5.1c-7.1-5.6-12.8-15.8-15.3-31.5c-0.8-5.3-1.2-10.9-1.2-16.6
	c0-8.2,0.8-16.6,2-24.5c2.7-17.9,7.8-33.1,11.3-37.1h0.1c1.3-1.7,2.8-2.5,4.2-2.7h0.5c0.7,0,1.3,0.2,1.8,0.4l0.2,0.1
	c0.6,0.3,1.1,0.8,1.5,1.4s0.5,1.4,0.5,2.3c0,0.8-0.2,1.6-0.5,2.6c-4.6,12-8.4,29.7-9.5,47.2c-0.2,3.4-0.3,6.7-0.3,10
	c0,11.1,1.3,21.8,4.3,30.4c1.5,4.3,3.6,7.8,6.2,10.4c2,2.1,4.3,3.6,6.8,4.4c2.6,0.8,4.9,1.1,7.1,1.1c24.5,0,25.6-46.7,25.6-78.9
	V46.2c0-3.5,0.4-11.2,4.6-12.5c0.5-0.2,1.1-0.2,1.6-0.2c4.6,0,5.6,7.6,5.6,14.8l-0.1,3c-0.3,7.5-0.9,16.9-0.9,26.6
	c0,18.9,2.4,39,14.7,49.4c2.4,2,5,3.5,7.8,4.2c1.5,0.5,3,0.6,4.4,0.6c0.9,0,1.8-0.1,2.7-0.2c2.4-0.5,4.5-1.6,6.5-3.4
	c2-1.9,3.9-4.7,5.3-8.5c3.1-8.7,4.6-20.4,4.6-32.6c0-4.3-0.2-8.8-0.6-13.1c-1.4-17.4-5.4-34.2-11.1-43.5c0-0.1,0-0.2-0.1-0.2
	c-0.4-1.1-0.6-2.1-0.6-3c0-0.6,0.2-1.2,0.3-1.6c0.3-0.6,0.8-1.1,1.3-1.4c0.5-0.2,0.9-0.3,1.4-0.3l0.7,0.1c1.2,0.2,2.5,1.2,3.9,2.9
	c3.5,4,8.6,19.2,11.3,37.1c1.3,7.8,2,16.2,2,24.5c0,5.6-0.3,11.2-1.2,16.5c-2.5,15.7-8.2,26-15.3,31.5c-4.2,3.2-8.7,4.9-13.4,5.1
	h-1.1c-4.3,0-8.6-1.3-12.8-3.5c-8.1-4.6-15.3-13.7-19.3-26.3l-0.2-0.8l-0.5,1.5c-4,12.6-11.2,21.7-19.3,26.3
	c-4.1,2.3-8.4,3.5-12.7,3.5h-1.4V142.9z"/>
<path class="st1" d="M549.9,89c0.3,0,0.6,0.1,0.9,0.3c0.2,0.2,0.4,0.5,0.4,0.9c0,0.2-0.1,0.5-0.3,0.8c-5.2,6-22,24.2-32.2,24.2
	c-0.6,0-1.3-0.1-1.9-0.2c-2.4-0.6-4-2.5-4.8-5.8c-0.2-1.2-0.4-2.6-0.4-4.2c0-4.9,1.3-11.8,4.1-21.3c0.1,0,0.1,0,0.1-0.1
	c0.6-1.7,2.2-2.7,3.7-3c0.2,0,0.5-0.1,0.8-0.1s0.7,0.1,1,0.2c0.6,0.1,1.2,0.4,1.6,0.8c0.6,0.6,1,1.4,1,2.4c0,0.2,0,0.6-0.1,0.9V85
	c-0.3,1.6-0.7,3.4-1.1,5.1c-1.2,5.1-2.3,10.2-2.4,14.1v0.9c0,3.9,1.3,5.4,3.3,5.4c7.1,0,23.1-18.4,25.4-21.1
	C549.2,89.2,549.6,89,549.9,89z M525.6,68.6c0,0.5-0.1,0.9-0.2,1.3c-0.4,0.8-1,1.6-1.7,2.1s-1.6,0.8-2.4,0.8H521
	c-1.4-0.2-2.5-1.2-2.5-3.6c0-0.4,0-0.8,0.1-1.2c0.2-1.5,1.3-2.5,2.5-2.8c0.3-0.1,0.6-0.2,1-0.2c0.3,0,0.7,0.1,1,0.2
	c0.4,0.2,0.8,0.5,0.9,0.9C525.1,66.7,525.6,67.6,525.6,68.6z"/>
<path class="st1" d="M551.9,77.6c1-1.5,3.4-2.3,5.4-2.3s3.8,0.8,3.8,2.5c0,0.3-0.1,0.7-0.2,1.2c-1.4,4.2-2.7,8.2-3.7,12.2v0.1
	c-0.5,1.8-1,4.6-1.3,6.4c4.9-8.8,11.6-17.7,17.3-22.1c1.3-0.9,2.4-1.7,3.5-2.3l0.2-0.1c1.3-0.7,2.5-1.2,3.7-1.4
	c0.5-0.1,0.9-0.2,1.4-0.2c1.9,0,3.5,0.8,4.6,2.5c1.2,1.7,1.9,4.5,1.9,8.5c0,1.7-0.2,3.6-0.4,5.8c-0.2,1.6-0.9,4.6-1.6,8.1
	c-0.6,2.9-1.3,6.1-2,9.5c-0.9,4.8-1.3,8.5-1.3,11.3c0,2,0.2,3.5,0.6,4.7c0.5,1.5,1.3,2,2.4,2h0.2c0.6,0,1.3-0.2,2.1-0.5l0.4-0.2
	c0.9-0.5,2-1.2,3.2-2c7.4-5.4,16.6-17.1,21.9-24.8c0.4-0.7,0.7-1.2,1.1-1.6c1.3-1.8,2-3.1,3.1-5.4c0.2-0.5,0.7-0.7,1.2-0.7
	c0.2,0,0.3,0,0.5,0.1c0.5,0.2,0.8,0.6,0.8,1.1c0,0.2-0.1,0.4-0.2,0.5c-1.1,2.6-2,3.8-3.4,5.8c-0.3,0.5-0.7,1-1.1,1.6
	c-5.3,7.9-14.8,19.8-22.4,25.5c-2.7,2-6.8,4.2-10.4,4.2c-2.5,0-4.7-1-6-3.8c-1-2.1-1.4-5-1.4-8.4c0-6.1,1.3-13.7,2.4-20.8
	c0.7-4.2,1-7.5,1-10c0-4.8-1.2-6.7-2.9-6.7c-5.4,0-16.5,16.8-20.5,25.1c0,0.1,0,0.1-0.1,0.2c-1.2,2.6-2.3,5.2-3.1,7.8
	c-0.2,0.7-0.6,1.2-1.1,1.4c-0.2,0.1-0.5,0.2-0.6,0.2c-0.9,0-1.6-0.8-2-2.2c-0.4-0.9-0.8-2.4-1-4.2c-0.4-2.5-0.7-5.6-0.7-9
	C547.2,90.2,548.3,82.6,551.9,77.6L551.9,77.6z"/>
</svg>
