<?xml version="1.0" encoding="utf-8"?>
<!-- Generator: Adobe Illustrator 23.0.4, SVG Export Plug-In . SVG Version: 6.00 Build 0)  -->
<svg version="1.1" id="Layer_1" xmlns="http://www.w3.org/2000/svg" xmlns:xlink="http://www.w3.org/1999/xlink" x="0px" y="0px"
	 viewBox="0 0 815.5 325.8" style="enable-background:new 0 0 815.5 325.8;" xml:space="preserve">
<style type="text/css">
	.st0{opacity:0.4;clip-path:url(#SVGID_2_);}
	.st1{clip-path:url(#SVGID_4_);fill:url(#SVGID_5_);stroke:#FFFFFF;stroke-width:1.5;stroke-miterlimit:10;}
	.st2{clip-path:url(#SVGID_7_);fill:url(#SVGID_8_);}
	.st3{clip-path:url(#SVGID_10_);fill:#FFFFFF;}
	.st4{clip-path:url(#SVGID_12_);fill:#FFFFFF;}
	.st5{clip-path:url(#SVGID_14_);fill:#FFFFFF;}
	.st6{clip-path:url(#SVGID_16_);fill:#FFFFFF;}
	.st7{clip-path:url(#SVGID_18_);fill:#FFFFFF;}
	.st8{clip-path:url(#SVGID_20_);fill:#FBE4EE;}
	.st9{clip-path:url(#SVGID_22_);fill:#FBE4EE;}
	.st10{clip-path:url(#SVGID_24_);fill:#FBE4EE;}
	.st11{clip-path:url(#SVGID_26_);fill:#FBE4EE;}
	.st12{clip-path:url(#SVGID_28_);fill:#FBE4EE;}
	.st13{clip-path:url(#SVGID_30_);fill:#FBE4EE;}
	.st14{clip-path:url(#SVGID_32_);fill:#FBE4EE;}
	.st15{clip-path:url(#SVGID_34_);fill:#FBE4EE;}
	.st16{clip-path:url(#SVGID_36_);fill:#FFFFFF;}
	.st17{clip-path:url(#SVGID_38_);fill:#FFFFFF;}
	.st18{clip-path:url(#SVGID_40_);fill:#FFFFFF;}
	.st19{clip-path:url(#SVGID_42_);fill:#FBE4EE;}
	.st20{clip-path:url(#SVGID_47_);}
	.st21{clip-path:url(#SVGID_48_);fill:url(#SVGID_49_);}
	.st22{fill:url(#SVGID_50_);}
	.st23{opacity:0.8;}
	.st24{fill:url(#SVGID_51_);}
	.st25{fill:url(#SVGID_52_);}
	.st26{fill:url(#SVGID_53_);}
	.st27{fill:url(#SVGID_54_);}
	.st28{fill:url(#SVGID_55_);}
	.st29{fill:url(#SVGID_56_);}
	.st30{fill:url(#SVGID_57_);}
	.st31{fill:url(#SVGID_58_);}
	.st32{fill:url(#SVGID_59_);}
	.st33{fill:url(#SVGID_60_);}
	.st34{fill:url(#SVGID_61_);}
	.st35{fill:url(#SVGID_62_);}
	.st36{fill:url(#SVGID_63_);}
	.st37{fill:url(#SVGID_64_);}
	.st38{fill:url(#SVGID_65_);}
	.st39{opacity:0.22;fill:url(#SVGID_66_);enable-background:new    ;}
	.st40{opacity:0.54;fill:url(#SVGID_67_);enable-background:new    ;}
	.st41{fill:url(#SVGID_68_);}
	.st42{opacity:0.22;fill:url(#SVGID_69_);enable-background:new    ;}
	.st43{opacity:0.54;fill:url(#SVGID_70_);enable-background:new    ;}
	.st44{fill:url(#SVGID_71_);}
	.st45{fill:url(#SVGID_72_);}
	.st46{opacity:0.32;fill:#BA3735;enable-background:new    ;}
	.st47{fill:#FBE4EE;}
	.st48{fill:url(#SVGID_73_);}
	.st49{fill:url(#SVGID_74_);}
	.st50{fill:url(#SVGID_75_);}
	.st51{opacity:0.44;fill:#F9F188;enable-background:new    ;}
	.st52{opacity:0.3;}
	.st53{fill:url(#SVGID_76_);}
	.st54{fill:#FFFFFF;}
	.st55{fill:url(#SVGID_77_);}
	.st56{fill:url(#SVGID_78_);}
	.st57{fill:url(#SVGID_79_);}
	.st58{fill:url(#SVGID_80_);}
	.st59{opacity:0.28;fill:#FFFFFF;enable-background:new    ;}
	.st60{fill:url(#SVGID_81_);}
	.st61{fill:url(#SVGID_82_);}
	.st62{fill:url(#SVGID_83_);}
	.st63{fill:url(#SVGID_84_);}
	.st64{fill:url(#SVGID_85_);}
	.st65{fill:url(#SVGID_86_);}
	.st66{fill:url(#SVGID_87_);}
	.st67{fill:url(#SVGID_88_);}
	.st68{opacity:0.37;fill:url(#SVGID_89_);enable-background:new    ;}
	.st69{opacity:0.67;fill:#FFFFFF;enable-background:new    ;}
	.st70{fill:url(#SVGID_90_);}
	.st71{fill:url(#SVGID_91_);}
	.st72{fill:url(#SVGID_92_);}
	.st73{fill:url(#SVGID_93_);}
	.st74{fill:url(#SVGID_94_);}
	.st75{fill:url(#SVGID_95_);}
	.st76{fill:url(#SVGID_96_);}
	.st77{fill:url(#SVGID_97_);}
	.st78{fill:url(#SVGID_98_);}
	.st79{fill:url(#SVGID_99_);}
	.st80{fill:url(#SVGID_100_);}
	.st81{fill:url(#SVGID_101_);}
	.st82{fill:url(#SVGID_102_);}
	.st83{fill:url(#SVGID_103_);}
	.st84{fill:url(#SVGID_104_);}
	.st85{fill:url(#SVGID_105_);}
	.st86{fill:url(#SVGID_106_);}
	.st87{fill:url(#SVGID_107_);}
	.st88{fill:url(#SVGID_108_);}
	.st89{opacity:0.68;fill:url(#SVGID_109_);enable-background:new    ;}
	.st90{opacity:0.68;fill:url(#SVGID_110_);enable-background:new    ;}
	.st91{opacity:0.68;fill:url(#SVGID_111_);enable-background:new    ;}
	.st92{opacity:0.15;fill:#FFFFFF;enable-background:new    ;}
	.st93{opacity:0.18;fill:#FFFFFF;enable-background:new    ;}
	.st94{opacity:0.37;fill:#7F194E;enable-background:new    ;}
</style>
<title>Asset 1</title>
<g>
	<g>
		<g>
			<g>
				<defs>
					<path id="SVGID_1_" d="M753.1,714.2H95.3c-2.8,0-5-2.2-5-5V44.4c0-2.8,2.2-5,5-5h657.8c2.8,0,5,2.2,5,5v664.8
						C758.1,711.9,755.8,714.2,753.1,714.2z"/>
				</defs>
				<clipPath id="SVGID_2_">
					<use xlink:href="#SVGID_1_"  style="overflow:visible;"/>
				</clipPath>
				<g class="st0">
					
						<image style="overflow:visible;enable-background:new    ;" width="853" height="429" xlink:href="9E9EFC4109B4F5E8.png"  transform="matrix(1 0 0 1 -7 -103.2)">
					</image>
				</g>
			</g>
		</g>
		<g>
			<g>
				<defs>
					<path id="SVGID_3_" d="M753.1,714.2H95.3c-2.8,0-5-2.2-5-5V44.4c0-2.8,2.2-5,5-5h657.8c2.8,0,5,2.2,5,5v664.8
						C758.1,711.9,755.8,714.2,753.1,714.2z"/>
				</defs>
				<clipPath id="SVGID_4_">
					<use xlink:href="#SVGID_3_"  style="overflow:visible;"/>
				</clipPath>
				
					<linearGradient id="SVGID_5_" gradientUnits="userSpaceOnUse" x1="411.0643" y1="270.5481" x2="319.3144" y2="523.3284" gradientTransform="matrix(0.9798 0.1999 -0.1999 0.9798 170.7909 -387.0197)">
					<stop  offset="0" style="stop-color:#545EA9"/>
					<stop  offset="0.7457" style="stop-color:#322D7D"/>
				</linearGradient>
				<path class="st1" d="M689.7,21.5c9,1.8,108.2,20.5,116.4,30.6c5.8,7.2,0.5,44.2-29.3,41.4c-57.2-5.4-137.5-18.1-176.7,40.9
					c-29.4,44.2-20.9,59.4-158.9,42.4C224,150,185.5,292.5,56.2,284.5c0,0-38,0.6-5.7-28.2s-24.9-48.1-21.9-71.5s53.5,3.3,40.9-35.4
					s62.3-21.3,58.9-41.8c-3.5-20.5-51.8,12.3-56.4,2.7s51-12.8,82-52.7S121-58.1,215.4-71.5L689.7,21.5z"/>
			</g>
		</g>
		<g>
			<g>
				<defs>
					<path id="SVGID_6_" d="M753.1,714.2H95.3c-2.8,0-5-2.2-5-5V44.4c0-2.8,2.2-5,5-5h657.8c2.8,0,5,2.2,5,5v664.8
						C758.1,711.9,755.8,714.2,753.1,714.2z"/>
				</defs>
				<clipPath id="SVGID_7_">
					<use xlink:href="#SVGID_6_"  style="overflow:visible;"/>
				</clipPath>
				
					<linearGradient id="SVGID_8_" gradientUnits="userSpaceOnUse" x1="293.0074" y1="242.5172" x2="249.4311" y2="554.5239" gradientTransform="matrix(0.9798 0.1999 -0.1999 0.9798 170.7909 -387.0197)">
					<stop  offset="0" style="stop-color:#545EA9"/>
					<stop  offset="0.7457" style="stop-color:#322D7D"/>
				</linearGradient>
				<path class="st2" d="M649.7,16c0,0-53.8,64.1-189.7,24.7s-74.3,93.5-159.4,76.1s-124,46.2-176.5,35.5
					c-4.3-0.9,0.3,11.8-27.4-16.5S90.3-23.9,141.2-77.8s222.7,35.5,222.7,35.5L596.4,5.1L649.7,16z"/>
			</g>
		</g>
		<g>
			<g>
				<defs>
					<path id="SVGID_9_" d="M753.1,714.2H95.3c-2.8,0-5-2.2-5-5V44.4c0-2.8,2.2-5,5-5h657.8c2.8,0,5,2.2,5,5v664.8
						C758.1,711.9,755.8,714.2,753.1,714.2z"/>
				</defs>
				<clipPath id="SVGID_10_">
					<use xlink:href="#SVGID_9_"  style="overflow:visible;"/>
				</clipPath>
				<path class="st3" d="M275.1,101.4c-0.4,0.3-0.9,0.2-1.1-0.2c-0.3-0.4-0.2-0.9,0.2-1.1c0.4-0.3,0.9-0.2,1.1,0.2
					C275.5,100.6,275.4,101.1,275.1,101.4z"/>
			</g>
		</g>
		<g>
			<g>
				<defs>
					<path id="SVGID_11_" d="M753.1,714.2H95.3c-2.8,0-5-2.2-5-5V44.4c0-2.8,2.2-5,5-5h657.8c2.8,0,5,2.2,5,5v664.8
						C758.1,711.9,755.8,714.2,753.1,714.2z"/>
				</defs>
				<clipPath id="SVGID_12_">
					<use xlink:href="#SVGID_11_"  style="overflow:visible;"/>
				</clipPath>
				<path class="st4" d="M298.8,104.5c-0.4,0.3-0.9,0.2-1.1-0.2c-0.3-0.4-0.2-0.9,0.2-1.1c0.4-0.3,0.9-0.2,1.1,0.2
					C299.2,103.8,299.1,104.3,298.8,104.5z"/>
			</g>
		</g>
		<g>
			<g>
				<defs>
					<path id="SVGID_13_" d="M753.1,714.2H95.3c-2.8,0-5-2.2-5-5V44.4c0-2.8,2.2-5,5-5h657.8c2.8,0,5,2.2,5,5v664.8
						C758.1,711.9,755.8,714.2,753.1,714.2z"/>
				</defs>
				<clipPath id="SVGID_14_">
					<use xlink:href="#SVGID_13_"  style="overflow:visible;"/>
				</clipPath>
				<path class="st5" d="M156.9,335.1c-0.4,0.3-0.9,0.2-1.1-0.2c-0.3-0.4-0.2-0.9,0.2-1.1c0.4-0.3,0.9-0.2,1.1,0.2
					C157.3,334.3,157.2,334.8,156.9,335.1z"/>
			</g>
		</g>
		<g>
			<g>
				<defs>
					<path id="SVGID_15_" d="M753.1,714.2H95.3c-2.8,0-5-2.2-5-5V44.4c0-2.8,2.2-5,5-5h657.8c2.8,0,5,2.2,5,5v664.8
						C758.1,711.9,755.8,714.2,753.1,714.2z"/>
				</defs>
				<clipPath id="SVGID_16_">
					<use xlink:href="#SVGID_15_"  style="overflow:visible;"/>
				</clipPath>
				<path class="st6" d="M285.4,65.5c-0.4,0.3-0.9,0.2-1.1-0.2c-0.3-0.4-0.2-0.9,0.2-1.1c0.4-0.3,0.9-0.2,1.1,0.2
					C285.8,64.8,285.7,65.3,285.4,65.5z"/>
			</g>
		</g>
		<g>
			<g>
				<defs>
					<path id="SVGID_17_" d="M753.1,714.2H95.3c-2.8,0-5-2.2-5-5V44.4c0-2.8,2.2-5,5-5h657.8c2.8,0,5,2.2,5,5v664.8
						C758.1,711.9,755.8,714.2,753.1,714.2z"/>
				</defs>
				<clipPath id="SVGID_18_">
					<use xlink:href="#SVGID_17_"  style="overflow:visible;"/>
				</clipPath>
				<path class="st7" d="M295.2,41.4c-0.4,0.3-0.9,0.2-1.1-0.2c-0.3-0.4-0.2-0.9,0.2-1.1c0.4-0.3,0.9-0.2,1.1,0.2
					C295.7,40.7,295.6,41.2,295.2,41.4z"/>
			</g>
		</g>
		<g>
			<g>
				<defs>
					<path id="SVGID_19_" d="M753.1,714.2H95.3c-2.8,0-5-2.2-5-5V44.4c0-2.8,2.2-5,5-5h657.8c2.8,0,5,2.2,5,5v664.8
						C758.1,711.9,755.8,714.2,753.1,714.2z"/>
				</defs>
				<clipPath id="SVGID_20_">
					<use xlink:href="#SVGID_19_"  style="overflow:visible;"/>
				</clipPath>
				<path class="st8" d="M169.4,80.8c0,0-0.3,1.6,0.1,2.4c0.4,0.7,1.8,1.2,1.8,1.2s-1.3-0.3-2.2,0c-0.8,0.3-1.5,1.9-1.5,1.9
					s0.4-1.5,0-2.4c-0.3-0.6-1.9-1.3-1.9-1.3s1.6,0.4,2.3,0C168.8,82.3,169.4,80.8,169.4,80.8z"/>
			</g>
		</g>
		<g>
			<g>
				<defs>
					<path id="SVGID_21_" d="M753.1,714.2H95.3c-2.8,0-5-2.2-5-5V44.4c0-2.8,2.2-5,5-5h657.8c2.8,0,5,2.2,5,5v664.8
						C758.1,711.9,755.8,714.2,753.1,714.2z"/>
				</defs>
				<clipPath id="SVGID_22_">
					<use xlink:href="#SVGID_21_"  style="overflow:visible;"/>
				</clipPath>
				<path class="st9" d="M180.8,288.4c0,0-0.3,1.6,0.1,2.4c0.4,0.7,1.8,1.2,1.8,1.2s-1.3-0.3-2.2,0c-0.8,0.3-1.5,1.9-1.5,1.9
					s0.4-1.5,0-2.4c-0.3-0.6-1.9-1.3-1.9-1.3s1.6,0.4,2.3,0C180.2,289.9,180.8,288.4,180.8,288.4z"/>
			</g>
		</g>
		<g>
			<g>
				<defs>
					<path id="SVGID_23_" d="M753.1,714.2H95.3c-2.8,0-5-2.2-5-5V44.4c0-2.8,2.2-5,5-5h657.8c2.8,0,5,2.2,5,5v664.8
						C758.1,711.9,755.8,714.2,753.1,714.2z"/>
				</defs>
				<clipPath id="SVGID_24_">
					<use xlink:href="#SVGID_23_"  style="overflow:visible;"/>
				</clipPath>
				<path class="st10" d="M106.4,343.5c0,0-0.3,1.6,0.1,2.4c0.4,0.7,1.8,1.2,1.8,1.2s-1.3-0.3-2.2,0c-0.8,0.3-1.5,1.9-1.5,1.9
					s0.4-1.5,0-2.4c-0.3-0.6-1.9-1.3-1.9-1.3s1.6,0.4,2.3,0C105.9,345,106.4,343.5,106.4,343.5z"/>
			</g>
		</g>
		<g>
			<g>
				<defs>
					<path id="SVGID_25_" d="M753.1,714.2H95.3c-2.8,0-5-2.2-5-5V44.4c0-2.8,2.2-5,5-5h657.8c2.8,0,5,2.2,5,5v664.8
						C758.1,711.9,755.8,714.2,753.1,714.2z"/>
				</defs>
				<clipPath id="SVGID_26_">
					<use xlink:href="#SVGID_25_"  style="overflow:visible;"/>
				</clipPath>
				<path class="st11" d="M125.3,153.6c0,0-0.3,1.6,0.1,2.4c0.4,0.7,1.8,1.2,1.8,1.2s-1.3-0.3-2.2,0c-0.8,0.3-1.5,1.9-1.5,1.9
					s0.4-1.5,0-2.4c-0.3-0.6-1.9-1.3-1.9-1.3s1.6,0.4,2.3,0C124.8,155,125.3,153.6,125.3,153.6z"/>
			</g>
		</g>
		<g>
			<g>
				<defs>
					<path id="SVGID_27_" d="M753.1,714.2H95.3c-2.8,0-5-2.2-5-5V44.4c0-2.8,2.2-5,5-5h657.8c2.8,0,5,2.2,5,5v664.8
						C758.1,711.9,755.8,714.2,753.1,714.2z"/>
				</defs>
				<clipPath id="SVGID_28_">
					<use xlink:href="#SVGID_27_"  style="overflow:visible;"/>
				</clipPath>
				<path class="st12" d="M210.9,215.8c0,0-0.3,1.6,0.1,2.4c0.4,0.7,1.8,1.2,1.8,1.2s-1.3-0.3-2.2,0c-0.8,0.3-1.5,1.9-1.5,1.9
					s0.4-1.5,0-2.4c-0.3-0.6-1.9-1.3-1.9-1.3s1.6,0.4,2.3,0C210.3,217.3,210.9,215.8,210.9,215.8z"/>
			</g>
		</g>
		<g>
			<g>
				<defs>
					<path id="SVGID_29_" d="M753.1,714.2H95.3c-2.8,0-5-2.2-5-5V44.4c0-2.8,2.2-5,5-5h657.8c2.8,0,5,2.2,5,5v664.8
						C758.1,711.9,755.8,714.2,753.1,714.2z"/>
				</defs>
				<clipPath id="SVGID_30_">
					<use xlink:href="#SVGID_29_"  style="overflow:visible;"/>
				</clipPath>
				<path class="st13" d="M444.6,65.3c0,0-0.3,1.6,0.1,2.4c0.4,0.7,1.8,1.2,1.8,1.2s-1.3-0.3-2.2,0c-0.8,0.3-1.5,1.9-1.5,1.9
					s0.4-1.5,0-2.4c-0.3-0.6-1.9-1.3-1.9-1.3s1.6,0.4,2.3,0C444,66.7,444.6,65.3,444.6,65.3z"/>
			</g>
		</g>
		<g>
			<g>
				<defs>
					<path id="SVGID_31_" d="M753.1,714.2H95.3c-2.8,0-5-2.2-5-5V44.4c0-2.8,2.2-5,5-5h657.8c2.8,0,5,2.2,5,5v664.8
						C758.1,711.9,755.8,714.2,753.1,714.2z"/>
				</defs>
				<clipPath id="SVGID_32_">
					<use xlink:href="#SVGID_31_"  style="overflow:visible;"/>
				</clipPath>
				<path class="st14" d="M544,57c0,0,1.3,1.5,2.3,1.7c0.9,0.2,2.5-0.8,2.5-0.8s-1.3,1-1.6,2.1c-0.3,1,0.7,2.8,0.7,2.8
					s-1.2-1.5-2.3-1.8c-0.8-0.2-2.6,0.8-2.6,0.8s1.6-1.3,1.7-2.1C545,58.6,544,57,544,57z"/>
			</g>
		</g>
		<g>
			<g>
				<defs>
					<path id="SVGID_33_" d="M753.1,714.2H95.3c-2.8,0-5-2.2-5-5V44.4c0-2.8,2.2-5,5-5h657.8c2.8,0,5,2.2,5,5v664.8
						C758.1,711.9,755.8,714.2,753.1,714.2z"/>
				</defs>
				<clipPath id="SVGID_34_">
					<use xlink:href="#SVGID_33_"  style="overflow:visible;"/>
				</clipPath>
				<path class="st15" d="M260.5,276.7c0,0,1.3,1.5,2.3,1.7c0.9,0.2,2.5-0.8,2.5-0.8s-1.3,1-1.6,2.1c-0.3,1,0.7,2.8,0.7,2.8
					s-1.2-1.5-2.3-1.8c-0.8-0.2-2.6,0.8-2.6,0.8s1.6-1.3,1.7-2.1C261.5,278.3,260.5,276.7,260.5,276.7z"/>
			</g>
		</g>
		<g>
			<g>
				<defs>
					<path id="SVGID_35_" d="M753.1,714.2H95.3c-2.8,0-5-2.2-5-5V44.4c0-2.8,2.2-5,5-5h657.8c2.8,0,5,2.2,5,5v664.8
						C758.1,711.9,755.8,714.2,753.1,714.2z"/>
				</defs>
				<clipPath id="SVGID_36_">
					<use xlink:href="#SVGID_35_"  style="overflow:visible;"/>
				</clipPath>
				<path class="st16" d="M339.5,79.9c0,0.4-0.3,0.7-0.7,0.8c-0.4,0-0.7-0.3-0.8-0.7c0-0.4,0.3-0.7,0.7-0.8
					C339.1,79.2,339.5,79.5,339.5,79.9z"/>
			</g>
		</g>
		<g>
			<g>
				<defs>
					<path id="SVGID_37_" d="M753.1,714.2H95.3c-2.8,0-5-2.2-5-5V44.4c0-2.8,2.2-5,5-5h657.8c2.8,0,5,2.2,5,5v664.8
						C758.1,711.9,755.8,714.2,753.1,714.2z"/>
				</defs>
				<clipPath id="SVGID_38_">
					<use xlink:href="#SVGID_37_"  style="overflow:visible;"/>
				</clipPath>
				<path class="st17" d="M299.9,90.2c0,0.4-0.3,0.7-0.7,0.8c-0.4,0-0.7-0.3-0.8-0.7c0-0.4,0.3-0.7,0.7-0.8
					C299.6,89.5,299.9,89.8,299.9,90.2z"/>
			</g>
		</g>
		<g>
			<g>
				<defs>
					<path id="SVGID_39_" d="M753.1,714.2H95.3c-2.8,0-5-2.2-5-5V44.4c0-2.8,2.2-5,5-5h657.8c2.8,0,5,2.2,5,5v664.8
						C758.1,711.9,755.8,714.2,753.1,714.2z"/>
				</defs>
				<clipPath id="SVGID_40_">
					<use xlink:href="#SVGID_39_"  style="overflow:visible;"/>
				</clipPath>
				<path class="st18" d="M470.5,110.6c-0.1,0.4-0.4,0.7-0.8,0.6s-0.7-0.4-0.6-0.8s0.4-0.7,0.8-0.6
					C470.3,109.8,470.6,110.2,470.5,110.6z"/>
			</g>
		</g>
		<g>
			<g>
				<defs>
					<path id="SVGID_41_" d="M753.1,714.2H95.3c-2.8,0-5-2.2-5-5V44.4c0-2.8,2.2-5,5-5h657.8c2.8,0,5,2.2,5,5v664.8
						C758.1,711.9,755.8,714.2,753.1,714.2z"/>
				</defs>
				<clipPath id="SVGID_42_">
					<use xlink:href="#SVGID_41_"  style="overflow:visible;"/>
				</clipPath>
				<path class="st19" d="M369.1,53.1c0,0,1.1,1.1,1.9,1.1c0.7,0.1,1.9-0.8,1.9-0.8s-0.9,0.9-1.1,1.7s0.8,2.1,0.8,2.1
					s-1-1.1-1.9-1.2c-0.7-0.1-2,0.8-2,0.8s1.1-1.1,1.2-1.8C370,54.3,369.1,53.1,369.1,53.1z"/>
			</g>
		</g>
	</g>
	<g>
		<g>
			<g>
				<defs>
					<polygon id="SVGID_43_" points="1,1 2,1 1,2 					"/>
				</defs>
				<clipPath id="SVGID_44_">
					<use xlink:href="#SVGID_43_"  style="overflow:visible;"/>
				</clipPath>
			</g>
			<g>
				<defs>
					<polygon id="SVGID_45_" points="1,1 2,1 1,2 					"/>
				</defs>
				<defs>
					<polygon id="SVGID_46_" points="-1,-1 -2,-1 -1,-2 					"/>
				</defs>
				<clipPath id="SVGID_47_">
					<use xlink:href="#SVGID_45_"  style="overflow:visible;"/>
				</clipPath>
				<clipPath id="SVGID_48_" class="st20">
					<use xlink:href="#SVGID_46_"  style="overflow:visible;"/>
				</clipPath>
				
					<linearGradient id="SVGID_49_" gradientUnits="userSpaceOnUse" x1="-5149.3276" y1="-3407.4338" x2="-5104.9194" y2="-3407.4338" gradientTransform="matrix(0.9218 0.3877 -0.3877 0.9218 3901.5979 5288.2437)">
					<stop  offset="0" style="stop-color:#FFFFFF"/>
					<stop  offset="0.9962" style="stop-color:#333333"/>
				</linearGradient>
				<path class="st21" d="M481.3,148.7c-2.1-0.9-4.4,0.1-5.3,2.2c-0.9,2.1,0.1,4.4,2.2,5.3l38.8,11.9L481.3,148.7z"/>
			</g>
		</g>
	</g>
	
		<linearGradient id="SVGID_50_" gradientUnits="userSpaceOnUse" x1="-5149.3276" y1="-3407.4338" x2="-5104.9194" y2="-3407.4338" gradientTransform="matrix(0.9218 0.3877 -0.3877 0.9218 3901.5979 5288.2437)">
		<stop  offset="0" style="stop-color:#99D9E9"/>
		<stop  offset="0.9962" style="stop-color:#332C7F"/>
	</linearGradient>
	<path class="st22" d="M481.3,148.7c-2.1-0.9-4.4,0.1-5.3,2.2c-0.9,2.1,0.1,4.4,2.2,5.3l38.8,11.9L481.3,148.7z"/>
	<g>
		<g>
			<g class="st23">
				
					<image style="overflow:visible;enable-background:new    ;" width="244" height="244" xlink:href="9E9EFC4109B4F5E7.png"  transform="matrix(1 0 0 1 0 112.8)">
				</image>
			</g>
			<g>
				
					<linearGradient id="SVGID_51_" gradientUnits="userSpaceOnUse" x1="83.2725" y1="828.0157" x2="-43.0581" y2="982.031" gradientTransform="matrix(0.9892 -0.1468 0.1468 0.9892 -40.9183 -654.2886)">
					<stop  offset="0" style="stop-color:#D8BF49"/>
					<stop  offset="1" style="stop-color:#D78235"/>
				</linearGradient>
				<path class="st24" d="M195.7,221.7l0.1,0.4c0.7,5.1,1,10.1,0.8,15c-0.1,2.4-0.3,4.7-0.6,7c-0.8,6.5-2.4,12.8-4.7,18.8
					c-1.3,3.5-2.8,6.8-4.6,10l0,0c-2.9,5.4-6.4,10.4-10.5,15c-12.4,14.2-29.7,24.2-49.8,27.2c-4.3,0.6-8.6,0.9-12.8,0.9
					c-1,0-2,0-3,0c-6.6-0.3-12.9-1.4-19-3.2c-6.1-1.7-11.9-4.2-17.4-7.3c-4.8-2.7-9.4-5.8-13.6-9.4c-0.5-0.5-1-0.9-1.5-1.4
					c-2-1.8-3.8-3.6-5.6-5.6c-2.1-2.3-4-4.7-5.9-7.2c-3.1-4.2-5.7-8.7-7.9-13.5c-0.2-0.4-0.4-0.8-0.6-1.2c-1.7-3.8-3.1-7.9-4.2-12.1
					c-0.8-3-1.5-6.2-1.9-9.3c-0.5-3.1-0.8-6.1-0.8-9.1c-0.5-12,1.7-23.6,6.1-34.2c4.9-11.9,12.5-22.5,22.2-30.9
					c11.4-10,25.7-16.9,41.9-19.3c14.2-2.1,28-0.5,40.6,4.2c3,1.1,5.9,2.4,8.7,3.8l0.8,0.4c10,5.2,18.9,12.4,26,21.2
					C187.3,193,193.5,206.6,195.7,221.7z"/>
				
					<linearGradient id="SVGID_52_" gradientUnits="userSpaceOnUse" x1="41.1894" y1="823.5288" x2="-67.7255" y2="956.3119" gradientTransform="matrix(0.9892 -0.1468 0.1468 0.9892 -40.9183 -654.2886)">
					<stop  offset="0" style="stop-color:#D7C860"/>
					<stop  offset="1" style="stop-color:#D9A54C"/>
				</linearGradient>
				<path class="st25" d="M109.4,159.9c0,0-16.9,1.5-19.1,19.6c-1.6,13.7,8.7,17.4,6.1,33.8c-2.9,18.1-22.6,20.4-29.7,30
					c-7.1,9.6,10.6,22.9,8,37.1C73,289.5,65.6,294,60.6,296c-0.5-0.5-1-0.9-1.5-1.4c-2-1.8-3.8-3.6-5.6-5.6c-2.1-2.3-4-4.7-5.9-7.2
					c-3.1-4.2-5.7-8.7-7.9-13.5c0.3-10.1,0.8-21.4,1.8-28.2c2-14.3,28.8-48.9,28.8-48.9s0.1-4,4.3-11c1.7-2.9,4.1-6.2,7.4-10
					C93.6,157.3,109.4,159.9,109.4,159.9z"/>
				
					<linearGradient id="SVGID_53_" gradientUnits="userSpaceOnUse" x1="95.9261" y1="853.5715" x2="36.3813" y2="926.1652" gradientTransform="matrix(0.9892 -0.1468 0.1468 0.9892 -40.9183 -654.2886)">
					<stop  offset="0" style="stop-color:#D7C860"/>
					<stop  offset="1" style="stop-color:#D8B74B"/>
				</linearGradient>
				<path class="st26" d="M133.7,190.2c0,0,24.2-2.4,29.3,12.2c7.4,21.4-37.4,20.8-37.4,20.8s28.5,19.1,43,16.9
					c14.5-2.2,26.3-21.5,17-38.2c-9.3-16.8-26.9-25.5-35.7-23.6C141.1,180.2,133.7,190.2,133.7,190.2z"/>
				
					<linearGradient id="SVGID_54_" gradientUnits="userSpaceOnUse" x1="60.2338" y1="903.5842" x2="-11.9991" y2="991.6466" gradientTransform="matrix(0.9892 -0.1468 0.1468 0.9892 -40.9183 -654.2886)">
					<stop  offset="0" style="stop-color:#D7C860"/>
					<stop  offset="1" style="stop-color:#D9A54C"/>
				</linearGradient>
				<path class="st27" d="M191.2,262.9c-1.3,3.5-2.8,6.8-4.6,10l0,0c-2.9,5.4-6.4,10.4-10.5,15c-4.4-0.5-13.1-1.5-24.1-2.6
					c-3.5-0.3-7.3-0.7-11.2-1.1c-1.8-0.2-3.6-0.2-5.2-0.1c-16.3,1.1-22.2,15.8-24.2,26.2c-0.4,2.1-0.7,4-0.9,5.6
					c-6.6-0.3-12.9-1.4-19-3.2L90,281.1c-1-7.9-1.7-11.1-1.7-11.1s-0.4-0.6-1-1.7c-1.8-3.4-5.5-11.3-5-19.3
					c0.7-13,13.5-18.6,14.6-19.1c-0.6,0.6-5.8,6-3.3,16c1,4.2,5.3,7.2,10.6,9.3c11.6,4.7,28.3,5.3,28.3,5.3s6.8,2.7,15.1,5.1
					c6.5,2,14,3.8,19.8,4C180.2,270.2,187.5,266.2,191.2,262.9z"/>
				
					<linearGradient id="SVGID_55_" gradientUnits="userSpaceOnUse" x1="16.5729" y1="831.8484" x2="-84.2407" y2="954.7548" gradientTransform="matrix(0.9892 -0.1468 0.1468 0.9892 -40.9183 -654.2886)">
					<stop  offset="0" style="stop-color:#EBDC82"/>
					<stop  offset="1" style="stop-color:#D8AB4C"/>
				</linearGradient>
				<path class="st28" d="M59.5,238.6c-13,9.4-13,18.2-7.5,23.4c5.5,5.2,12.8,9.5,11.6,21c-0.5,4.7-2.4,8.7-4.5,11.7
					c-2-1.8-3.8-3.6-5.6-5.6c-2.1-2.3-4-4.7-5.9-7.2c-3.1-4.2-5.7-8.7-7.9-13.5c-0.2-0.4-0.4-0.8-0.6-1.2c-1.7-3.8-3.1-7.9-4.2-12.1
					c-0.8-3-1.5-6.2-1.9-9.3c-0.5-3.1-0.8-6.1-0.8-9.1c-0.5-12,1.7-23.6,6.1-34.2c4.9-11.9,12.5-22.5,22.2-30.9
					c4,1.8,9.4,4.6,14.2,8.8s9,9.7,10.6,16.9C89.9,217.8,72.6,229.2,59.5,238.6z"/>
				
					<linearGradient id="SVGID_56_" gradientUnits="userSpaceOnUse" x1="43.2787" y1="919.2886" x2="-14.5017" y2="989.7313" gradientTransform="matrix(0.9892 -0.1468 0.1468 0.9892 -40.9183 -654.2886)">
					<stop  offset="0" style="stop-color:#EBDC82"/>
					<stop  offset="1" style="stop-color:#D8AB4C"/>
				</linearGradient>
				<path class="st29" d="M152.1,285.3c-0.4,2-1.1,4.1-2.2,6.1c-6.6,12.8-23.6,13.2-23.6,13.2s13.9-6.7,9.4-20.5
					c-0.1-0.4-0.2-0.7-0.4-1.1c-2.7-6.8-10.6-6-14.2-4.3c-5.4,2.7-10.1,9.8-11,18.5c-0.5,4.9,0.2,9.3,1.3,13c0.6,2.1,1.4,4,2.2,5.7
					c-1,0-2,0-3,0c-6.6-0.3-12.9-1.4-19-3.2c-6.1-1.7-11.9-4.2-17.4-7.3c0.1-9.3,2.2-24.5,13.2-37.2c0.5-0.6,1-1.1,1.5-1.7
					c5.1-5.3,10.3-9,15.4-11.4c14.1-6.6,27.4-3.7,34.5,1.3c3.3,2.3,6.4,5.4,8.9,9.1C151.4,271.2,153.6,278.1,152.1,285.3z"/>
				
					<linearGradient id="SVGID_57_" gradientUnits="userSpaceOnUse" x1="93.5405" y1="842.7961" x2="17.4142" y2="935.605" gradientTransform="matrix(0.9892 -0.1468 0.1468 0.9892 -40.9183 -654.2886)">
					<stop  offset="0" style="stop-color:#EBDC82"/>
					<stop  offset="1" style="stop-color:#D8AB4C"/>
				</linearGradient>
				<path class="st30" d="M195.7,221.7l0.1,0.4c0.7,5.1,1,10.1,0.8,15c-0.1,2.4-0.3,4.7-0.6,7c-2.2,2-4.5,3.8-7.1,5.4
					c-9.5,5.8-25.6,8-36.7-1.7c-11.2-9.7-19.6-16.3-31.9-15.7c-11.3,0.5-19.5,13.2-19.5,13.2s-0.3-11.9,5.3-18.6
					c5.4-6.4,16.6-12.1,32.3-4.9c0.3,0.2,0.6,0.3,0.9,0.4c17.7,7.7,38.2,2.3,42.4-9.4c4.2-12-7.3-25.6-24.6-27.8
					c-6.5-0.8-12.4,1.6-17.6,5.1c-8.7,5.8-15.3,14.5-18.3,15.8c-4.9,2.1-17.6-8.7-19.9-16.9c-2.2-8.2,0.9-16.8,6.5-21.5
					c6.3-5.2,25,2.6,34.8,0.9c5.3-0.9,7.7-4.7,8.9-8.1l0.8,0.4c10,5.2,18.9,12.4,26,21.2C187.3,193,193.5,206.6,195.7,221.7z"/>
				
					<linearGradient id="SVGID_58_" gradientUnits="userSpaceOnUse" x1="83.0577" y1="827.8331" x2="-43.2764" y2="981.8526" gradientTransform="matrix(0.9892 -0.1468 0.1468 0.9892 -40.9183 -654.2886)">
					<stop  offset="0" style="stop-color:#D8BF49"/>
					<stop  offset="1" style="stop-color:#C66445"/>
				</linearGradient>
				<path class="st31" d="M132.2,269.4c-38.8,0-71.3-32.4-71.3-71.3c0-12.1,3.1-23.5,8.6-33.6c-3.2,2.1-6.3,4.4-9.2,6.9
					c-9.7,8.4-17.3,19.1-22.2,30.9c-4.3,10.6-6.5,22.2-6.1,34.2c0.1,3,0.4,6.1,0.8,9.1c0.5,3.1,1.1,6.2,1.9,9.3
					c1.1,4.2,2.5,8.2,4.2,12.1c0.2,0.4,0.4,0.8,0.6,1.2c2.2,4.8,4.9,9.3,7.9,13.5c1.8,2.5,3.8,4.9,5.9,7.2c1.8,1.9,3.6,3.8,5.6,5.6
					c0.5,0.5,1,0.9,1.5,1.4c4.2,3.6,8.7,6.8,13.6,9.4c5.5,3.1,11.3,5.6,17.4,7.3c6.1,1.8,12.5,2.8,19,3.2c1,0,2,0.1,3,0
					c4.2,0.1,8.5-0.2,12.8-0.9c20.1-3,37.4-13,49.8-27.2c4-4.6,7.5-9.6,10.5-15l0,0c1.7-3.2,3.3-6.6,4.6-10c2.3-6,3.9-12.3,4.7-18.8
					c0.3-2.3,0.5-4.7,0.6-7c0.1-2.8,0-5.7-0.1-8.5C184.8,252.5,160.2,269.4,132.2,269.4z"/>
				
					<linearGradient id="SVGID_59_" gradientUnits="userSpaceOnUse" x1="41.2737" y1="823.6024" x2="-67.6384" y2="956.3822" gradientTransform="matrix(0.9892 -0.1468 0.1468 0.9892 -40.9183 -654.2886)">
					<stop  offset="0" style="stop-color:#D7C860"/>
					<stop  offset="1" style="stop-color:#D9774E"/>
				</linearGradient>
				<path class="st32" d="M66.7,243.4c1.6-2.2,3.9-4,6.5-5.7c-6.7-9.9-11-21.6-11.9-34c-8,11.4-18.5,27.8-19.8,36.6
					c-1,6.8-1.5,18.2-1.8,28.2c2.2,4.8,4.9,9.3,7.9,13.5c1.8,2.5,3.8,4.9,5.9,7.2c1.8,1.9,3.6,3.8,5.6,5.6c0.5,0.5,1,0.9,1.5,1.4
					c5-2,12.4-6.5,14.1-15.6C77.3,266.3,59.6,252.9,66.7,243.4z"/>
				
					<linearGradient id="SVGID_60_" gradientUnits="userSpaceOnUse" x1="61.2537" y1="904.4209" x2="-10.9792" y2="992.4833" gradientTransform="matrix(0.9892 -0.1468 0.1468 0.9892 -40.9183 -654.2886)">
					<stop  offset="0" style="stop-color:#D7C860"/>
					<stop  offset="1" style="stop-color:#D9774E"/>
				</linearGradient>
				<path class="st33" d="M167.5,269.7c-4.8-0.2-10.6-1.5-16.1-3c-6.1,1.7-12.5,2.8-19.1,2.8c-19.3,0-36.9-8-49.8-20.7
					c0,0.1,0,0.2,0,0.3c-0.5,8,3.2,15.9,5,19.3c0.6,1.1,1,1.7,1,1.7s0.7,3.2,1.7,11.1l1.6,31.7c6.1,1.8,12.5,2.8,19,3.2
					c0.2-1.6,0.4-3.5,0.9-5.6c2.1-10.3,7.9-25,24.2-26.2c1.6-0.1,3.3-0.1,5.2,0.1c4,0.4,7.7,0.7,11.2,1.1c11,1.1,19.7,2.1,24.1,2.6
					c4-4.6,7.5-9.6,10.5-15l0,0c1.7-3.2,3.3-6.6,4.6-10C187.5,266.2,180.2,270.2,167.5,269.7z"/>
				
					<linearGradient id="SVGID_61_" gradientUnits="userSpaceOnUse" x1="16.5153" y1="831.8014" x2="-84.2984" y2="954.708" gradientTransform="matrix(0.9892 -0.1468 0.1468 0.9892 -40.9183 -654.2886)">
					<stop  offset="0" style="stop-color:#D7C860"/>
					<stop  offset="1" style="stop-color:#D9986D"/>
				</linearGradient>
				<path class="st34" d="M52.1,262c-5.5-5.2-5.6-14,7.5-23.4c3.2-2.3,6.6-4.7,9.8-7.3c-5.3-9.9-8.4-21.2-8.4-33.1
					c0-8.4,1.6-16.6,4.4-24.1c-1.8-1-3.5-1.8-5-2.5c-9.7,8.4-17.3,19.1-22.2,30.9c-4.3,10.6-6.5,22.2-6.1,34.2
					c0.1,3,0.4,6.1,0.8,9.1c0.5,3.1,1.1,6.2,1.9,9.3c1.1,4.2,2.5,8.2,4.2,12.1c0.2,0.4,0.4,0.8,0.6,1.2c2.2,4.8,4.9,9.3,7.9,13.5
					c1.8,2.5,3.8,4.9,5.9,7.2c1.8,1.9,3.6,3.8,5.6,5.6c2.1-3,4-7,4.5-11.7C64.8,271.4,57.6,267.1,52.1,262z"/>
				
					<linearGradient id="SVGID_62_" gradientUnits="userSpaceOnUse" x1="43.213" y1="919.2334" x2="-14.5679" y2="989.6768" gradientTransform="matrix(0.9892 -0.1468 0.1468 0.9892 -40.9183 -654.2886)">
					<stop  offset="0" style="stop-color:#D7C860"/>
					<stop  offset="1" style="stop-color:#D9986D"/>
				</linearGradient>
				<path class="st35" d="M132.2,269.4c-12.9,0-25-3.6-35.5-9.8c-2.6,1.9-5.3,4.2-7.9,6.9c-0.5,0.6-1.1,1.1-1.5,1.7
					c-11,12.7-13.1,27.9-13.2,37.2c5.5,3.1,11.3,5.6,17.4,7.3c6.1,1.8,12.5,2.8,19,3.2c1,0,2,0.1,3,0c-0.8-1.6-1.5-3.5-2.2-5.7
					c-1.1-3.7-1.8-8.1-1.3-13c0.8-8.7,5.5-15.8,11-18.5c3.6-1.8,11.5-2.6,14.2,4.3c0.2,0.4,0.3,0.7,0.4,1.1
					c4.5,13.8-9.4,20.5-9.4,20.5s17-0.4,23.6-13.2c1.1-2,1.8-4.1,2.2-6.1c1.4-6.5-0.3-12.7-3.4-17.9
					C143.4,268.7,137.9,269.4,132.2,269.4z"/>
				
					<linearGradient id="SVGID_63_" gradientUnits="userSpaceOnUse" x1="149.3211" y1="856.6329" x2="73.194" y2="949.4429" gradientTransform="matrix(0.9892 -0.1468 0.1468 0.9892 -40.9183 -654.2886)">
					<stop  offset="0" style="stop-color:#D7C860"/>
					<stop  offset="1" style="stop-color:#D9A54C"/>
				</linearGradient>
				<path class="st36" d="M175.9,254c4.8-0.7,9.3-2.4,12.9-4.5c2.6-1.6,5-3.4,7.1-5.4c0.3-2.3,0.5-4.7,0.6-7c0.1-2.8,0-5.7-0.1-8.5
					C191.6,238.5,184.6,247.2,175.9,254z"/>
			</g>
			<g>
				<g class="st23">
					
						<image style="overflow:visible;enable-background:new    ;" width="129" height="130" xlink:href="9E9EFC4109B4F5F8.png"  transform="matrix(1 0 0 1 513 -24.2)">
					</image>
				</g>
				<g>
					
						<linearGradient id="SVGID_64_" gradientUnits="userSpaceOnUse" x1="563.4589" y1="556.1219" x2="616.111" y2="609.3622" gradientTransform="matrix(1 0 0 1 0 -550)">
						<stop  offset="0" style="stop-color:#FFD762"/>
						<stop  offset="1" style="stop-color:#B31E43"/>
					</linearGradient>
					<path class="st37" d="M584,29.2c1.2-0.3,2.3-0.6,3.5-0.8c-0.7-0.9-1.4-1.7-2.2-2.5c-0.1-0.1-0.3-0.3-0.4-0.4
						c-0.6,0.2-1.3,0.3-1.9,0.5C583.8,26.8,584.2,28,584,29.2z"/>
					
						<linearGradient id="SVGID_65_" gradientUnits="userSpaceOnUse" x1="540.413" y1="570.0374" x2="592.2787" y2="614.8705" gradientTransform="matrix(1 0 0 1 0 -550)">
						<stop  offset="0" style="stop-color:#FFD744"/>
						<stop  offset="1" style="stop-color:#A11D2A"/>
					</linearGradient>
					<path class="st38" d="M592.6,43.5L592.6,43.5L592.6,43.5c0-1.1-0.1-2.1-0.2-3c-0.2-1.4-0.5-2.8-0.9-4.1
						c-0.7-2.5-1.8-4.8-3.3-6.9l0,0l0,0c-0.3-0.4-0.5-0.8-0.8-1.1l0,0c-0.1-0.1-0.1-0.2-0.2-0.2c-0.6-0.8-1.3-1.5-2-2.2
						c-0.1-0.1-0.3-0.3-0.4-0.4c-1.8-1.8-3.9-3.2-6.2-4.4l0,0c-0.7-0.4-1.5-0.7-2.3-1c-0.4-0.1-0.8-0.3-1.2-0.4
						c-1.2-0.4-2.5-0.7-3.7-0.9l0,0c-1.3-0.2-2.5-0.3-3.8-0.3c-0.4,0-0.9,0-1.3,0l0,0c-0.6,0-1.2,0.1-1.7,0.2
						c-0.6,0.1-1.2,0.2-1.8,0.3c-0.6,0.1-1.2,0.3-1.8,0.4c-0.9,0.3-1.9,0.6-2.8,0.9c-0.5,0.2-1,0.4-1.5,0.7
						c-1.5,0.7-2.8,1.6-4.1,2.5l0,0c-0.3,0.2-0.5,0.4-0.8,0.6c-0.5,0.4-1,0.8-1.4,1.3c-0.2,0.2-0.4,0.4-0.7,0.7
						c-0.6,0.6-1.2,1.3-1.7,1.9c-0.3,0.3-0.5,0.7-0.8,1l0,0c-1.5,2.1-2.7,4.6-3.5,7.1c-0.1,0.3-0.2,0.6-0.2,0.8l0,0
						c-0.6,2.1-0.8,4.2-0.8,6.4v0.1c0,0.1,0,0.3,0,0.4l0,0c0,1.1,0.1,2.3,0.3,3.3v0.1c0.1,0.6,0.2,1.1,0.3,1.7
						c0.4,1.9,1.1,3.7,1.9,5.4c0.3,0.6,0.6,1.2,0.9,1.7l0,0c0.9,1.6,2,3,3.3,4.4c0.2,0.2,0.4,0.3,0.5,0.5c0.3,0.3,0.5,0.5,0.8,0.8
						c0.8,0.7,1.6,1.4,2.4,2l0,0c0.2,0.1,0.4,0.3,0.6,0.4c0.2,0.1,0.4,0.3,0.6,0.4c0.4,0.3,0.8,0.5,1.2,0.7c1.8,1,3.7,1.8,5.7,2.3
						s4.1,0.8,6.3,0.8c0.2,0,0.3,0,0.5,0c2,0,3.9-0.3,5.7-0.8c0.9-0.2,1.8-0.5,2.6-0.8c2.2-0.8,4.2-2,6.1-3.3
						c0.6-0.4,1.1-0.9,1.7-1.3c2.2-1.9,4-4.2,5.4-6.8l0,0c0.3-0.5,0.5-1,0.8-1.5c0.9-1.9,1.5-4,1.9-6.2l0,0
						C592.4,46.3,592.6,44.9,592.6,43.5z M592.5,43.5c-0.1,0-0.1,0.1-0.2,0.1C592.4,43.6,592.4,43.5,592.5,43.5L592.5,43.5
						L592.5,43.5z"/>
					<g>
						
							<linearGradient id="SVGID_66_" gradientUnits="userSpaceOnUse" x1="-1739.3009" y1="-409.9254" x2="-1720.1661" y2="-409.9254" gradientTransform="matrix(-0.9667 0.2559 -0.2559 -0.9667 -1184.3051 113.1495)">
							<stop  offset="0" style="stop-color:#EBDC82"/>
							<stop  offset="1" style="stop-color:#D8AB4C"/>
						</linearGradient>
						<path class="st39" d="M599.9,56.6c0,0-0.7,7.6-3.9,13c-3.3,5.6-9.7,8.4-10.8,6.1c-1-2.2,1.7-3.6,6.5-6.8
							C598.3,64.6,599.9,56.6,599.9,56.6z"/>
						
							<linearGradient id="SVGID_67_" gradientUnits="userSpaceOnUse" x1="-1753.2344" y1="-380.1346" x2="-1741.3242" y2="-380.1346" gradientTransform="matrix(-0.9749 0.2227 -0.2227 -0.9749 -1197.0027 89.4372)">
							<stop  offset="0" style="stop-color:#D8BF49"/>
							<stop  offset="1" style="stop-color:#D78235"/>
						</linearGradient>
						<path class="st40" d="M593.2,71c-2.5,3.6-6.2,5.3-7,4.3c-1.1-1.3-0.1-2.6,3.9-4.4c3.7-1.7,5.9-4.9,5.9-4.9
							S594.3,69.5,593.2,71z"/>
						
							<linearGradient id="SVGID_68_" gradientUnits="userSpaceOnUse" x1="-1549.572" y1="-632.5192" x2="-1544.6294" y2="-632.5192" gradientTransform="matrix(-0.8773 0.4799 -0.4799 -0.8773 -1072.0454 260.8399)">
							<stop  offset="0" style="stop-color:#D8BF49"/>
							<stop  offset="1" style="stop-color:#D78235"/>
						</linearGradient>
						<path class="st41" d="M586.6,74.5c-0.2-0.4-0.1-1,0.3-1.2c0.4-0.2,3.9-1.3,3.9-1.3s-2.6,2.6-3.1,2.9
							C587.4,75.1,586.8,74.9,586.6,74.5z"/>
					</g>
					<g>
						
							<linearGradient id="SVGID_69_" gradientUnits="userSpaceOnUse" x1="-1175.0573" y1="1480.3829" x2="-1155.9443" y2="1480.3829" gradientTransform="matrix(-0.6703 0.7421 0.7421 0.6703 -1321.2668 -114.6503)">
							<stop  offset="0" style="stop-color:#EBDC82"/>
							<stop  offset="1" style="stop-color:#D8AB4C"/>
						</linearGradient>
						<path class="st42" d="M570.9,11c0,0-7.1-2.8-13.3-2.5c-6.5,0.4-11.9,4.8-10.4,6.8c1.5,1.9,4,0.1,9-2.7
							C563,8.8,570.9,11,570.9,11z"/>
						
							<linearGradient id="SVGID_70_" gradientUnits="userSpaceOnUse" x1="-1125.392" y1="1490.8912" x2="-1113.4808" y2="1490.8912" gradientTransform="matrix(-0.6446 0.7645 0.7645 0.6446 -1307.271 -92.9292)">
							<stop  offset="0" style="stop-color:#D8BF49"/>
							<stop  offset="1" style="stop-color:#D78235"/>
						</linearGradient>
						<path class="st43" d="M555,10.3c-4.3,0.6-7.5,3-7,4.3c0.6,1.6,2.3,1.3,5.7-1.5c3.2-2.5,7.1-3,7.1-3S556.8,10.1,555,10.3z"/>
						
							<linearGradient id="SVGID_71_" gradientUnits="userSpaceOnUse" x1="-1454.8181" y1="1337.9187" x2="-1449.8755" y2="1337.9187" gradientTransform="matrix(-0.8285 0.56 0.56 0.8285 -1401.6208 -281.9681)">
							<stop  offset="0" style="stop-color:#D8BF49"/>
							<stop  offset="1" style="stop-color:#D78235"/>
						</linearGradient>
						<path class="st44" d="M548.9,14.6c0.3,0.4,0.8,0.5,1.2,0.2s3-2.9,3-2.9s-3.6,1.1-4,1.4C548.7,13.7,548.6,14.2,548.9,14.6z"/>
					</g>
					
						<linearGradient id="SVGID_72_" gradientUnits="userSpaceOnUse" x1="545.1842" y1="573.0706" x2="590.0992" y2="614.4858" gradientTransform="matrix(1 0 0 1 0 -550)">
						<stop  offset="0" style="stop-color:#F7ED52"/>
						<stop  offset="1" style="stop-color:#C74345"/>
					</linearGradient>
					<path class="st45" d="M573.9,24.6c0.9-0.6,1.9-1.2,3-1.2c0.9,0,1.8,0.5,2.5,1.1c1.5,1.3,2.5,3.1,2.8,5c0.1,0.5,0.1,1,0.1,1.5
						c-0.3,0.4-0.7,0.7-1.1,1.1c-0.8,0.6-1.7,1.3-2.6,1.5c-1.7,0.5-3-0.4-4-1.7c-0.9-1.2-1.6-2.4-2.2-3.8
						C571.6,26.4,572.5,25.5,573.9,24.6z M575.2,47.9c-0.6,0.4-1.3,0.7-1.9,0.9c-1.1,0.4-2.2,0.7-3.4,0.9c-0.5,0.1-1.1,0.1-1.6,0
						c-0.8-0.2-1.4-0.7-2-1.3c-0.2-0.7-0.3-1.4-0.5-2c-0.3-1.4-0.6-2.9-0.7-4.3c0.3-0.7,0.8-1.3,1.4-1.8c1.2-1,2.7-1.5,4.2-1.9
						c0.9-0.2,1.8-0.4,2.7-0.3c1.8,0.2,2.6,1.3,2.8,2.9C576.5,43,577.1,46.6,575.2,47.9z M565.9,28.1c1.4-1.2,3.1-1.7,4.8,0.2
						c1.3,1.4,2.8,3.5,2.7,5.5c-0.1,1.2-1.3,2.5-2.4,3c-0.8,0.4-1.8,0.5-2.7,0.7c-0.7,0.1-1.6,0.2-2.2-0.3c-0.5-0.4-0.7-1.1-0.9-1.8
						c-0.2-0.5-0.5-1.1-0.9-1.5c-0.4-0.6-0.9-1.1-1.1-1.7C562.8,30.7,564.9,28.9,565.9,28.1z M564.1,39.2c-0.3,1.3-0.6,2.6-0.9,3.9
						c-0.2,0.7-0.3,1.4-0.8,2c-0.1,0.1-0.2,0.2-0.3,0.2c-0.4,0-0.7,0-1.1-0.1c-1.9-0.5-2.2-2.4-2.4-4.1c-0.1-1.6-0.2-3.2,0.1-4.8
						c0.1-0.7,0.3-1.6,0.9-2.1c0.9-0.8,2,0.4,2.8,1c0.5,0.4,1,0.7,1.3,1.2C564.3,37.3,564.3,38.3,564.1,39.2z M553.4,25.1
						c0.5-1.2,1.4-2.4,2.4-3.3c0.7-0.6,1.5-1,2.4-1c1.3,0.1,2.4,1.1,3.3,2.1c1.4,1.5,3.2,3,1.6,5.2c-0.5,0.7-1.4,2-2.3,2.2
						c-1.1,0.3-2.4-0.6-3.3-1.1c-1.1-0.6-2.3-1.1-3.3-1.8c-0.4-0.3-0.9-0.7-1-1.2C553.1,25.8,553.2,25.4,553.4,25.1z M551.4,32.7
						c0.1-1.6,0.5-2.8,2.3-2.4c1.2,0.3,3.6,0.6,4.5,1.5c0.9,1,0.5,2.8,0,3.9c-0.6,1.2-1.6,1.9-2.9,1.8c-0.6,0-0.9-0.3-1.4-0.5
						s-1-0.2-1.4-0.4C551.2,36.2,551.3,33.8,551.4,32.7z M551.1,39.5c0.2-0.3,0.5-0.4,0.8-0.6c0.9-0.5,1.4-0.9,2.5-0.4
						c2.2,1,4,4.1,3.8,6.6c0,0.4-0.2,0.8-0.3,1.2c-0.3,0-0.6,0.1-0.8,0.2c-0.5,0.1-1,0.3-1.4,0.2c-0.3-0.1-0.6-0.3-0.8-0.5
						c-0.7-0.7-1.3-1.5-1.8-2.4C552.3,42.8,550.3,40.7,551.1,39.5z M549.5,51.2c-0.9,0-1.4-1-1.8-1.7c-0.7-1.6-1.7-3.7-1.8-5.6
						c0.2-0.6,0.5-1,1-1.4c0.8-0.9,1.9-2.4,3.1-1c1.2,1.4,2.3,3.1,2.7,5c0.1,0.7,0.1,1.4-0.2,2C551.9,49.4,550.7,51.2,549.5,51.2z
						 M558.6,54.2c-0.2,0.2-0.4,0.4-0.7,0.5c-0.9,0.6-2,1.3-3.1,1.8c-1.4-0.5-2.2-2-2.7-3.4c-0.1-0.4-0.3-0.8-0.3-1.3
						c0-0.7,0.5-0.9,0.9-1.4c1-1,2.1-2.2,3.5-2.2C558.6,48.5,560.2,52.6,558.6,54.2z M563,55c-1.7-0.2-2.7-1.5-2.9-3.1
						c-0.1-1.4-1.2-2.8-0.3-4.1c0.7-1,2.2-1.2,3.3-1.1c1.3,0.1,2.2,1.1,2.7,2.3c0.4,1.1,0.5,2.2,0.7,3.3c0.1,0.5,0.3,1,0.4,1.6
						C565.7,54.7,564.4,55.2,563,55z M579.2,54.5c-0.1,1-0.3,2-0.5,2.8c-0.1,0.7-0.2,1.5-0.4,2.2c-0.2,0.6-0.4,1.2-0.8,1.7
						c-0.8,0.9-2.2,1.2-3.4,1.2c-1.1,0.1-1.9-0.3-2.5-1.2c-0.6-0.8-1-1.8-1.3-2.8v-0.1c-0.3-0.9-0.6-1.7-1-2.6
						c-0.1-0.2-0.1-0.4-0.2-0.6c-0.3-1.6,0.3-2.9,1.8-3.9c1.6-1.1,6.4-3,7.8-0.8c0.1,0.2,0.2,0.3,0.3,0.5
						C579.4,51.9,579.4,53.2,579.2,54.5z M586.3,43.4c-0.5,1.2-1.8,1.8-2.8,2.5s-2.4,1.4-3.5,0.4c-0.3-0.3-0.5-0.6-0.7-0.9
						c-1.4-2.7-2.6-7.7,0-10c0.6-0.5,1.2-1,1.9-1.3c0.4-0.2,0.8-0.3,1.2-0.4c0.9,0.5,1.6,1.2,2.1,2c1,1.6,1.4,3.5,1.8,5.3
						C586.4,41.8,586.6,42.6,586.3,43.4z M589.2,44.6c0.1-0.1,0.2-0.2,0.3-0.3c0.3-0.2,0.5-0.4,0.8-0.5s0.7-0.1,1.1-0.1
						c0.2,0,0.8,0,1-0.2l0.1-0.1c0-1-0.1-2-0.2-3c-0.5,0.4-1.2,0.8-1.7,0.7c-2.3-0.2-3.6-3.9-4.3-5.7c-0.5-1.4-0.8-3-0.4-4.4
						c0.1-0.2,0.2-0.3,0.2-0.4c0.6-0.6,1.3-1,2.1-1.2c-0.3-0.4-0.5-0.8-0.8-1.1c-0.1-0.1-0.1-0.2-0.2-0.2c-0.4,0.3-0.8,0.6-1.3,0.9
						c-0.2,0.1-0.3,0.2-0.5,0.3c-0.9-0.4-2.2-1.8-2.6-2.1c-1.1-0.9-1.9-2-2.8-3c-0.5-0.6-1.1-1.2-1.3-2c-0.1-0.3-0.1-0.6-0.1-1
						c-0.7-0.4-1.5-0.7-2.3-1c-0.4-0.1-0.8-0.3-1.2-0.4c-1.2-0.4-2.5-0.7-3.8-0.9l0,0c1,0.7,2,1.6,1.7,2.5c-0.3,1.1-1.6,1.9-2.4,2.6
						c-1.1,0.9-2.5,1.5-3.9,1.6c-1.8,0.1-3.2-1.4-4-2.8c-0.3-0.6-0.3-1.1,0.1-1.6c0.9-1,2-1.9,3.3-2.5c-0.6,0-1.2,0.1-1.7,0.2
						c-0.6,0.1-1.2,0.2-1.8,0.3c-0.6,0.1-1.2,0.3-1.8,0.4c-0.9,0.3-1.9,0.6-2.8,0.9c-0.5,0.2-1,0.4-1.5,0.7
						c-1.5,0.7-2.8,1.6-4.1,2.5c-0.3,0.2-0.5,0.4-0.8,0.6c-0.5,0.4-1,0.8-1.4,1.3c-0.2,0.2-0.4,0.4-0.7,0.7
						c-0.6,0.6-1.2,1.3-1.7,1.9c-0.3,0.3-0.5,0.7-0.8,1c0.4,0.4,0.8,0.8,1.1,1.2c1.1,1.4,1.8,3.2,2,5c0.1,0.8,0,1.6-0.2,2.3
						c-0.5,1.2-1.6,2.1-2.6,2.8c-0.7,0.5-1.6,1-2.3,0.5c-0.5-0.3-0.7-1-0.9-1.6c-0.2-0.8-0.4-1.5-0.7-2.2c-0.6,2.1-0.8,4.2-0.8,6.4
						v0.1c0,0.1,0,0.3,0,0.4c0.9,0.3,1.8,0.8,2.5,1.4c0.4,0.9,0.8,1.9,1,2.9c0.6,2.3,1.6,4.9-0.9,6.2c0.3,0.6,0.6,1.2,0.9,1.7
						c0-0.6,0.2-1.1,0.5-1.5c0,0,0-0.1,0.1-0.1c0.4-0.6,1.1-1.6,1.7-1.8c0.8-0.2,1.5,0.4,2.1,1.1c1,1.3,2.3,2.8,2.6,4.4
						c0.2,1.5-1,2.7-2.3,3.6c0.8,0.7,1.6,1.4,2.4,2c0.2,0.1,0.4,0.3,0.6,0.4c0.2,0.1,0.4,0.3,0.6,0.4c0.4,0.3,0.8,0.5,1.2,0.7
						c0.2-0.6,0.5-1.1,0.9-1.6c0.5-0.5,1.2-0.8,1.9-0.9c0.8-0.1,1.1,0.1,1.7,0.5c1.2,0.9,2.4,1.7,3,3.2c0.1,0.2,0.1,0.3,0.1,0.5
						c-0.1,0.3-0.4,0.4-0.8,0.5c-0.4,0.1-0.7,0.1-1.1,0.1c2,0.5,4.1,0.8,6.3,0.8h0.5c-0.2-0.3-0.4-0.5-0.4-0.8
						c0-0.4,0.4-0.6,0.8-0.8c1.8-0.6,3.9-0.3,5.4,0.8c0.9-0.2,1.8-0.5,2.6-0.8c-0.5-1.4,0.2-3.2,1.6-4c1.1-0.5,2.4-0.5,3.5,0
						c0.1,0.1,0.5,0.3,1,0.6c0.6-0.4,1.1-0.9,1.7-1.4c-0.2-0.3-0.3-0.5-0.5-0.8s-0.4-0.6-0.4-0.9c-0.1-0.7,0.3-1.3,0.8-1.8
						c0.6-0.7,1.3-1.4,1.9-2.1c0.8-0.8,1.8-1.6,2.8-1.4c0.3,0,0.5,0.1,0.8,0.3c0.3-0.5,0.5-1,0.8-1.5c-0.7-0.4-1.5-0.8-2-1.5
						c-0.4-0.6-0.4-2.1-0.4-3.6l-0.4,0.1c0,1.7-0.2,3.4-0.7,4.4s-1.3,1.9-2.1,2.7c-1,1-1.9,1.9-2.9,2.9c-0.4,0.4-1,0.7-1.3,0.3
						c-0.2-0.2-0.2-0.4-0.2-0.7c0.1-1.6,0.2-3.2,0.4-4.8c0.1-1.1,0.2-2.3,0.3-3.4c0-0.2,0-0.4,0.1-0.6c0-0.1,0.1-0.2,0.1-0.3
						c0.2-0.3,0.4-0.5,0.7-0.6c1.1-0.8,2.5-1.7,3.9-1.8c0.3,0,0.4,0,0.6,0.1c0.5,0.2,0.7,0.6,0.9,1.1c0.2,0.8,0.3,1.6,0.3,2.4h0.1
						c0-1.2,0.2-2.4,0.4-3.6c0-0.3,0.1-0.7,0.2-1C588.6,45.4,588.8,45,589.2,44.6z M568.5,64.2c-0.3,0.4-0.8,0.6-1.3,0.7
						c-0.8,0.2-1.7,0.4-2.5,0.2c-2.5-0.5-3.2-3.5-5.8-3.7c-0.7-0.1-1.5,0-2.1,0.3c0,0-0.1,0-0.1-0.1c-0.7-0.6-1.3-1.2-1.8-1.9
						c-1.8-2.3,1-3.4,2.9-3.7c1.8-0.3,3.7-0.2,5.5,0.3c0.5,0.1,1,0.3,1.6,0.5c0.3,0.1,0.5,0.1,0.7,0.1s0.4,0.1,0.7,0.1
						c0.6,0.7,1.1,1.5,1.5,2.4c0.6,1.2,0.9,2.5,0.9,3.9C568.7,63.5,568.7,63.9,568.5,64.2z"/>
					<path class="st46" d="M585.3,28.2c-2.9,17.3-27.5,29.4-35.4,30.6c4,5.3,10.5,7.9,17.1,7.8c3.5-0.1,6.9-1.1,10-2.6
						c6.1-3.1,11.9-9.3,12.9-16.2C591.5,37.5,587.8,30.4,585.3,28.2z"/>
					<path class="st47" d="M536.8,24.2c0,0,0.1,1.1,0.5,1.5s1.4,0.4,1.4,0.4s-0.9,0.1-1.4,0.4c-0.5,0.4-0.5,1.5-0.5,1.5
						s-0.1-1-0.5-1.5c-0.3-0.3-1.4-0.4-1.4-0.4s1.1-0.1,1.4-0.4C536.8,25.3,536.8,24.2,536.8,24.2z"/>
					<path class="st47" d="M603.7,47.2c0,0,0.1,1.1,0.5,1.5s1.4,0.4,1.4,0.4s-0.9,0.1-1.4,0.4c-0.5,0.4-0.5,1.5-0.5,1.5
						s-0.1-1-0.5-1.5c-0.3-0.3-1.4-0.4-1.4-0.4s1.1-0.1,1.4-0.4C603.7,48.2,603.7,47.2,603.7,47.2z"/>
					
						<linearGradient id="SVGID_73_" gradientUnits="userSpaceOnUse" x1="541.7733" y1="620.6402" x2="548.6925" y2="627.0204" gradientTransform="matrix(1 0 0 1 0 -550)">
						<stop  offset="0" style="stop-color:#F8EE67"/>
						<stop  offset="1" style="stop-color:#D14254"/>
					</linearGradient>
					<path class="st48" d="M549,73.8c0,2.1-1.7,3.8-3.8,3.8s-3.8-1.7-3.8-3.8c0-2.1,1.7-3.8,3.8-3.8S549,71.7,549,73.8z"/>
					
						<linearGradient id="SVGID_74_" gradientUnits="userSpaceOnUse" x1="496.6495" y1="790.3547" x2="500.6061" y2="794.003" gradientTransform="matrix(0.9811 -0.1934 0.1934 0.9811 -51.2244 -669.1107)">
						<stop  offset="0" style="stop-color:#F8EE67"/>
						<stop  offset="1" style="stop-color:#D14254"/>
					</linearGradient>
					<path class="st49" d="M593.3,11.2c0.2,1.2-0.5,2.3-1.7,2.6c-1.2,0.2-2.3-0.5-2.6-1.7c-0.2-1.2,0.5-2.3,1.7-2.6
						C591.9,9.3,593.1,10,593.3,11.2z"/>
					
						<linearGradient id="SVGID_75_" gradientUnits="userSpaceOnUse" x1="502.4453" y1="796.6445" x2="504.3391" y2="798.3907" gradientTransform="matrix(0.9811 -0.1934 0.1934 0.9811 -51.2244 -669.1107)">
						<stop  offset="0" style="stop-color:#F8EE67"/>
						<stop  offset="1" style="stop-color:#D14254"/>
					</linearGradient>
					<path class="st50" d="M597.9,15.8c0.1,0.6-0.3,1.1-0.8,1.2s-1.1-0.3-1.2-0.8c-0.1-0.6,0.3-1.1,0.8-1.2
						C597.2,14.9,597.8,15.2,597.9,15.8z"/>
					<path class="st51" d="M558.2,39.3c-2.2,6-6.7,9.9-10,8.7c-3.3-1.2-4.1-7.1-1.8-13.1c2.2-6,6.7-9.9,10-8.7
						C559.7,27.5,560.5,33.3,558.2,39.3z"/>
					<path class="st51" d="M554,51.2c0.9,0.9,2.9,0.3,4.5-1.4c1.5-1.6,2-3.7,1-4.5c-0.9-0.9-2.9-0.3-4.5,1.4
						C553.5,48.3,553.1,50.3,554,51.2z"/>
					<path class="st51" d="M558.9,25.2c0.6,1.1,2.7,1.2,4.7,0.2s3.1-2.8,2.5-3.9s-2.7-1.2-4.7-0.2C559.5,22.3,558.4,24.1,558.9,25.2
						z"/>
				</g>
			</g>
			<g>
				<g class="st52">
					
						<image style="overflow:visible;enable-background:new    ;" width="137" height="137" xlink:href="9E9EFC4109B4F5FB.png"  transform="matrix(1 0 0 1 188 123.8)">
					</image>
				</g>
				<g>
					
						<linearGradient id="SVGID_76_" gradientUnits="userSpaceOnUse" x1="229.01" y1="729.2425" x2="287.2426" y2="768.1954" gradientTransform="matrix(1 0 0 1 0 -550)">
						<stop  offset="0" style="stop-color:#6FC073"/>
						<stop  offset="1" style="stop-color:#2657A6"/>
					</linearGradient>
					<path class="st53" d="M281.9,202.6c-2.7,14-16.3,23.1-30.3,20.4c-0.8-0.2-1.6-0.3-2.3-0.6c-5.5-1.6-10.2-5-13.4-9.3
						c-2-2.6-3.4-5.7-4.3-8.9c-1-3.7-1.1-7.6-0.4-11.5c0.4-2.3,1.2-4.4,2.2-6.4c5-10.2,16.4-16.3,28.1-14c2.3,0.5,4.4,1.2,6.4,2.2
						c5.4,2.7,9.7,7.1,12.1,12.5C282.3,191.7,283,197.2,281.9,202.6z"/>
					<path class="st54" d="M243.3,180.2c0.5,0.1,1,0.4,1.5,0.5c0.6,0.2,1.2,0.3,1.8,0.4c0.4,0,0.8,0.1,1.2-0.1
						c0.7-0.3,1.1-1.1,1.6-1.6c0.9-1,2.3-1.4,3.6-1.6c1.3-0.2,2.7-0.2,4-0.7c0.6-0.2,1.2-0.6,1.4-1.2c0.1-0.2,0.1-0.5,0.2-0.7
						c0.3-0.9,2.7-1.5,2.2-2.4c-0.1-0.2-0.3-0.3-0.5-0.4c-1.2-0.6-2.6-0.7-3.9-0.7c-7.1-0.1-13.7,2-18,7.9c-0.3,0.4-0.6,0.9-0.7,1.5
						c-0.2,1.8,1.5,1.1,2.3,0.4c0.5-0.5,0.9-1,1.6-1.2C242.1,180,242.7,180.1,243.3,180.2z"/>
					
						<linearGradient id="SVGID_77_" gradientUnits="userSpaceOnUse" x1="242.7007" y1="729.3201" x2="293.0934" y2="753.7803" gradientTransform="matrix(1 0 0 1 0 -550)">
						<stop  offset="0" style="stop-color:#5A8A63"/>
						<stop  offset="1" style="stop-color:#2657A6"/>
					</linearGradient>
					<path class="st55" d="M280.5,195.6c-0.5,2.1-2.1,3.9-4.2,4.4c-0.5,0.1-1,0.2-1.4,0.5c-0.7,0.5-0.7,1.5-0.8,2.3
						c0,0.8-0.1,1.6,0.1,2.3c0.1,0.4,0.3,0.9,0.4,1.3c0.2,1.4-0.7,2.7-1.6,3.9c-0.2,0.2-0.4,0.5-0.6,0.5c-0.4,0.2-0.9-0.1-1.2-0.5
						c-0.2-0.4-0.3-0.9-0.4-1.4c-0.6-2.5-2.5-4.4-4.3-6.2c-0.4-0.4-0.9-0.9-1.5-0.9s-1.2,0.3-1.7,0s-0.5-1.1-0.5-1.7
						c-0.1-1.5-1.2-2.8-1.3-4.3c-0.1-1.6,1-3.2,2.4-4c1.4-0.9,3.1-1.1,4.7-1.4l3.3-0.6c0.5-0.1,1-0.2,1.4-0.5
						c0.3-0.3,0.5-0.7,0.5-1.1c0.4-3.4-5.9-3.3-7.3-1.4c-0.5,0.6-0.6,1.4-1,2.1c-0.3,0.7-1,1.3-1.8,1.2c-0.5-0.1-0.8-0.5-1.2-0.7
						c-1.1-0.7-1.6,0.4-2.7,0.5c-0.6,0.1-1.1-0.3-1.4-0.8s-0.3-1.1-0.1-1.7c0.1-0.6,0.4-1.1,0.4-1.7c0-0.6-0.3-1.3-0.9-1.3
						c-0.1,0.4-0.3,0.8-0.6,1c-0.4-0.4-1.1-0.2-1.5,0.2c-0.4,0.3-0.7,0.8-1.2,1.1s-1.2,0.4-1.5-0.1c-0.1-0.2-0.2-0.4-0.1-0.7
						c0.1-1.1,1.1-1.8,1.7-2.7c0.8-1.2,1.1-2.8,2.3-3.7c1.1-0.8,2.5-0.6,3.8-0.7c1.6-0.1,1.8-0.5,3-1.5c1.4-1.1,2.9-2.1,4.4-3
						c5.4,2.7,9.7,7.1,12.1,12.5c-0.2,0.6-0.4,1.2-0.7,1.7c-0.2,0.4-0.5,0.8-0.7,1.2c-0.2,0.7-0.2,1.4,0.2,2c0.4,0.6,1,1,1.4,1.6
						C280.6,194.2,280.6,194.9,280.5,195.6z"/>
					
						<linearGradient id="SVGID_78_" gradientUnits="userSpaceOnUse" x1="231.8875" y1="732.4449" x2="263.724" y2="752.6636" gradientTransform="matrix(1 0 0 1 0 -550)">
						<stop  offset="0" style="stop-color:#5A8A63"/>
						<stop  offset="1" style="stop-color:#2657A6"/>
					</linearGradient>
					<path class="st56" d="M245.1,185c0.1,0,0.2,0,0.3,0c0.6-0.1,1.1,0,1.7,0.1c0.4,0.1,0.8,0.3,0.9,0.6c0.1,0.5-0.4,0.8-0.7,1.2
						c-0.6,0.8-0.4,2.1-0.8,3c-0.6,1.2-1.9,1.3-2.7,2.1s-0.7,1.9-1.2,2.8c-0.6,0.9-1.3,1.1-1.9,0.2c-0.8-1.1-0.9-1.9-0.3-3.1
						c0.3-0.7,0.6-1.5,0.4-2.3c-0.2-0.7-0.8-1.3-1-2.1c-0.8-2.6,2-2.5,3.7-2.4C243.9,185.3,244.5,185.1,245.1,185z"/>
					
						<linearGradient id="SVGID_79_" gradientUnits="userSpaceOnUse" x1="224.7757" y1="738.6423" x2="265.3515" y2="764.4111" gradientTransform="matrix(1 0 0 1 0 -550)">
						<stop  offset="0" style="stop-color:#5A8A63"/>
						<stop  offset="1" style="stop-color:#2657A6"/>
					</linearGradient>
					<path class="st57" d="M241,207.3c-0.4-0.3-0.9-0.5-1.3-0.8c-0.5-0.3-1.1-0.6-1.7-0.8c-1.1-0.2-2.2,0.1-3.2,0
						c-0.6-0.1-1.2-0.4-1.8-0.7c-0.4-0.2-0.9-0.4-1.3-0.7c-1-3.7-1.1-7.6-0.4-11.5c0.4-2.3,1.2-4.4,2.2-6.4c0.3-0.1,0.6-0.2,0.9-0.3
						c0.8-0.3,1.8-0.8,2.7-0.7c1.8,0.2,0.7,2.1,0.3,3.2c-0.3,0.6-0.5,1.3-0.5,2c0.1,0.7,0.5,1.3,0.8,1.9c0.6,1.6,0,3.6,1,5
						c0.4,0.5,1,0.9,1.4,1.4s0.7,1.2,0.3,1.8c-0.5-0.7-1.6-0.9-2.4-0.5c-0.8,0.3-1.4,1-1.9,1.7c-0.3,0.5-0.5,1.2-0.2,1.6
						c0.1,0.2,0.3,0.3,0.5,0.4C238.1,204.7,239.7,205.9,241,207.3z"/>
					
						<linearGradient id="SVGID_80_" gradientUnits="userSpaceOnUse" x1="219.797" y1="746.4815" x2="260.373" y2="772.2505" gradientTransform="matrix(1 0 0 1 0 -550)">
						<stop  offset="0" style="stop-color:#5A8A63"/>
						<stop  offset="1" style="stop-color:#2657A6"/>
					</linearGradient>
					<path class="st58" d="M249.7,213.9c-0.2,1.3,0.4,2.6,0.2,3.9c-0.1,1.3-1,2.6-0.7,3.8c0,0.3,0.2,0.5,0.2,0.8
						c-5.5-1.6-10.2-5-13.4-9.3l0,0c0-0.8,0.3-1.5,0.1-2.3c-0.2-0.5-0.7-1-0.7-1.6c0-0.7,0.7-1.1,1.3-1.2c0.7,0,1.3,0.3,1.9,0.5
						c1.4,0.6,2.8,0.9,4.3,1.1c0.3,0,0.7,0.1,1,0c1-0.2,1.5-1.4,2.3-2.1c0.9-0.8,2.4-1,3.4-0.4c1.1,0.6,1.7,1.9,1.5,3.1
						C250.9,211.6,249.9,212.6,249.7,213.9z"/>
					
						<ellipse transform="matrix(0.2742 -0.9617 0.9617 0.2742 -11.1375 372.6976)" class="st59" cx="241.3" cy="193.7" rx="12" ry="8.2"/>
					<path class="st59" d="M250.8,208.2c-0.7,2.5-2.7,4.2-4.5,3.7c-1.7-0.5-2.6-3-1.8-5.5c0.7-2.5,2.7-4.2,4.5-3.7
						C250.7,203.2,251.5,205.6,250.8,208.2z"/>
				</g>
			</g>
		</g>
		<g>
			<g>
				
					<linearGradient id="SVGID_81_" gradientUnits="userSpaceOnUse" x1="420.9064" y1="1440.21" x2="427.5986" y2="1440.21" gradientTransform="matrix(0.2238 0.9747 0.9747 -0.2238 -1337.9731 60.6379)">
					<stop  offset="0" style="stop-color:#87519F"/>
					<stop  offset="0.9962" style="stop-color:#39276A"/>
				</linearGradient>
				<path class="st60" d="M161.5,155.1c1.8-0.4,2.9-2.2,2.5-4s-2.2-2.9-4-2.5s-2.9,2.2-2.5,4C157.9,154.4,159.7,155.5,161.5,155.1z"
					/>
				
					<linearGradient id="SVGID_82_" gradientUnits="userSpaceOnUse" x1="-1315.0537" y1="1738.6633" x2="-1308.3616" y2="1738.6633" gradientTransform="matrix(-0.8238 0.567 0.567 0.8238 -1898.4351 -524.5532)">
					<stop  offset="0" style="stop-color:#87519F"/>
					<stop  offset="0.9962" style="stop-color:#39276A"/>
				</linearGradient>
				<path class="st61" d="M165.2,165.9c1,1.5,3.1,1.9,4.7,0.9c1.5-1,1.9-3.1,0.9-4.7c-1-1.5-3.1-1.9-4.7-0.9
					C164.6,162.3,164.2,164.4,165.2,165.9z"/>
				
					<linearGradient id="SVGID_83_" gradientUnits="userSpaceOnUse" x1="-136.329" y1="1778.0399" x2="-126.9599" y2="1778.0399" gradientTransform="matrix(-0.1896 0.9819 0.9819 0.1896 -1615.0848 -58.6733)">
					<stop  offset="0" style="stop-color:#FFFFFF"/>
					<stop  offset="0.9962" style="stop-color:#A872B0"/>
				</linearGradient>
				<path class="st62" d="M162,148.3c0,0-8.5-7-11.3-3.2c-2.9,3.9,7.1,9.2,7.1,9.2s0.2-1.5,1.5-3.4C160.5,149.2,162,148.3,162,148.3
					z"/>
				
					<linearGradient id="SVGID_84_" gradientUnits="userSpaceOnUse" x1="421.411" y1="1443.3052" x2="428.5245" y2="1443.3052" gradientTransform="matrix(0.2238 0.9747 0.9747 -0.2238 -1337.9731 60.6379)">
					<stop  offset="0" style="stop-color:#FFFFFF"/>
					<stop  offset="0.9962" style="stop-color:#A872B0"/>
				</linearGradient>
				<path class="st63" d="M162.4,148.5c0,0,0.5,1.8,0.2,3.6c-0.4,2.4-1.2,3.3-1.2,3.3s5.4,0.6,6-2.1
					C168,150.4,162.4,148.5,162.4,148.5z"/>
				
					<linearGradient id="SVGID_85_" gradientUnits="userSpaceOnUse" x1="-2125.5459" y1="853.4349" x2="-2115.772" y2="796.5529" gradientTransform="matrix(-0.9807 -0.1953 -0.1953 0.9807 -1787.1357 -1077.9286)">
					<stop  offset="0" style="stop-color:#DBC0DC"/>
					<stop  offset="0.9962" style="stop-color:#8B64AA"/>
				</linearGradient>
				<path class="st64" d="M127.5,136.1c1.6-1,6.5,0.3,7.9,1.6c-0.9,3.5-2.5,11.4,0.1,19.7c0.6,2,1.6,3.9,2.7,5.5
					c-2.4,1.3-6.8,2.9-8.8,2.1c-1.8-0.7-4.8-8-5.1-14.9C124,143.3,124.8,137.7,127.5,136.1z"/>
				
					<linearGradient id="SVGID_86_" gradientUnits="userSpaceOnUse" x1="-2122.7366" y1="812.1727" x2="-2156.449" y2="855.3328" gradientTransform="matrix(-0.9807 -0.1953 -0.1953 0.9807 -1787.1357 -1077.9286)">
					<stop  offset="0" style="stop-color:#FFFFFF"/>
					<stop  offset="0.9962" style="stop-color:#A872B0"/>
				</linearGradient>
				<path class="st65" d="M135.4,137.7c0.3-1.2,0.6-1.9,0.6-1.9l17.1,7.2c0,0-1.7,5.4,1.6,10.6c2.7,4.2,6.5,3.8,7.3,5.5
					c2.3,5.2-10.8,10.5-15.6,10.2c-2.2-0.2-5.6-2.7-8.1-6.4c-1.1-1.7-2.1-3.5-2.7-5.5C132.9,149.1,134.5,141.1,135.4,137.7z"/>
				
					<linearGradient id="SVGID_87_" gradientUnits="userSpaceOnUse" x1="-2145.3728" y1="803.085" x2="-2115.1472" y2="823.2354" gradientTransform="matrix(-0.9807 -0.1953 -0.1953 0.9807 -1787.1357 -1077.9286)">
					<stop  offset="0" style="stop-color:#FFFFFF"/>
					<stop  offset="0.9962" style="stop-color:#A872B0"/>
				</linearGradient>
				<path class="st66" d="M136.3,130.9c0.1-0.2,0.1-0.5,0.2-0.7c0-0.1,0.1-0.2,0.1-0.3c0.1-0.2,0.2-0.5,0.3-0.7l0,0
					c0.1-0.3,0.3-0.5,0.4-0.8c0.1-0.2,0.3-0.5,0.5-0.7c0.4-0.5,0.8-1,1.3-1.5c0.2-0.2,0.4-0.4,0.6-0.5c0.2-0.2,0.4-0.3,0.6-0.5
					c0,0,0.1,0,0.1-0.1c0.2-0.2,0.5-0.3,0.7-0.5c0,0,0,0,0.1,0c0.2-0.1,0.5-0.3,0.7-0.4s0.5-0.2,0.7-0.3c0.1,0,0.1-0.1,0.2-0.1
					c0.5-0.2,1.1-0.4,1.6-0.5c0.3-0.1,0.6-0.1,0.9-0.2c0.2,0,0.5,0,0.7-0.1c0.1,0,0.1,0,0.2,0l0,0c0.9-0.1,1.8,0,2.8,0.2
					c2.3,0.5,4.3,1.6,5.8,3.2c0,0-0.7,15.9-0.8,16l0,0c-0.1,0-0.1,0.1-0.1,0.1c-0.1,0.1-0.3,0.2-0.4,0.3c-0.1,0.1-0.3,0.2-0.4,0.3
					c-0.1,0.1-0.3,0.2-0.4,0.3c-0.1,0.1-0.3,0.2-0.4,0.3c-0.1,0.1-0.3,0.2-0.4,0.2c-0.1,0.1-0.3,0.1-0.4,0.2
					c-0.2,0.1-0.3,0.1-0.5,0.2c-0.2,0.1-0.3,0.1-0.5,0.2c-0.3,0.1-0.7,0.2-1,0.3c-0.2,0-0.3,0.1-0.5,0.1s-0.3,0.1-0.5,0.1
					c-0.3,0-0.6,0.1-0.9,0.1c-0.4,0-0.8,0-1.2,0c-0.2,0-0.4,0-0.5,0c-0.4,0-0.7-0.1-1.1-0.2c-6-1.2-9.8-7-8.7-12.9
					C136.1,131.5,136.2,131.2,136.3,130.9z"/>
				
					<linearGradient id="SVGID_88_" gradientUnits="userSpaceOnUse" x1="-2143.9951" y1="804.6273" x2="-2128.4304" y2="817.2015" gradientTransform="matrix(-0.9807 -0.1953 -0.1953 0.9807 -1787.1357 -1077.9286)">
					<stop  offset="0" style="stop-color:#87519F"/>
					<stop  offset="0.9962" style="stop-color:#39276A"/>
				</linearGradient>
				<path class="st67" d="M140.9,135.7c0.4,3,1.5,4.9,2.1,5.3c1,0.6,2.4,1.2,7.3,1.5c1.5,0.1,2.8,0,3.7-0.1l0,0
					c0.1-0.1,0.1-0.1,0.2-0.2c0.1-0.1,0.2-0.2,0.4-0.3c0.8-0.8,1.6-1.8,2.1-2.9c0.2-0.3,0.3-0.7,0.4-1c0.1-0.2,0.2-0.5,0.2-0.8
					c0-0.1,0-0.1,0.1-0.2l0,0c0.1-0.3,0.2-0.5,0.2-0.8c0.7-3.7-0.4-7.3-2.8-9.8c-1.2-0.2-3-0.4-5.6-0.2c-3.1,0.2-5.7,1.1-6.9,1.9
					c-0.4,0.2-0.6,0.4-0.8,0.6C140.9,129.5,140.4,131.8,140.9,135.7z"/>
				
					<linearGradient id="SVGID_89_" gradientUnits="userSpaceOnUse" x1="-2152.364" y1="788.9904" x2="-2128.478" y2="816.4724" gradientTransform="matrix(-0.9807 -0.1953 -0.1953 0.9807 -1787.1357 -1077.9286)">
					<stop  offset="0" style="stop-color:#AC529E"/>
					<stop  offset="0.9962" style="stop-color:#39276A"/>
				</linearGradient>
				<path class="st68" d="M136,131.8c-1.2,6,2.7,11.8,8.7,12.9c0.4,0.1,0.7,0.1,1.1,0.2c0.2,0,0.3,0,0.5,0c0.4,0,0.8,0,1.2,0
					c0.3,0,0.6,0,0.9-0.1c0.2,0,0.3-0.1,0.5-0.1c0.1,0,0.3-0.1,0.5-0.1c0.3-0.1,0.7-0.2,1-0.3c0.2-0.1,0.3-0.1,0.5-0.2
					c0.2-0.1,0.3-0.1,0.5-0.2c0.1-0.1,0.3-0.1,0.4-0.2c0.2-0.1,0.3-0.1,0.4-0.2c0.1-0.1,0.3-0.2,0.4-0.3c0.1-0.1,0.3-0.2,0.4-0.3
					c0.1-0.1,0.3-0.2,0.4-0.3c0.1-0.1,0.3-0.2,0.4-0.3l0.1-0.1l0,0c0.1-0.1,0.1-0.1,0.2-0.2c0.1-0.1,0.2-0.2,0.4-0.3
					c0.8-0.8,1.5-1.8,2.1-2.9c0.3-0.6,0.6-1.3,0.7-2c-1.8,2.4-4.8,3.9-8.6,3.1c-6.3-1.3-8.1-7.1-6.6-11.9c0.7-2.1,2-4,4-5.1
					c-0.6,0-1.2,0.1-1.8,0.3c-0.6,0.1-1.1,0.3-1.6,0.5c-0.1,0-0.1,0.1-0.2,0.1c-0.2,0.1-0.5,0.2-0.7,0.3c-0.2,0.1-0.5,0.3-0.7,0.4
					c0,0,0,0-0.1,0c-0.3,0.2-0.5,0.3-0.7,0.5c0,0,0,0-0.1,0.1c-0.2,0.2-0.4,0.3-0.6,0.5c-0.2,0.2-0.4,0.4-0.6,0.5
					c-0.5,0.5-0.9,1-1.3,1.5c-0.2,0.2-0.3,0.5-0.5,0.7c-0.2,0.3-0.3,0.5-0.4,0.8l0,0c-0.1,0.2-0.2,0.5-0.3,0.7
					c0,0.1-0.1,0.2-0.1,0.3c-0.1,0.2-0.2,0.5-0.2,0.7C136.2,131.2,136.1,131.5,136,131.8z"/>
				<path class="st69" d="M153.2,131.3c0.5,1.8,1.7,3,2.6,2.7c0.9-0.3,1.2-1.9,0.6-3.7c-0.5-1.8-1.7-3-2.6-2.7
					C153,127.9,152.7,129.5,153.2,131.3z"/>
				<path class="st69" d="M150.9,127.8c0.3,0.4,0.8,0.7,1,0.5c0.3-0.2,0.3-0.7,0-1.1s-0.8-0.7-1-0.5
					C150.6,126.8,150.6,127.3,150.9,127.8z"/>
				<path class="st69" d="M152.9,136c-0.1,0.9,0.1,1.7,0.6,1.8s1-0.6,1.1-1.5s-0.1-1.7-0.6-1.8C153.6,134.4,153.1,135.1,152.9,136z"
					/>
				
					<linearGradient id="SVGID_90_" gradientUnits="userSpaceOnUse" x1="-2201.0901" y1="522.1257" x2="-2194.3667" y2="522.1257" gradientTransform="matrix(-0.9214 -0.3886 -0.3886 0.9214 -1689.7715 -1182.6165)">
					<stop  offset="0" style="stop-color:#87519F"/>
					<stop  offset="0.9962" style="stop-color:#39276A"/>
				</linearGradient>
				<path class="st70" d="M129.2,151.2c-0.7,1.7,0.1,3.7,1.8,4.4s3.7-0.1,4.4-1.8s-0.1-3.7-1.8-4.4S129.9,149.5,129.2,151.2z"/>
				
					<linearGradient id="SVGID_91_" gradientUnits="userSpaceOnUse" x1="-2129.2522" y1="826.5872" x2="-2119.8877" y2="826.5872" gradientTransform="matrix(-0.9807 -0.1953 -0.1953 0.9807 -1787.1357 -1077.9286)">
					<stop  offset="0" style="stop-color:#FFFFFF"/>
					<stop  offset="0.9962" style="stop-color:#A872B0"/>
				</linearGradient>
				<path class="st71" d="M135.8,153.9c0,0,7.1-8.5,3.2-11.3c-3.8-2.9-9.2,7.1-9.2,7.1s1.5,0.2,3.4,1.6
					C134.9,152.4,135.8,153.9,135.8,153.9z"/>
				
					<linearGradient id="SVGID_92_" gradientUnits="userSpaceOnUse" x1="-2192.0173" y1="583.3298" x2="-2184.8694" y2="583.3298" gradientTransform="matrix(-0.9353 -0.3539 -0.3539 0.9353 -1709.8956 -1164.9027)">
					<stop  offset="0" style="stop-color:#FFFFFF"/>
					<stop  offset="0.9962" style="stop-color:#A872B0"/>
				</linearGradient>
				<path class="st72" d="M134.1,155.8c0,0-1.8-0.6-3.1-1.9c-1.8-1.7-2.1-2.8-2.1-2.8s-3.5,4.2-1.6,6.1
					C129.5,159.4,134.1,155.8,134.1,155.8z"/>
				
					<linearGradient id="SVGID_93_" gradientUnits="userSpaceOnUse" x1="-1258.1426" y1="1758.579" x2="-1252.7889" y2="1757.6868" gradientTransform="matrix(-0.8114 0.5845 0.5845 0.8114 -1921.8481 -535.0544)">
					<stop  offset="0" style="stop-color:#FFFFFF"/>
					<stop  offset="0.9962" style="stop-color:#A872B0"/>
				</linearGradient>
				<path class="st73" d="M126.3,156.2c0,0-0.6,0.5-1.5,0.4s-1.6-1.2-2.1-0.8s-1.4,1.6-1,2.2c0.7,1.2,2.2,1.1,2.2,1.1s-1,0.2-1,0.9
					c0.1,0.7,1.7,0.6,3.1-0.4s1.7-1.7,1.7-1.7L126.3,156.2z"/>
				
					<linearGradient id="SVGID_94_" gradientUnits="userSpaceOnUse" x1="-1258.6934" y1="1757.4875" x2="-1257.1471" y2="1761.2769" gradientTransform="matrix(-0.8114 0.5845 0.5845 0.8114 -1921.8481 -535.0544)">
					<stop  offset="0" style="stop-color:#87519F"/>
					<stop  offset="0.9962" style="stop-color:#39276A"/>
				</linearGradient>
				<path class="st74" d="M127.3,158.3c0.2,0.3,0.5,0.3,0.8,0.1l0,0c0.3-0.2,0.3-0.5,0.1-0.8l-1.2-1.7c-0.2-0.3-0.5-0.3-0.8-0.1l0,0
					c-0.3,0.2-0.3,0.5-0.1,0.8L127.3,158.3z"/>
				
					<linearGradient id="SVGID_95_" gradientUnits="userSpaceOnUse" x1="-2163.1909" y1="822.4639" x2="-2157.3909" y2="827.6747" gradientTransform="matrix(-0.9807 -0.1953 -0.1953 0.9807 -1787.1357 -1077.9286)">
					<stop  offset="0" style="stop-color:#FFFFFF"/>
					<stop  offset="0.9962" style="stop-color:#A872B0"/>
				</linearGradient>
				<path class="st75" d="M167.9,152.1c0,0,0.8,0.2,1.6-0.3c0.7-0.5,1-1.8,1.6-1.7s1.9,0.8,1.8,1.5c-0.1,1.3-1.5,1.9-1.5,1.9
					s1-0.2,1.3,0.4c0.3,0.7-1.3,1.3-3,1s-2.3-0.8-2.3-0.8L167.9,152.1z"/>
				
					<linearGradient id="SVGID_96_" gradientUnits="userSpaceOnUse" x1="866.5529" y1="823.2565" x2="868.0991" y2="827.0457" gradientTransform="matrix(0.9839 0.179 -0.179 0.9839 -538.1252 -813.7024)">
					<stop  offset="0" style="stop-color:#87519F"/>
					<stop  offset="0.9962" style="stop-color:#39276A"/>
				</linearGradient>
				<path class="st76" d="M167.9,154.4c-0.1,0.3-0.3,0.5-0.7,0.5l0,0c-0.3-0.1-0.5-0.3-0.5-0.7l0.4-2.1c0.1-0.3,0.3-0.5,0.7-0.5l0,0
					c0.3,0.1,0.5,0.3,0.5,0.7L167.9,154.4z"/>
				
					<linearGradient id="SVGID_97_" gradientUnits="userSpaceOnUse" x1="-2155.4858" y1="831.0287" x2="-2151.4758" y2="840.0685" gradientTransform="matrix(-0.9807 -0.1953 -0.1953 0.9807 -1787.1357 -1077.9286)">
					<stop  offset="0" style="stop-color:#FFFFFF"/>
					<stop  offset="0.9962" style="stop-color:#A872B0"/>
				</linearGradient>
				<path class="st77" d="M155.7,159.3c1.4-3.5,12.5,0.9,12.5,0.9s0.6,1.4-0.4,3.8c-0.9,2.4-2.2,3.1-2.2,3.1
					S154.3,162.7,155.7,159.3z"/>
				
					<linearGradient id="SVGID_98_" gradientUnits="userSpaceOnUse" x1="-2217.5723" y1="650.2258" x2="-2215.8943" y2="660.7977" gradientTransform="matrix(-0.9503 -0.3114 -0.3114 0.9503 -1731.0367 -1146.9282)">
					<stop  offset="0" style="stop-color:#FFFFFF"/>
					<stop  offset="0.9962" style="stop-color:#A872B0"/>
				</linearGradient>
				<path class="st78" d="M174.9,165.9c0.8-3.2-4.2-4.8-4.2-4.8s0.5,1.4-0.1,3.8c-0.6,2.4-1.9,3.2-1.9,3.2S174,169.1,174.9,165.9z"
					/>
				
					<linearGradient id="SVGID_99_" gradientUnits="userSpaceOnUse" x1="-290.8079" y1="1836.5605" x2="-284.5377" y2="1836.5605" gradientTransform="matrix(-0.2799 0.96 0.96 0.2799 -1666.6471 -72.9366)">
					<stop  offset="0" style="stop-color:#FFFFFF"/>
					<stop  offset="0.9962" style="stop-color:#A872B0"/>
				</linearGradient>
				<path class="st79" d="M175.1,164.9h0.6c0,0,0.7-1.2,1.9-1.8c1.1-0.5,2-0.6,2-0.6l-1.4,4.7c-0.2,0.7-1,1.1-1.7,0.9l-1.5-0.4
					l-0.6-0.5L175.1,164.9z"/>
				
					<linearGradient id="SVGID_100_" gradientUnits="userSpaceOnUse" x1="-287.6728" y1="1834.8665" x2="-284.2574" y2="1834.8665" gradientTransform="matrix(-0.2799 0.96 0.96 0.2799 -1666.6471 -72.9366)">
					<stop  offset="0" style="stop-color:#87519F"/>
					<stop  offset="0.9962" style="stop-color:#39276A"/>
				</linearGradient>
				<path class="st80" d="M174.4,167.7c0.3,0.1,0.6-0.1,0.7-0.4l0.7-2.3c0.1-0.3-0.1-0.6-0.4-0.7l0,0c-0.3-0.1-0.6,0.1-0.7,0.4
					L174,167C174,167.4,174.2,167.7,174.4,167.7L174.4,167.7z"/>
				
					<linearGradient id="SVGID_101_" gradientUnits="userSpaceOnUse" x1="-514.2483" y1="-1286.6848" x2="-507.5562" y2="-1286.6848" gradientTransform="matrix(-0.4328 0.9015 -0.9015 -0.4328 -1229.5171 78.4561)">
					<stop  offset="0" style="stop-color:#87519F"/>
					<stop  offset="0.9962" style="stop-color:#39276A"/>
				</linearGradient>
				<path class="st81" d="M150.1,177.8c-1.7-0.8-2.4-2.8-1.6-4.5c0.8-1.7,2.8-2.4,4.5-1.6s2.4,2.8,1.6,4.5S151.8,178.6,150.1,177.8z
					"/>
				
					<linearGradient id="SVGID_102_" gradientUnits="userSpaceOnUse" x1="-2146.3918" y1="842.1388" x2="-2135.3428" y2="849.2929" gradientTransform="matrix(-0.9807 -0.1953 -0.1953 0.9807 -1787.1357 -1077.9286)">
					<stop  offset="0" style="stop-color:#FFFFFF"/>
					<stop  offset="0.9962" style="stop-color:#A872B0"/>
				</linearGradient>
				<path class="st82" d="M144.8,163.6c-3.2,2,3.2,12.1,3.2,12.1s1.4,0.3,3.6-1c2.2-1.3,2.6-2.7,2.6-2.7S147.9,161.7,144.8,163.6z"
					/>
				
					<linearGradient id="SVGID_103_" gradientUnits="userSpaceOnUse" x1="-2153.1108" y1="849.778" x2="-2141.761" y2="858.5309" gradientTransform="matrix(-0.9807 -0.1953 -0.1953 0.9807 -1787.1357 -1077.9286)">
					<stop  offset="0" style="stop-color:#FFFFFF"/>
					<stop  offset="0.9962" style="stop-color:#A872B0"/>
				</linearGradient>
				<path class="st83" d="M155.7,180.6c-2.7,1.9-5.9-2.3-5.9-2.3s1.5,0,3.5-1.4s2.4-2.9,2.4-2.9S158.4,178.7,155.7,180.6z"/>
				
					<linearGradient id="SVGID_104_" gradientUnits="userSpaceOnUse" x1="-2156.376" y1="854.2372" x2="-2147.8799" y2="859.6747" gradientTransform="matrix(-0.9807 -0.1953 -0.1953 0.9807 -1787.1357 -1077.9286)">
					<stop  offset="0" style="stop-color:#FFFFFF"/>
					<stop  offset="0.9962" style="stop-color:#A872B0"/>
				</linearGradient>
				<path class="st84" d="M154.8,181.2l0.2,0.6c0,0-0.9,1.1-1,2.4c-0.1,1.3,0.1,2.1,0.1,2.1l3.9-2.9c0.6-0.4,0.7-1.3,0.3-1.9
					l-0.9-1.3l-0.6-0.4L154.8,181.2z"/>
				
					<linearGradient id="SVGID_105_" gradientUnits="userSpaceOnUse" x1="-2153.7693" y1="852.5545" x2="-2148.7397" y2="857.7201" gradientTransform="matrix(-0.9807 -0.1953 -0.1953 0.9807 -1787.1357 -1077.9286)">
					<stop  offset="0" style="stop-color:#87519F"/>
					<stop  offset="0.9962" style="stop-color:#39276A"/>
				</linearGradient>
				<path class="st85" d="M157.3,179.6c0.2,0.2,0.1,0.6-0.1,0.7l-1.9,1.4c-0.2,0.2-0.6,0.1-0.7-0.1l0,0c-0.2-0.2-0.1-0.6,0.1-0.7
					l1.9-1.4C156.8,179.3,157.1,179.3,157.3,179.6L157.3,179.6z"/>
				
					<linearGradient id="SVGID_106_" gradientUnits="userSpaceOnUse" x1="-2140.3823" y1="821.7335" x2="-2136.2991" y2="839.2233" gradientTransform="matrix(-0.9807 -0.1953 -0.1953 0.9807 -1787.1357 -1077.9286)">
					<stop  offset="0" style="stop-color:#87519F"/>
					<stop  offset="0.9962" style="stop-color:#39276A"/>
				</linearGradient>
				<path class="st86" d="M151.6,147.1c0.4,0.4,0.3,1.9,1.2,4.3c0.7,2,2.1,3.3,2,3.6s-1.2,1.2-2.9,2.1c-2.1,1-4.8,1.5-5.4,1.2
					c-0.6-0.2-2.4-2.4-3-4.6c-0.7-2.7-0.5-6.2,0-6.5s2,0.2,4.6,0.1C150.5,147.3,151.3,146.9,151.6,147.1z"/>
				
					<linearGradient id="SVGID_107_" gradientUnits="userSpaceOnUse" x1="-1787.03" y1="1392.9884" x2="-1786.962" y2="1387.5509" gradientTransform="matrix(-0.9772 0.2124 0.2124 0.9772 -1912.1205 -817.853)">
					<stop  offset="0" style="stop-color:#87519F"/>
					<stop  offset="0.9962" style="stop-color:#39276A"/>
				</linearGradient>
				<path class="st87" d="M128.4,160.6c0.1,0.7,0.7,1.1,1.1,1c0.5-0.1,0.8-0.7,0.6-1.4c-0.1-0.7-0.7-1.1-1.1-1
					C128.5,159.3,128.3,160,128.4,160.6z"/>
				<path class="st54" d="M144.1,149.8c0.1,0.7,0.7,1.1,1.1,1c0.5-0.1,0.8-0.7,0.6-1.4c-0.1-0.7-0.7-1.1-1.1-1
					C144.2,148.5,144,149.1,144.1,149.8z"/>
				<g>
					<path class="st54" d="M144.9,150.3c-6.4,2.5-3.2,12.8-4.4,18c-0.8,3.5-4.7,6.2-8.3,5.8c-6.9-0.9-10.3-10.7-3.3-14.1
						c0.6-0.3,1,0.7,0.4,1c-3.9,1.8-3.9,6-1.7,9.2c2.7,4,8.8,3.1,11.3-1.2c2.5-4.5-2.6-16.6,5.7-19.8
						C145.2,149,145.5,150,144.9,150.3L144.9,150.3z"/>
				</g>
			</g>
		</g>
		<g>
			
				<linearGradient id="SVGID_108_" gradientUnits="userSpaceOnUse" x1="58.9688" y1="559.4354" x2="172.329" y2="674.0621" gradientTransform="matrix(1 0 0 1 0 -550)">
				<stop  offset="0" style="stop-color:#F073A4"/>
				<stop  offset="0.9962" style="stop-color:#DF1E44"/>
			</linearGradient>
			<path class="st88" d="M167.7,65c0,29.7-24.1,53.8-53.8,53.8c-4.4,0-8.8-0.5-12.9-1.6c-10.8-2.6-20.3-8.5-27.4-16.6
				c-1.3-1.5-2.6-3.1-3.7-4.7c-0.4-0.6-0.9-1.2-1.3-1.9c-0.2-0.4-0.5-0.7-0.7-1.1c-0.4-0.7-0.9-1.5-1.3-2.2
				c-1.5-2.8-2.9-5.8-3.9-8.9c-1.4-4.1-2.2-8.5-2.6-13c-0.1-1.3-0.2-2.6-0.2-4c0-29.4,23.5-53.2,52.8-53.8c0.3,0,0.7,0,1,0
				c0.5,0,1,0,1.5,0c4.8,0.1,9.5,0.9,13.9,2.2c1,0.3,2,0.6,3,1C152.9,21.9,167.7,41.7,167.7,65z"/>
			
				<linearGradient id="SVGID_109_" gradientUnits="userSpaceOnUse" x1="88.8642" y1="670.1513" x2="152.6303" y2="585.8215" gradientTransform="matrix(1 0 0 1 0 -550)">
				<stop  offset="0" style="stop-color:#A23257"/>
				<stop  offset="0.9962" style="stop-color:#BC1F4F"/>
			</linearGradient>
			<path class="st89" d="M101,117.2c-10.8-2.6-20.3-8.5-27.4-16.6c6.6,2.4,13.8,3.6,21.3,3.1c29.8-1.6,52.7-27.1,51.2-56.9
				c-0.1-1.5-0.2-3-0.5-4.5c1.8,5.1,3,10.5,3.3,16.2C150.4,87.8,129.4,113,101,117.2z"/>
			
				<linearGradient id="SVGID_110_" gradientUnits="userSpaceOnUse" x1="131.524" y1="532.1215" x2="55.8512" y2="634.5836" gradientTransform="matrix(1 0 0 1 0 -550)">
				<stop  offset="0" style="stop-color:#ED3C7E"/>
				<stop  offset="0.9962" style="stop-color:#B11F5A"/>
			</linearGradient>
			<path class="st90" d="M91.6,61.2C84.8,71.3,73,78.5,68,80.5c-1.7,0.7-3.5,1.3-5.3,1.4c-1.4-4.1-2.2-8.5-2.6-13
				c0.2,0.1,0.4,0.2,0.7,0.2c9.4,1.4,29.7-15.1,34.8-34c1-3.4,0.1-6.2-1.5-7.7c-1.2-1.1-2.8-1.8-4.3-1.7c-8,0.3-13.6,9.5-15.6,16.1
				c-0.5,1.7-0.9,3.5-0.7,5.3c0.3,1.7,1.4,3.5,3,4.1c1.1,0.4,2.5,0.1,3.3-0.7c-1.6,2.2-4.7,3.3-7.3,2.4c-0.7-0.2-1.4-0.6-1.8-1.2
				c-0.9-0.9-1.1-2.2-1.2-3.5c-0.3-5.9,3-11.4,6.6-16.1c3.8-4.9,8.1-7.9,13.5-9.8c2.8-1,6.1-1.2,8.7,0.3c2.1,1.2,3.5,3.5,4,5.9
				C102.8,30.9,103.6,43.5,91.6,61.2z"/>
			
				<linearGradient id="SVGID_111_" gradientUnits="userSpaceOnUse" x1="150.077" y1="548.4638" x2="73.6713" y2="653.1681" gradientTransform="matrix(1 0 0 1 0 -550)">
				<stop  offset="0" style="stop-color:#DD3764"/>
				<stop  offset="0.9962" style="stop-color:#B11F5A"/>
			</linearGradient>
			<path class="st91" d="M135.2,33.5c0,34.5-28,62.5-62.5,62.5c-1,0-1.9,0-2.9-0.1c-0.7-1-1.4-1.9-2-3c29.3-4,51.8-29.1,51.8-59.5
				c0-7.9-1.5-15.4-4.3-22.3c5.9,0.1,11.6,1.2,16.8,3.2C134.2,20.4,135.2,26.9,135.2,33.5z"/>
			<path class="st92" d="M76,55.6c-13.1-2.3-10.3,17.1-8.4,24.3c2,7.5,6,14.4,11.8,19.6c2.1,1.9,4.5,3.5,7.2,4.3s5.8,0.6,8.1-1.1
				c3.7-2.7,4.2-7.9,3.7-12.4c-1.1-10.8-6-21.2-13.5-29C82.4,58.6,79.5,56.2,76,55.6z"/>
			<path class="st93" d="M90.7,60.7c1.4,2.6,3.9,5.1,6.9,5.1c2.2,0,4.3-1.4,5.5-3.3c1.2-1.8,1.8-4.1,2.2-6.3
				c1.1-6.2,0.8-12.8-2.1-18.4c-1.7-3.2-5.2-7.2-9.1-5.6c-3.1,1.2-5.6,5.4-5.9,8.6C87.5,47.6,87.5,54.7,90.7,60.7z"/>
			<path class="st94" d="M134.7,20c9.4,3.3,19.7,15.3,23.1,20.6c7.6,11.9,9,27.7,4.3,41c-7,20.1-24.7,32.9-45.8,34.3
				c-4.7,0.3-9.5,0.1-14.1-0.8c-3.8-0.7-10.7-1.7-13.3-4.7c8.4,1.8,17.4,0.1,24.7-4.5c1.9-1.2,3.7-2.7,4.7-4.7
				c1.6-3.2,0.8-7.1-1-10.1c-1.7-3.1-4.3-5.6-6.5-8.4s-4.1-6-4.1-9.6c0-0.8,0.1-1.5,0.4-2.3c0.4-1,1.1-1.8,1.9-2.4
				c2.2-1.7,5-2.2,7.7-2s5.3,1.2,7.8,2.2c6.1,2.6,11.7,6.2,17.9,8.6c2.7,1,5.9,1.8,8.3,0.2c2.1-1.3,2.9-4,2.9-6.4
				c0-9.1-7.8-17.8-15.1-22.3c-4.5-2.8-9.3-5.1-13.7-8.1c-2.5-1.8-11.6-8.1-8.6-12c0.6-0.8,1.5-1.1,2.4-1.3
				c5.3-1.1,10.5,1.6,15.5,3.3c1.4,0.5,3.4,0.8,4.2-0.6c0.2-0.4,0.3-1,0.2-1.5C138.5,25.5,136.6,22.6,134.7,20z"/>
			<path class="st94" d="M143.3,64.7c0.9-2.7-2.5-7.6-4.8-9.7c-2.3-2.1-8.2-6.5-11.5-5.4c-5.5,1.9-1.7,8.3,0.9,10.7
				c2.7,2.6,7.5,6.1,11.6,6.2C141.8,66.6,142.9,65.9,143.3,64.7z"/>
		</g>
	</g>
</g>
</svg>
