<?xml version="1.0" encoding="utf-8"?>
<!-- Generator: Adobe Illustrator 23.0.4, SVG Export Plug-In . SVG Version: 6.00 Build 0)  -->
<svg version="1.1" id="Layer_1" xmlns="http://www.w3.org/2000/svg" xmlns:xlink="http://www.w3.org/1999/xlink" x="0px" y="0px"
	 viewBox="0 0 197.7 158.5" style="enable-background:new 0 0 197.7 158.5;" xml:space="preserve">
<style type="text/css">
	.st0{fill:url(#SVGID_1_);}
	.st1{fill:url(#SVGID_2_);}
	.st2{fill:url(#SVGID_3_);}
	.st3{fill:url(#SVGID_4_);}
	.st4{fill:url(#SVGID_5_);}
	.st5{fill:url(#SVGID_6_);}
	.st6{fill:url(#SVGID_7_);}
	.st7{fill:url(#SVGID_8_);}
</style>
<g>
	<linearGradient id="SVGID_1_" gradientUnits="userSpaceOnUse" x1="9.1556" y1="-10.852" x2="153.3956" y2="215.4757">
		<stop  offset="4.625822e-03" style="stop-color:#535FA9"/>
		<stop  offset="1" style="stop-color:#322E7C"/>
	</linearGradient>
	<path class="st0" d="M66.6,22.5c0,8.7-4,16.9-29.5,36.9l25.6-0.2l-2.8,10.2H21l1.3-9.6C49,36,53.2,31.1,53.2,23.6
		c0-4.7-2.9-7.2-7.3-7.2c-4.6,0-8.1,2.2-12.4,6.5l-7.3-6.8c6.1-6.3,13-9.8,21.7-9.8C60,6.3,66.6,13.3,66.6,22.5z"/>
	<linearGradient id="SVGID_2_" gradientUnits="userSpaceOnUse" x1="42.411" y1="-32.0459" x2="186.6509" y2="194.2819">
		<stop  offset="4.625822e-03" style="stop-color:#535FA9"/>
		<stop  offset="1" style="stop-color:#322E7C"/>
	</linearGradient>
	<path class="st1" d="M115.9,34.4l-4.9,35H98.2l4.6-32.6c0.7-5.4-0.9-6.8-3.4-6.8c-4.3,0-8.3,5.1-11.8,12l-3.9,27.4H70.8l6.8-48.7
		h11.1l-0.4,8.8c4.2-6.2,10-10.3,16.6-10.3C112.9,19.3,117.3,24.9,115.9,34.4z"/>
	<linearGradient id="SVGID_3_" gradientUnits="userSpaceOnUse" x1="89.5027" y1="-62.0577" x2="233.7427" y2="164.27">
		<stop  offset="4.625822e-03" style="stop-color:#535FA9"/>
		<stop  offset="1" style="stop-color:#322E7C"/>
	</linearGradient>
	<path class="st2" d="M173.9,1.4l-9.6,68.1h-11.4l0.1-7.2c-3.2,4.8-8,8.6-14.5,8.6c-10.2,0-15.3-7.5-15.3-19.6
		c0-13.1,6.5-32.1,23.1-32.1c5.1,0,8.9,2.1,11.5,5.1L161.2,0L173.9,1.4z M136.6,51.6c0,7.2,2.4,9.6,6,9.6c4.6,0,8.1-4.2,11.4-9.5
		l2.7-18.7c-1.9-2.6-4.2-4-7.5-4C139.3,28.9,136.6,43.1,136.6,51.6z"/>
	<linearGradient id="SVGID_4_" gradientUnits="userSpaceOnUse" x1="-43.4692" y1="22.6861" x2="100.7707" y2="249.0138">
		<stop  offset="4.625822e-03" style="stop-color:#535FA9"/>
		<stop  offset="1" style="stop-color:#322E7C"/>
	</linearGradient>
	<path class="st3" d="M51.5,111c0,11.6-7.3,24.3-27.9,24.3h-7.2l-3,21.7H0l8.9-63.6h19.3C42.7,93.5,51.5,99.2,51.5,111z M37.6,111.5
		c0-5.8-3.8-8.3-10.6-8.3h-6.2l-3,22.2h5.8C34.9,125.4,37.6,117.7,37.6,111.5z"/>
	<linearGradient id="SVGID_5_" gradientUnits="userSpaceOnUse" x1="-12.4895" y1="2.9425" x2="131.7504" y2="229.2702">
		<stop  offset="4.625822e-03" style="stop-color:#535FA9"/>
		<stop  offset="1" style="stop-color:#322E7C"/>
	</linearGradient>
	<path class="st4" d="M88.2,107.7l-3.7,12.7c-1.5-0.5-2.6-0.6-4.1-0.6c-6.1,0-9.6,5.8-12.4,14L64.7,157H51.8l6.8-48.7h11.1l-0.3,9.3
		c3.5-7.1,8.5-10.7,13.9-10.7C85.1,107,86.7,107.2,88.2,107.7z"/>
	<linearGradient id="SVGID_6_" gradientUnits="userSpaceOnUse" x1="12.9308" y1="-13.2579" x2="157.1707" y2="213.0698">
		<stop  offset="4.625822e-03" style="stop-color:#535FA9"/>
		<stop  offset="1" style="stop-color:#322E7C"/>
	</linearGradient>
	<path class="st5" d="M100.5,157H87.6l6.8-48.7h12.9L100.5,157z M95.5,91.7c0-4.9,3.8-8.5,8.6-8.5c4.3,0,7.1,2.8,7.1,6.8
		c0,4.9-3.8,8.5-8.6,8.5C98.3,98.5,95.5,95.6,95.5,91.7z"/>
	<linearGradient id="SVGID_7_" gradientUnits="userSpaceOnUse" x1="30.1788" y1="-24.2502" x2="174.4188" y2="202.0775">
		<stop  offset="4.625822e-03" style="stop-color:#535FA9"/>
		<stop  offset="1" style="stop-color:#322E7C"/>
	</linearGradient>
	<path class="st6" d="M151.1,117.7l-25.6,29.2h21.9l-2.7,10.1h-36.6l1.2-9.4l25.7-29.3h-19.6l1.5-10h35.4L151.1,117.7z"/>
	<linearGradient id="SVGID_8_" gradientUnits="userSpaceOnUse" x1="63.2314" y1="-45.3148" x2="207.4714" y2="181.0129">
		<stop  offset="4.625822e-03" style="stop-color:#535FA9"/>
		<stop  offset="1" style="stop-color:#322E7C"/>
	</linearGradient>
	<path class="st7" d="M166.4,139.2c0.4,7,3.9,9.5,9.1,9.5c4.3,0,8.1-1.5,12.6-4.5l4.8,7.9c-5.3,3.9-11.7,6.4-18.9,6.4
		c-13.7,0-20.6-8.1-20.6-20.4c0-13.3,7-31.2,27-31.2c11.5,0,17.4,6,17.4,13.1C197.7,133.7,182,137.6,166.4,139.2z M184.7,120.6
		c0-2.1-1.2-4.7-5.2-4.7c-7.6,0-11.1,7.7-12.4,15.1C179.6,129.9,184.7,126,184.7,120.6z"/>
</g>
</svg>
