<?xml version="1.0" encoding="utf-8"?>
<!-- Generator: Adobe Illustrator 23.0.4, SVG Export Plug-In . SVG Version: 6.00 Build 0)  -->
<svg version="1.1" id="Layer_1" xmlns="http://www.w3.org/2000/svg" xmlns:xlink="http://www.w3.org/1999/xlink" x="0px" y="0px"
	 viewBox="0 0 204.7 164" style="enable-background:new 0 0 204.7 164;" xml:space="preserve">
<style type="text/css">
	.st0{fill:url(#SVGID_1_);}
	.st1{fill:url(#SVGID_2_);}
	.st2{fill:url(#SVGID_3_);}
	.st3{fill:url(#SVGID_4_);}
	.st4{fill:url(#SVGID_5_);}
	.st5{fill:url(#SVGID_6_);}
	.st6{fill:url(#SVGID_7_);}
	.st7{fill:url(#SVGID_8_);}
</style>
<g>
	<linearGradient id="SVGID_1_" gradientUnits="userSpaceOnUse" x1="38.361" y1="9.0653" x2="145.154" y2="244.6879">
		<stop  offset="4.625822e-03" style="stop-color:#535FA9"/>
		<stop  offset="1" style="stop-color:#322E7C"/>
	</linearGradient>
	<path class="st0" d="M79,57.6h-7.3l-2,14.3h-13l1.9-14.3H31.7l1.2-9.1L56.6,6.4l11.1,4.3L47.6,47.3H60l3.7-15.7h11.5l-2.2,15.7h7.3
		L79,57.6z"/>
	<linearGradient id="SVGID_2_" gradientUnits="userSpaceOnUse" x1="79.8773" y1="-9.7514" x2="186.6703" y2="225.8712">
		<stop  offset="4.625822e-03" style="stop-color:#535FA9"/>
		<stop  offset="1" style="stop-color:#322E7C"/>
	</linearGradient>
	<path class="st1" d="M102.2,56c-0.8,4.9,0.6,6.6,3.6,6.6c2.1,0,3.9-0.7,6.1-1.7l3.6,8.8c-4,2.5-8.9,3.7-13.1,3.7
		c-10.1,0-15.1-6.3-13.6-17.5l3.5-24.8h-7.4l1.3-9.6h8l3.1-11.3l11.3-1.3L107,21.5h11.6l-2.8,9.6h-10.2L102.2,56z"/>
	<linearGradient id="SVGID_3_" gradientUnits="userSpaceOnUse" x1="110.7396" y1="-23.7394" x2="217.5325" y2="211.8833">
		<stop  offset="4.625822e-03" style="stop-color:#535FA9"/>
		<stop  offset="1" style="stop-color:#322E7C"/>
	</linearGradient>
	<path class="st2" d="M167.6,35.5l-5.1,36.4h-13.3l4.8-33.7c0.8-5.6-0.9-7-3.3-7c-4.6,0-8.8,5.3-12.5,12.5l-3.9,28.3h-13.3l9.9-70.4
		L144.2,0l-4.3,30.1c3.7-6.1,9.6-10.2,16.2-10.2C164.4,20,168.9,25.8,167.6,35.5z"/>
	<linearGradient id="SVGID_4_" gradientUnits="userSpaceOnUse" x1="-19.2749" y1="35.1881" x2="87.5181" y2="270.8107">
		<stop  offset="4.625822e-03" style="stop-color:#535FA9"/>
		<stop  offset="1" style="stop-color:#322E7C"/>
	</linearGradient>
	<path class="st3" d="M53.3,114.9c0,12-7.6,25.2-28.9,25.2H17l-3.1,22.4H0l9.2-65.8h20C44.2,96.7,53.3,102.7,53.3,114.9z
		 M38.9,115.4c0-6-3.9-8.6-10.9-8.6h-6.4l-3.1,23h6C36.1,129.8,38.9,121.8,38.9,115.4z"/>
	<linearGradient id="SVGID_5_" gradientUnits="userSpaceOnUse" x1="18.5318" y1="18.0526" x2="125.3248" y2="253.6752">
		<stop  offset="4.625822e-03" style="stop-color:#535FA9"/>
		<stop  offset="1" style="stop-color:#322E7C"/>
	</linearGradient>
	<path class="st4" d="M91.3,111.5l-3.8,13.1c-1.5-0.5-2.7-0.7-4.3-0.7c-6.3,0-9.9,6-12.8,14.4l-3.4,24.1H53.6l7-50.4h11.5l-0.3,9.6
		c3.6-7.3,8.8-11,14.4-11C88.1,110.7,89.7,111,91.3,111.5z"/>
	<linearGradient id="SVGID_6_" gradientUnits="userSpaceOnUse" x1="47.5598" y1="4.8961" x2="154.3528" y2="240.5187">
		<stop  offset="4.625822e-03" style="stop-color:#535FA9"/>
		<stop  offset="1" style="stop-color:#322E7C"/>
	</linearGradient>
	<path class="st5" d="M104,162.5H90.7l7-50.4H111L104,162.5z M98.9,94.9c0-5,3.9-8.7,8.9-8.7c4.5,0,7.3,2.9,7.3,7
		c0,5-3.9,8.7-8.9,8.7C101.7,102,98.9,98.9,98.9,94.9z"/>
	<linearGradient id="SVGID_7_" gradientUnits="userSpaceOnUse" x1="70.1025" y1="-5.3211" x2="176.8955" y2="230.3015">
		<stop  offset="4.625822e-03" style="stop-color:#535FA9"/>
		<stop  offset="1" style="stop-color:#322E7C"/>
	</linearGradient>
	<path class="st6" d="M156.4,121.8l-26.5,30.2h22.6l-2.8,10.5h-37.8l1.2-9.7l26.6-30.3h-20.2l1.5-10.4h36.6L156.4,121.8z"/>
	<linearGradient id="SVGID_8_" gradientUnits="userSpaceOnUse" x1="109.8742" y1="-23.3472" x2="216.6672" y2="212.2755">
		<stop  offset="4.625822e-03" style="stop-color:#535FA9"/>
		<stop  offset="1" style="stop-color:#322E7C"/>
	</linearGradient>
	<path class="st7" d="M172.3,144.1c0.4,7.2,4.1,9.8,9.4,9.8c4.5,0,8.4-1.5,13-4.7l4.9,8.2c-5.5,4-12.1,6.7-19.6,6.7
		c-14.2,0-21.3-8.4-21.3-21.1c0-13.8,7.2-32.3,27.9-32.3c11.9,0,18,6.2,18,13.6C204.7,138.4,188.4,142.5,172.3,144.1z M191.2,124.8
		c0-2.2-1.2-4.8-5.4-4.8c-7.9,0-11.5,8-12.8,15.6C185.9,134.5,191.2,130.4,191.2,124.8z"/>
</g>
</svg>
