<?xml version="1.0" encoding="utf-8"?>
<!-- Generator: Adobe Illustrator 23.0.4, SVG Export Plug-In . SVG Version: 6.00 Build 0)  -->
<svg version="1.1" id="Layer_1" xmlns="http://www.w3.org/2000/svg" xmlns:xlink="http://www.w3.org/1999/xlink" x="0px" y="0px"
	 viewBox="0 0 203.6 163.2" style="enable-background:new 0 0 203.6 163.2;" xml:space="preserve">
<style type="text/css">
	.st0{fill:url(#SVGID_1_);}
	.st1{fill:url(#SVGID_2_);}
	.st2{fill:url(#SVGID_3_);}
	.st3{fill:url(#SVGID_4_);}
	.st4{fill:url(#SVGID_5_);}
	.st5{fill:url(#SVGID_6_);}
	.st6{fill:url(#SVGID_7_);}
	.st7{fill:url(#SVGID_8_);}
</style>
<g>
	<linearGradient id="SVGID_1_" gradientUnits="userSpaceOnUse" x1="25.5804" y1="-23.7067" x2="138.3063" y2="234.8001">
		<stop  offset="4.625822e-03" style="stop-color:#535FA9"/>
		<stop  offset="1" style="stop-color:#322E7C"/>
	</linearGradient>
	<path class="st0" d="M77.8,21.7c0,6.8-4,13.3-14.5,16.2c6.8,0.7,12.2,4.9,12.2,13.1c0,9.4-7.4,22-25.9,22c-9.1,0-15.7-3.6-19.9-9.6
		l8.2-6.8c3.4,4.3,7.1,6,11.9,6c7.1,0,12.2-4.8,12.2-12.6c0-5.3-3.4-7.1-9.5-7.1h-5.3l2.7-9.5h3.4c8,0,11.2-5.1,11.2-10.1
		c0-4.4-2.8-6.7-7.6-6.7c-4.8,0-9,2-13.3,5.7l-6-7.8c6.6-5.4,13.3-8,21.5-8C71.6,6.5,77.8,13.2,77.8,21.7z"/>
	<linearGradient id="SVGID_2_" gradientUnits="userSpaceOnUse" x1="63.9804" y1="-40.4516" x2="176.7064" y2="218.0552">
		<stop  offset="4.625822e-03" style="stop-color:#535FA9"/>
		<stop  offset="1" style="stop-color:#322E7C"/>
	</linearGradient>
	<path class="st1" d="M120.5,20.7l-3.8,13.1c-1.5-0.5-2.6-0.7-4.3-0.7c-6.2,0-9.8,6-12.8,14.4l-3.4,24H83l7-50.1h11.4l-0.3,9.6
		c3.6-7.3,8.8-11,14.3-11C117.3,20,118.9,20.2,120.5,20.7z"/>
	<linearGradient id="SVGID_3_" gradientUnits="userSpaceOnUse" x1="104.5079" y1="-58.1243" x2="217.2338" y2="200.3826">
		<stop  offset="4.625822e-03" style="stop-color:#535FA9"/>
		<stop  offset="1" style="stop-color:#322E7C"/>
	</linearGradient>
	<path class="st2" d="M169.3,1.4l-9.8,70.1h-11.7l0.1-7.4c-3.3,4.9-8.2,8.9-14.9,8.9c-10.5,0-15.8-7.8-15.8-20.1
		c0-13.5,6.7-33,23.8-33c5.2,0,9.2,2.2,11.8,5.2L156.2,0L169.3,1.4z M130.9,53.2c0,7.4,2.5,9.8,6.1,9.8c4.7,0,8.3-4.4,11.7-9.7
		l2.7-19.3c-2-2.6-4.4-4.2-7.8-4.2C133.7,29.8,130.9,44.4,130.9,53.2z"/>
	<linearGradient id="SVGID_4_" gradientUnits="userSpaceOnUse" x1="-32.1087" y1="1.4495" x2="80.6172" y2="259.9564">
		<stop  offset="4.625822e-03" style="stop-color:#535FA9"/>
		<stop  offset="1" style="stop-color:#322E7C"/>
	</linearGradient>
	<path class="st3" d="M53.1,114.3c0,11.9-7.6,25.1-28.8,25.1h-7.4l-3.1,22.3H0l9.2-65.5H29C44,96.2,53.1,102.2,53.1,114.3z
		 M38.7,114.8c0-6-3.9-8.5-10.9-8.5h-6.3l-3.1,22.9h6C35.9,129.2,38.7,121.2,38.7,114.8z"/>
	<linearGradient id="SVGID_5_" gradientUnits="userSpaceOnUse" x1="6.0197" y1="-15.177" x2="118.7457" y2="243.3299">
		<stop  offset="4.625822e-03" style="stop-color:#535FA9"/>
		<stop  offset="1" style="stop-color:#322E7C"/>
	</linearGradient>
	<path class="st4" d="M90.8,110.9L87,124c-1.5-0.5-2.6-0.7-4.3-0.7c-6.2,0-9.8,6-12.8,14.4l-3.4,24H53.3l7-50.1h11.4l-0.3,9.6
		c3.6-7.3,8.8-11,14.3-11C87.7,110.2,89.3,110.4,90.8,110.9z"/>
	<linearGradient id="SVGID_6_" gradientUnits="userSpaceOnUse" x1="35.1189" y1="-27.8661" x2="147.8449" y2="230.6407">
		<stop  offset="4.625822e-03" style="stop-color:#535FA9"/>
		<stop  offset="1" style="stop-color:#322E7C"/>
	</linearGradient>
	<path class="st5" d="M103.5,161.7H90.2l7-50.1h13.2L103.5,161.7z M98.4,94.5c0-5,3.9-8.7,8.9-8.7c4.4,0,7.3,2.9,7.3,7
		c0,5-3.9,8.7-8.9,8.7C101.2,101.4,98.4,98.4,98.4,94.5z"/>
	<linearGradient id="SVGID_7_" gradientUnits="userSpaceOnUse" x1="57.9938" y1="-37.841" x2="170.7197" y2="220.6658">
		<stop  offset="4.625822e-03" style="stop-color:#535FA9"/>
		<stop  offset="1" style="stop-color:#322E7C"/>
	</linearGradient>
	<path class="st6" d="M155.6,121.2l-26.4,30.1h22.5l-2.7,10.4h-37.6l1.2-9.6l26.5-30.2h-20.1l1.5-10.3h36.4L155.6,121.2z"/>
	<linearGradient id="SVGID_8_" gradientUnits="userSpaceOnUse" x1="98.0553" y1="-55.3105" x2="210.7812" y2="203.1964">
		<stop  offset="4.625822e-03" style="stop-color:#535FA9"/>
		<stop  offset="1" style="stop-color:#322E7C"/>
	</linearGradient>
	<path class="st7" d="M171.4,143.3c0.4,7.2,4.1,9.7,9.4,9.7c4.4,0,8.3-1.5,13-4.6l4.9,8.1c-5.5,4-12,6.6-19.5,6.6
		c-14.1,0-21.2-8.3-21.2-21c0-13.7,7.2-32.2,27.8-32.2c11.8,0,17.9,6.1,17.9,13.5C203.6,137.7,187.5,141.7,171.4,143.3z
		 M190.2,124.1c0-2.2-1.2-4.8-5.4-4.8c-7.9,0-11.4,7.9-12.8,15.5C185,133.8,190.2,129.7,190.2,124.1z"/>
</g>
</svg>
