<?xml version="1.0" encoding="utf-8"?>
<!-- Generator: Adobe Illustrator 23.0.4, SVG Export Plug-In . SVG Version: 6.00 Build 0)  -->
<svg version="1.1" id="Layer_1" xmlns="http://www.w3.org/2000/svg" xmlns:xlink="http://www.w3.org/1999/xlink" x="0px" y="0px"
	 viewBox="0 0 444.7 202.6" style="enable-background:new 0 0 444.7 202.6;" xml:space="preserve">
<style type="text/css">
	.st0{fill:url(#SVGID_1_);}
	.st1{fill:url(#SVGID_2_);}
	.st2{fill:url(#SVGID_3_);}
	.st3{fill:url(#SVGID_4_);}
	.st4{fill:url(#SVGID_5_);}
	.st5{fill:url(#SVGID_6_);}
	.st6{fill:url(#SVGID_7_);}
	.st7{fill:url(#SVGID_8_);}
	.st8{fill:url(#SVGID_9_);}
	.st9{fill:url(#SVGID_10_);}
</style>
<g>
	<linearGradient id="SVGID_1_" gradientUnits="userSpaceOnUse" x1="66.8369" y1="-43.9289" x2="418.5896" y2="489.162">
		<stop  offset="4.625822e-03" style="stop-color:#535FA9"/>
		<stop  offset="1" style="stop-color:#322E7C"/>
	</linearGradient>
	<path class="st0" d="M158.4,23.5c0,8.8-5.2,17.3-18.8,21c8.8,0.9,15.8,6.4,15.8,17.1c0,12.2-9.6,28.6-33.6,28.6
		c-11.8,0-20.4-4.7-25.8-12.4l10.7-8.8c4.4,5.5,9.2,7.7,15.5,7.7c9.2,0,15.8-6.3,15.8-16.3c0-6.9-4.4-9.2-12.3-9.2h-6.9l3.6-12.3
		h4.4c10.4,0,14.5-6.6,14.5-13.1c0-5.8-3.7-8.7-9.8-8.7c-6.3,0-11.7,2.6-17.3,7.4l-7.7-10.1c8.6-7,17.3-10.4,27.9-10.4
		C150.3,3.8,158.4,12.5,158.4,23.5z"/>
	<linearGradient id="SVGID_2_" gradientUnits="userSpaceOnUse" x1="116.0688" y1="-76.4138" x2="467.8214" y2="456.6771">
		<stop  offset="4.625822e-03" style="stop-color:#535FA9"/>
		<stop  offset="1" style="stop-color:#322E7C"/>
	</linearGradient>
	<path class="st1" d="M203.3,3.8c16.2,0,25,10.9,25,30.9c0,22.1-8.2,55.4-36.6,55.4c-16.3,0-25.2-11.2-25.2-31.2
		C166.5,36.6,174.8,3.8,203.3,3.8z M202.4,16.8c-13.6,0-18.5,27.5-18.5,45.6c0,10.7,3.2,14.6,8.8,14.6c13.5,0,18.5-27.7,18.5-45.8
		C211.2,20.5,207.9,16.8,202.4,16.8z"/>
	<linearGradient id="SVGID_3_" gradientUnits="userSpaceOnUse" x1="176.8883" y1="-116.5447" x2="528.6409" y2="416.5462">
		<stop  offset="4.625822e-03" style="stop-color:#535FA9"/>
		<stop  offset="1" style="stop-color:#322E7C"/>
	</linearGradient>
	<path class="st2" d="M239.5,28.9c0-10.9,7.1-25,23.9-25c10.9,0,18.5,7.1,18.5,18.2c0,10.9-6.8,25.3-23.8,25.3
		C247.2,47.3,239.5,40,239.5,28.9z M245.5,85.8l9.8,7l68-85.8l-9.9-7L245.5,85.8z M269.3,22.2c0-4.3-1.5-7.7-6.6-7.7
		c-9,0-10.6,9.5-10.6,14.1c0,4.3,1.5,8,6.8,8C267.5,36.6,269.3,27.5,269.3,22.2z M286.4,71.7c0-11.1,7.1-25,23.9-25
		c10.8,0,18.5,7.1,18.5,18.2c0,10.8-6.8,25.3-23.9,25.3C294.1,90.1,286.4,82.9,286.4,71.7z M316.1,65.1c0-4.3-1.5-7.9-6.5-7.9
		c-9,0-10.6,9.6-10.6,14.2c0,4.3,1.5,8,6.8,8C314.2,79.4,316.1,70.4,316.1,65.1z"/>
	<linearGradient id="SVGID_4_" gradientUnits="userSpaceOnUse" x1="-43.444" y1="28.8385" x2="308.3086" y2="561.9294">
		<stop  offset="4.625822e-03" style="stop-color:#535FA9"/>
		<stop  offset="1" style="stop-color:#322E7C"/>
	</linearGradient>
	<path class="st3" d="M34.6,200.6H13l-13-85h18.5l7.2,70l26.4-70h18.5L34.6,200.6z"/>
	<linearGradient id="SVGID_5_" gradientUnits="userSpaceOnUse" x1="-11.3843" y1="7.6843" x2="340.3683" y2="540.7753">
		<stop  offset="4.625822e-03" style="stop-color:#535FA9"/>
		<stop  offset="1" style="stop-color:#322E7C"/>
	</linearGradient>
	<path class="st4" d="M63.2,175.1c0-17.7,8.8-41.5,35.7-41.5c17.1,0,26.8,10.6,26.6,27.5c0,17.4-8.6,41.5-35.6,41.5
		C72.9,202.6,63.2,192.1,63.2,175.1z M107.9,159.8c0-9.2-3.4-13.3-10.1-13.3c-13.8,0-16.8,19.2-16.8,29.7c0,9.2,3.4,13.1,10.1,13.1
		C104.9,189.4,107.8,170.4,107.9,159.8z"/>
	<linearGradient id="SVGID_6_" gradientUnits="userSpaceOnUse" x1="39.8409" y1="-26.1159" x2="391.5935" y2="506.975">
		<stop  offset="4.625822e-03" style="stop-color:#535FA9"/>
		<stop  offset="1" style="stop-color:#322E7C"/>
	</linearGradient>
	<path class="st5" d="M135.5,181.9l6.6-46.4h17.2l-6.1,44c-1,7.1,0.9,9.2,4.8,9.2c5.5,0,10.3-5.5,14.2-11.4l5.9-41.7h17.2l-9.1,65.1
		h-15l0.6-10.2c-5.8,7.4-12.4,12.2-20.9,12.2C139.2,202.6,133.8,194.5,135.5,181.9z"/>
	<linearGradient id="SVGID_7_" gradientUnits="userSpaceOnUse" x1="86.1544" y1="-56.6752" x2="437.907" y2="476.4157">
		<stop  offset="4.625822e-03" style="stop-color:#535FA9"/>
		<stop  offset="1" style="stop-color:#322E7C"/>
	</linearGradient>
	<path class="st6" d="M259.3,141.6l-8.6,10.2c-3.7-3.3-7.2-4.5-11.7-4.5c-14,0-17.7,16.8-17.7,28.4c0,9.7,4.3,13,10.9,13
		c4.9,0,8.5-1.6,13.4-4.7l6.5,11.4c-6.5,4.5-13.6,7.2-22,7.2c-17.1,0-26.9-10.7-26.9-27.7c0-16.9,9.7-41.3,35.6-41.3
		C246.9,133.6,253.9,136.3,259.3,141.6z"/>
	<linearGradient id="SVGID_8_" gradientUnits="userSpaceOnUse" x1="123.9106" y1="-81.5881" x2="475.6632" y2="451.5028">
		<stop  offset="4.625822e-03" style="stop-color:#535FA9"/>
		<stop  offset="1" style="stop-color:#322E7C"/>
	</linearGradient>
	<path class="st7" d="M321.3,153.6l-6.6,47h-17.2l6.1-43.6c1-7.2-1.1-9.1-4.3-9.1c-5.9,0-11.4,6.9-16.2,16.1l-5,36.6h-17.2l12.8-91
		l17.4-1.8l-5.5,38.9c4.8-7.9,12.4-13.1,20.9-13.1C317.3,133.6,323,141.1,321.3,153.6z"/>
	<linearGradient id="SVGID_9_" gradientUnits="userSpaceOnUse" x1="175.2927" y1="-115.4919" x2="527.0453" y2="417.599">
		<stop  offset="4.625822e-03" style="stop-color:#535FA9"/>
		<stop  offset="1" style="stop-color:#322E7C"/>
	</linearGradient>
	<path class="st8" d="M348.7,176.8c0.5,9.3,5.3,12.6,12.2,12.6c5.8,0,10.8-2,16.8-6L384,194c-7.1,5.2-15.6,8.6-25.3,8.6
		c-18.3,0-27.5-10.8-27.5-27.3c0-17.8,9.3-41.7,36.1-41.7c15.3,0,23.2,8,23.2,17.6C390.6,169.4,369.6,174.7,348.7,176.8z
		 M373.1,151.9c0-2.8-1.6-6.3-7-6.3c-10.2,0-14.9,10.3-16.6,20.1C366.4,164.4,373.1,159.1,373.1,151.9z"/>
	<linearGradient id="SVGID_10_" gradientUnits="userSpaceOnUse" x1="215.8878" y1="-142.278" x2="567.6404" y2="390.8129">
		<stop  offset="4.625822e-03" style="stop-color:#535FA9"/>
		<stop  offset="1" style="stop-color:#322E7C"/>
	</linearGradient>
	<path class="st9" d="M444.7,134.7l-4.9,16.9c-2-0.6-3.4-0.9-5.5-0.9c-8.1,0-12.8,7.7-16.6,18.7l-4.4,31.2h-17.2l9.1-65.1H420
		l-0.4,12.4c4.7-9.5,11.4-14.2,18.5-14.2C440.6,133.7,442.7,134.1,444.7,134.7z"/>
</g>
</svg>
