<?xml version="1.0" encoding="utf-8"?>
<!-- Generator: Adobe Illustrator 23.0.4, SVG Export Plug-In . SVG Version: 6.00 Build 0)  -->
<svg version="1.1" id="Layer_1" xmlns="http://www.w3.org/2000/svg" xmlns:xlink="http://www.w3.org/1999/xlink" x="0px" y="0px"
	 viewBox="0 0 309.1 144" style="enable-background:new 0 0 309.1 144;" xml:space="preserve">
<style type="text/css">
	.st0{fill:url(#SVGID_1_);}
	.st1{fill:url(#SVGID_2_);}
	.st2{fill:url(#SVGID_3_);}
	.st3{fill:url(#SVGID_4_);}
	.st4{fill:url(#SVGID_5_);}
	.st5{fill:url(#SVGID_6_);}
	.st6{fill:url(#SVGID_7_);}
	.st7{fill:url(#SVGID_8_);}
	.st8{fill:url(#SVGID_9_);}
	.st9{fill:url(#SVGID_10_);}
</style>
<g>
	<linearGradient id="SVGID_1_" gradientUnits="userSpaceOnUse" x1="65.3497" y1="-19.3738" x2="238.3173" y2="322.5389">
		<stop  offset="4.625822e-03" style="stop-color:#535FA9"/>
		<stop  offset="1" style="stop-color:#322E7C"/>
	</linearGradient>
	<path class="st0" d="M109.6,12.5h-21l-1.9,13.2c3-1.5,6-2,8.7-2c8.4,0,14,5.5,14,15.7c0,9.5-6.6,23.1-24.3,23.1
		c-8.5,0-13.8-3.6-17.6-8.4l7.3-6.2c2.7,3.4,6,5.3,10.6,5.3c8.1,0,11.8-6.8,11.8-13.3c0-5.9-3.1-7.8-7-7.8c-2.7,0-4.9,0.5-7.8,2
		h-8.4l4.3-30.6h33.8L109.6,12.5z"/>
	<linearGradient id="SVGID_2_" gradientUnits="userSpaceOnUse" x1="102.1066" y1="-37.9685" x2="275.0742" y2="303.9442">
		<stop  offset="4.625822e-03" style="stop-color:#535FA9"/>
		<stop  offset="1" style="stop-color:#322E7C"/>
	</linearGradient>
	<path class="st1" d="M141.9,2.6c11.3,0,17.4,7.6,17.4,21.5c0,15.4-5.7,38.5-25.4,38.5c-11.4,0-17.5-7.8-17.5-21.7
		C116.3,25.4,122.1,2.6,141.9,2.6z M141.3,11.7c-9.5,0-12.9,19.1-12.9,31.7c0,7.4,2.2,10.2,6.1,10.2c9.4,0,12.9-19.3,12.9-31.8
		C147.4,14.3,145.1,11.7,141.3,11.7z"/>
	<linearGradient id="SVGID_3_" gradientUnits="userSpaceOnUse" x1="150.3847" y1="-62.3915" x2="323.3523" y2="279.5212">
		<stop  offset="4.625822e-03" style="stop-color:#535FA9"/>
		<stop  offset="1" style="stop-color:#322E7C"/>
	</linearGradient>
	<path class="st2" d="M167,20.1c0-7.6,5-17.4,16.6-17.4c7.6,0,12.9,5,12.9,12.6c0,7.6-4.7,17.6-16.6,17.6
		C172.4,32.9,167,27.8,167,20.1z M171.2,59.7l6.8,4.9l47.3-59.7L218.4,0L171.2,59.7z M187.8,15.4c0-3-1-5.4-4.6-5.4
		c-6.2,0-7.3,6.6-7.3,9.8c0,3,1,5.5,4.7,5.5C186.5,25.4,187.8,19.1,187.8,15.4z M199.6,49.8c0-7.7,4.9-17.4,16.6-17.4
		c7.5,0,12.9,5,12.9,12.6c0,7.5-4.7,17.6-16.6,17.6C205,62.6,199.6,57.6,199.6,49.8z M220.3,45.2c0-3-1-5.5-4.5-5.5
		c-6.2,0-7.3,6.7-7.3,9.9c0,3,1,5.5,4.7,5.5C219,55.2,220.3,48.9,220.3,45.2z"/>
	<linearGradient id="SVGID_4_" gradientUnits="userSpaceOnUse" x1="-16.8855" y1="22.2275" x2="156.0821" y2="364.1402">
		<stop  offset="4.625822e-03" style="stop-color:#535FA9"/>
		<stop  offset="1" style="stop-color:#322E7C"/>
	</linearGradient>
	<path class="st3" d="M24.1,142.7H9L0,83.6h12.9l5,48.7l18.4-48.7h12.9L24.1,142.7z"/>
	<linearGradient id="SVGID_5_" gradientUnits="userSpaceOnUse" x1="9.4329" y1="8.9135" x2="182.4005" y2="350.8262">
		<stop  offset="4.625822e-03" style="stop-color:#535FA9"/>
		<stop  offset="1" style="stop-color:#322E7C"/>
	</linearGradient>
	<path class="st4" d="M44,124.9c0-12.3,6.1-28.8,24.8-28.8c11.9,0,18.6,7.3,18.5,19.1c0,12.1-6,28.8-24.8,28.8
		C50.7,144,44,136.8,44,124.9z M75,114.3c0-6.4-2.4-9.2-7-9.2c-9.6,0-11.7,13.3-11.7,20.7c0,6.4,2.4,9.1,7,9.1
		C72.9,134.9,74.9,121.7,75,114.3z"/>
	<linearGradient id="SVGID_6_" gradientUnits="userSpaceOnUse" x1="49.9285" y1="-11.5725" x2="222.8961" y2="330.3402">
		<stop  offset="4.625822e-03" style="stop-color:#535FA9"/>
		<stop  offset="1" style="stop-color:#322E7C"/>
	</linearGradient>
	<path class="st5" d="M94.2,129.7l4.6-32.3h11.9l-4.3,30.6c-0.7,5,0.6,6.4,3.3,6.4c3.8,0,7.2-3.8,9.9-7.9l4.1-29h11.9l-6.3,45.2
		h-10.4l0.4-7.1c-4,5.1-8.6,8.4-14.5,8.4C96.8,144,93,138.4,94.2,129.7z"/>
	<linearGradient id="SVGID_7_" gradientUnits="userSpaceOnUse" x1="86.7682" y1="-30.2091" x2="259.7358" y2="311.7036">
		<stop  offset="4.625822e-03" style="stop-color:#535FA9"/>
		<stop  offset="1" style="stop-color:#322E7C"/>
	</linearGradient>
	<path class="st6" d="M180.3,101.6l-6,7.1c-2.6-2.3-5-3.2-8.1-3.2c-9.7,0-12.3,11.7-12.3,19.7c0,6.7,3,9,7.6,9
		c3.4,0,5.9-1.1,9.3-3.2l4.5,7.9c-4.5,3.2-9.5,5-15.3,5c-11.9,0-18.7-7.4-18.7-19.3c0-11.8,6.7-28.7,24.8-28.7
		C171.6,96.1,176.5,97.9,180.3,101.6z"/>
	<linearGradient id="SVGID_8_" gradientUnits="userSpaceOnUse" x1="117.1239" y1="-45.5655" x2="290.0915" y2="296.3472">
		<stop  offset="4.625822e-03" style="stop-color:#535FA9"/>
		<stop  offset="1" style="stop-color:#322E7C"/>
	</linearGradient>
	<path class="st7" d="M223.4,110l-4.6,32.7h-12l4.3-30.3c0.7-5-0.8-6.3-3-6.3c-4.1,0-7.9,4.8-11.3,11.2l-3.5,25.4h-11.9l8.9-63.2
		l12.1-1.3l-3.8,27.1c3.3-5.5,8.6-9.1,14.5-9.1C220.5,96.1,224.6,101.3,223.4,110z"/>
	<linearGradient id="SVGID_9_" gradientUnits="userSpaceOnUse" x1="157.6599" y1="-66.0719" x2="330.6275" y2="275.8408">
		<stop  offset="4.625822e-03" style="stop-color:#535FA9"/>
		<stop  offset="1" style="stop-color:#322E7C"/>
	</linearGradient>
	<path class="st8" d="M242.4,126.1c0.3,6.5,3.7,8.8,8.5,8.8c4,0,7.5-1.4,11.7-4.2l4.4,7.3c-5,3.6-10.8,6-17.6,6
		c-12.7,0-19.1-7.5-19.1-18.9c0-12.4,6.5-29,25.1-29c10.7,0,16.1,5.5,16.1,12.2C271.5,121,256.9,124.7,242.4,126.1z M259.4,108.8
		c0-2-1.1-4.4-4.9-4.4c-7.1,0-10.3,7.2-11.5,14C254.7,117.5,259.4,113.8,259.4,108.8z"/>
	<linearGradient id="SVGID_10_" gradientUnits="userSpaceOnUse" x1="189.9679" y1="-82.416" x2="362.9355" y2="259.4967">
		<stop  offset="4.625822e-03" style="stop-color:#535FA9"/>
		<stop  offset="1" style="stop-color:#322E7C"/>
	</linearGradient>
	<path class="st9" d="M309.1,96.8l-3.4,11.8c-1.4-0.4-2.4-0.6-3.8-0.6c-5.6,0-8.9,5.4-11.5,13l-3.1,21.7h-11.9l6.3-45.2H292
		l-0.3,8.6c3.2-6.6,7.9-9.9,12.9-9.9C306.3,96.2,307.8,96.4,309.1,96.8z"/>
</g>
</svg>
