<?xml version="1.0" encoding="utf-8"?>
<!-- Generator: Adobe Illustrator 23.0.4, SVG Export Plug-In . SVG Version: 6.00 Build 0)  -->
<svg version="1.1" id="Layer_1" xmlns="http://www.w3.org/2000/svg" xmlns:xlink="http://www.w3.org/1999/xlink" x="0px" y="0px"
	 viewBox="0 0 458.3 170.6" style="enable-background:new 0 0 458.3 170.6;" xml:space="preserve">
<style type="text/css">
	.st0{fill:url(#SVGID_1_);}
	.st1{fill:url(#SVGID_2_);}
	.st2{fill:url(#SVGID_3_);}
	.st3{fill:url(#SVGID_4_);}
	.st4{fill:url(#SVGID_5_);}
	.st5{fill:url(#SVGID_6_);}
	.st6{fill:url(#SVGID_7_);}
	.st7{fill:url(#SVGID_8_);}
	.st8{fill:url(#SVGID_9_);}
	.st9{fill:url(#SVGID_10_);}
	.st10{fill:url(#SVGID_11_);}
	.st11{fill:url(#SVGID_12_);}
	.st12{fill:url(#SVGID_13_);}
	.st13{fill:url(#SVGID_14_);}
</style>
<g>
	
		<linearGradient id="SVGID_1_" gradientUnits="userSpaceOnUse" x1="-22.9008" y1="231.1665" x2="66.411" y2="-110.6229" gradientTransform="matrix(1 0 0 -1 0 172)">
		<stop  offset="4.625822e-03" style="stop-color:#535FA9"/>
		<stop  offset="1" style="stop-color:#322E7C"/>
	</linearGradient>
	<path class="st0" d="M48.7,99l-6.8,6.7c-3.6-3.5-7.4-4.9-12-4.9c-5.6,0-9.6,2.7-9.6,7.3c0,3.7,2.2,5.4,10.1,8
		c9.2,3,15.2,7.3,15.2,16.6c0,9.6-6.7,20.4-24.7,20.4c-9.7,0-16.4-3.7-20.8-8.4l7.2-7.2c3.6,3.7,7.9,5.9,13.9,5.9
		c7,0,11.3-3.4,11.3-8.9c0-4.2-2.3-6.3-9.6-8.8C12,122,7.2,117.4,7.2,109.5c0-8.8,7.2-18.1,22.2-18.1C37.8,91.4,44,94.1,48.7,99z"/>
	
		<linearGradient id="SVGID_2_" gradientUnits="userSpaceOnUse" x1="14.0629" y1="240.8254" x2="103.3747" y2="-100.964" gradientTransform="matrix(1 0 0 -1 0 172)">
		<stop  offset="4.625822e-03" style="stop-color:#535FA9"/>
		<stop  offset="1" style="stop-color:#322E7C"/>
	</linearGradient>
	<path class="st1" d="M55.4,106.6h10.5l-0.1,5.1c4.7-4.9,9.2-6.5,13.5-6.5c8.9,0,13.9,6.4,13.9,17.6c0,13-6.1,30.2-23.9,30.2
		c-3.7,0-6.2-0.6-8.3-1.4l-2.6,17.5l-11.9,1.4L55.4,106.6z M80.8,122.8c0-6.6-2.6-8.6-6-8.6c-3.6,0-6.6,2.2-9.3,5.5L62.3,143
		c2,0.8,3.7,1.1,6.2,1.1C77.5,144.1,80.8,131.8,80.8,122.8z"/>
	
		<linearGradient id="SVGID_3_" gradientUnits="userSpaceOnUse" x1="64.064" y1="253.891" x2="153.3758" y2="-87.8984" gradientTransform="matrix(1 0 0 -1 0 172)">
		<stop  offset="4.625822e-03" style="stop-color:#535FA9"/>
		<stop  offset="1" style="stop-color:#322E7C"/>
	</linearGradient>
	<path class="st2" d="M139.7,109.7l-4.3,29.7c-0.4,3.1-0.3,4.6,2.3,5.6l-3.4,7.9c-4.9-0.5-8.8-2.6-9.9-7.5
		c-3.2,4.5-7.7,7.7-13.5,7.7c-9.5,0-14.7-7.1-14.7-17.8c0-12.9,6.8-30.1,25.6-30.1C128,105.2,134,106.7,139.7,109.7z M108.8,135.3
		c0,6.6,2.4,8.8,5.8,8.8c3.7,0,6.6-2.6,9.4-6.7l3.2-22.3c-1.9-0.8-3.3-1-5.5-1C112.2,114,108.8,126.2,108.8,135.3z"/>
	
		<linearGradient id="SVGID_4_" gradientUnits="userSpaceOnUse" x1="133.4799" y1="272.0298" x2="222.7917" y2="-69.7595" gradientTransform="matrix(1 0 0 -1 0 172)">
		<stop  offset="4.625822e-03" style="stop-color:#535FA9"/>
		<stop  offset="1" style="stop-color:#322E7C"/>
	</linearGradient>
	<path class="st3" d="M186.5,151.7h-15l-9-59h12.9l5,48.6l18.3-48.6h12.9L186.5,151.7z"/>
	
		<linearGradient id="SVGID_5_" gradientUnits="userSpaceOnUse" x1="163.9012" y1="279.9791" x2="253.213" y2="-61.8102" gradientTransform="matrix(1 0 0 -1 0 172)">
		<stop  offset="4.625822e-03" style="stop-color:#535FA9"/>
		<stop  offset="1" style="stop-color:#322E7C"/>
	</linearGradient>
	<path class="st4" d="M204.2,134c0-12.3,6.1-28.8,24.8-28.8c11.8,0,18.6,7.3,18.5,19.1c0,12.1-6,28.8-24.7,28.8
		C210.9,153.1,204.2,145.9,204.2,134z M235.2,123.4c0-6.4-2.4-9.2-7-9.2c-9.5,0-11.7,13.3-11.7,20.6c0,6.4,2.4,9.1,7,9.1
		C233.1,144,235.1,130.8,235.2,123.4z"/>
	
		<linearGradient id="SVGID_6_" gradientUnits="userSpaceOnUse" x1="208.8619" y1="291.7276" x2="298.1737" y2="-50.0618" gradientTransform="matrix(1 0 0 -1 0 172)">
		<stop  offset="4.625822e-03" style="stop-color:#535FA9"/>
		<stop  offset="1" style="stop-color:#322E7C"/>
	</linearGradient>
	<path class="st5" d="M252.3,138.8l4.6-32.2h11.9l-4.3,30.5c-0.7,4.9,0.6,6.4,3.3,6.4c3.8,0,7.2-3.8,9.9-7.9l4.1-29h11.9l-6.3,45.2
		H277l0.4-7.1c-4,5.1-8.6,8.4-14.5,8.4C254.8,153.1,251.1,147.5,252.3,138.8z"/>
	
		<linearGradient id="SVGID_7_" gradientUnits="userSpaceOnUse" x1="250.0189" y1="302.4822" x2="339.3308" y2="-39.3072" gradientTransform="matrix(1 0 0 -1 0 172)">
		<stop  offset="4.625822e-03" style="stop-color:#535FA9"/>
		<stop  offset="1" style="stop-color:#322E7C"/>
	</linearGradient>
	<path class="st6" d="M336,110.7l-6,7.1c-2.6-2.3-5-3.2-8.1-3.2c-9.7,0-12.3,11.7-12.3,19.7c0,6.7,3,9,7.6,9c3.4,0,5.9-1.1,9.3-3.2
		l4.5,7.9c-4.5,3.2-9.5,5-15.3,5c-11.8,0-18.7-7.4-18.7-19.3c0-11.8,6.7-28.6,24.7-28.6C327.4,105.2,332.3,107.1,336,110.7z"/>
	
		<linearGradient id="SVGID_8_" gradientUnits="userSpaceOnUse" x1="284.8385" y1="311.5808" x2="374.1503" y2="-30.2086" gradientTransform="matrix(1 0 0 -1 0 172)">
		<stop  offset="4.625822e-03" style="stop-color:#535FA9"/>
		<stop  offset="1" style="stop-color:#322E7C"/>
	</linearGradient>
	<path class="st7" d="M376.9,119.1l-4.6,32.6h-11.9l4.3-30.2c0.7-5-0.8-6.3-3-6.3c-4.1,0-7.9,4.8-11.2,11.2l-3.5,25.4h-12l8.9-63.1
		l12.1-1.3l-3.8,27c3.3-5.5,8.6-9.1,14.5-9.1C374.1,105.2,378.1,110.4,376.9,119.1z"/>
	
		<linearGradient id="SVGID_9_" gradientUnits="userSpaceOnUse" x1="329.5083" y1="323.2533" x2="418.8201" y2="-18.5361" gradientTransform="matrix(1 0 0 -1 0 172)">
		<stop  offset="4.625822e-03" style="stop-color:#535FA9"/>
		<stop  offset="1" style="stop-color:#322E7C"/>
	</linearGradient>
	<path class="st8" d="M393.8,135.2c0.3,6.5,3.7,8.8,8.4,8.8c4,0,7.5-1.4,11.7-4.2l4.4,7.3c-4.9,3.6-10.8,6-17.6,6
		c-12.7,0-19.1-7.5-19.1-18.9c0-12.4,6.5-29,25-29c10.7,0,16.1,5.5,16.1,12.2C422.8,130.1,408.2,133.8,393.8,135.2z M410.7,117.9
		c0-2-1.1-4.3-4.9-4.3c-7.1,0-10.3,7.2-11.5,14C406,126.6,410.7,122.9,410.7,117.9z"/>
	
		<linearGradient id="SVGID_10_" gradientUnits="userSpaceOnUse" x1="365.7682" y1="332.7283" x2="455.08" y2="-9.0611" gradientTransform="matrix(1 0 0 -1 0 172)">
		<stop  offset="4.625822e-03" style="stop-color:#535FA9"/>
		<stop  offset="1" style="stop-color:#322E7C"/>
	</linearGradient>
	<path class="st9" d="M458.3,106l-3.4,11.8c-1.4-0.4-2.4-0.6-3.8-0.6c-5.6,0-8.9,5.4-11.5,13l-3.1,21.6h-11.9l6.3-45.2h10.3
		l-0.3,8.6c3.2-6.6,7.9-9.9,12.9-9.9C455.4,105.3,456.9,105.6,458.3,106z"/>
</g>
<g>
	<linearGradient id="SVGID_11_" gradientUnits="userSpaceOnUse" x1="56.8945" y1="37.3472" x2="271.882" y2="37.3472">
		<stop  offset="4.625822e-03" style="stop-color:#535FA9"/>
		<stop  offset="1" style="stop-color:#322E7C"/>
	</linearGradient>
	<path class="st10" d="M143.7,42.9L158,74.8h-17.1l-12-29.3h-8.3l-4,29.3h-15.7l10.5-74.9h22.8c18,0,27.1,6.2,27.1,19.2
		C161.2,28.4,157.5,37.5,143.7,42.9z M122.1,34.2h8.4c11.4,0,14.3-8,14.3-14.3c0-6.1-3.9-8.7-12.2-8.7h-7.4L122.1,34.2z"/>
	<linearGradient id="SVGID_12_" gradientUnits="userSpaceOnUse" x1="56.8945" y1="37.3472" x2="271.882" y2="37.3472">
		<stop  offset="4.625822e-03" style="stop-color:#535FA9"/>
		<stop  offset="1" style="stop-color:#322E7C"/>
	</linearGradient>
	<path class="st11" d="M238,74.8h-15.4l2.6-30.6c0.9-10.7,2.1-21.4,3.7-31.4l-19.9,54h-15l-6-53.8c-0.5,11.3-2.2,21.4-4.2,31.9
		l-5.6,29.9h-15.4l16.3-74.9h19.2l5.2,52.5L222-0.1h20.7L238,74.8z"/>
	<linearGradient id="SVGID_13_" gradientUnits="userSpaceOnUse" x1="56.8945" y1="37.6179" x2="271.882" y2="37.6179">
		<stop  offset="4.625822e-03" style="stop-color:#535FA9"/>
		<stop  offset="1" style="stop-color:#322E7C"/>
	</linearGradient>
	<path class="st12" d="M300.3,19.2c0,10.5-4.9,20.2-34.7,43.8l30.2-0.1l-3.4,11.9h-45.8l1.5-11.3c31.6-28.1,36.4-33.9,36.4-42.8
		c0-5.5-3.4-8.4-8.6-8.4c-5.5,0-9.6,2.5-14.6,7.8l-8.7-8.1c7.1-7.5,15.8-11.6,25.5-11.6C292.5,0.4,300.3,8.6,300.3,19.2z"/>
	<linearGradient id="SVGID_14_" gradientUnits="userSpaceOnUse" x1="56.8945" y1="38.4839" x2="271.882" y2="38.4839">
		<stop  offset="4.625822e-03" style="stop-color:#535FA9"/>
		<stop  offset="1" style="stop-color:#322E7C"/>
	</linearGradient>
	<path class="st13" d="M360.9,27.7c0,19.5-7.1,48.8-32,48.8c-14.6,0-22.4-9.9-22.4-27.5c0-19.6,7-48.6,32-48.6
		C353.1,0.4,360.9,10.1,360.9,27.7z M322.8,38.9c-0.8,5.4-1.2,9.9-1.2,13.3c0,9.3,2.7,12.8,8.1,12.8c7.6,0,12-6.6,14.9-27
		c0.8-5.6,1.2-10,1.2-13.4c0-9.4-2.7-12.7-8.1-12.7C330.1,11.9,325.5,18.8,322.8,38.9z"/>
</g>
</svg>
