<?xml version="1.0" encoding="utf-8"?>
<!-- Generator: Adobe Illustrator 23.0.4, SVG Export Plug-In . SVG Version: 6.00 Build 0)  -->
<svg version="1.1" id="Layer_1" xmlns="http://www.w3.org/2000/svg" xmlns:xlink="http://www.w3.org/1999/xlink" x="0px" y="0px"
	 viewBox="0 0 343.2 132.6" style="enable-background:new 0 0 343.2 132.6;" xml:space="preserve">
<style type="text/css">
	.st0{fill:url(#SVGID_1_);}
	.st1{fill:url(#SVGID_2_);}
	.st2{fill:url(#SVGID_3_);}
	.st3{fill:url(#SVGID_4_);}
	.st4{fill:url(#SVGID_5_);}
	.st5{fill:url(#SVGID_6_);}
	.st6{fill:url(#SVGID_7_);}
	.st7{fill:url(#SVGID_8_);}
	.st8{fill:url(#SVGID_9_);}
	.st9{fill:url(#SVGID_10_);}
	.st10{fill:url(#SVGID_11_);}
	.st11{fill:url(#SVGID_12_);}
	.st12{fill:url(#SVGID_13_);}
	.st13{fill:url(#SVGID_14_);}
	.st14{fill:url(#SVGID_15_);}
	.st15{fill:url(#SVGID_16_);}
</style>
<g>
	<g>
		<linearGradient id="SVGID_1_" gradientUnits="userSpaceOnUse" x1="-14.1024" y1="-33.3358" x2="110.8615" y2="274.1597">
			<stop  offset="4.625822e-03" style="stop-color:#535FA9"/>
			<stop  offset="1" style="stop-color:#322E7C"/>
		</linearGradient>
		<path class="st0" d="M34.9,131.2H19.2L9.7,69.4h13.5l5.3,50.9l19.2-50.9h13.5L34.9,131.2z"/>
		<linearGradient id="SVGID_2_" gradientUnits="userSpaceOnUse" x1="16.2216" y1="-45.6592" x2="141.1855" y2="261.8362">
			<stop  offset="4.625822e-03" style="stop-color:#535FA9"/>
			<stop  offset="1" style="stop-color:#322E7C"/>
		</linearGradient>
		<path class="st1" d="M55.8,112.6c0-12.9,6.4-30.2,26-30.2c12.4,0,19.5,7.7,19.4,20c0,12.7-6.3,30.2-25.9,30.2
			C62.8,132.6,55.8,125,55.8,112.6z M88.3,101.5c0-6.7-2.5-9.7-7.3-9.7c-10,0-12.2,13.9-12.2,21.6c0,6.7,2.5,9.6,7.3,9.6
			C86.1,123.1,88.2,109.2,88.3,101.5z"/>
		<linearGradient id="SVGID_3_" gradientUnits="userSpaceOnUse" x1="61.7442" y1="-64.1593" x2="186.7081" y2="243.3362">
			<stop  offset="4.625822e-03" style="stop-color:#535FA9"/>
			<stop  offset="1" style="stop-color:#322E7C"/>
		</linearGradient>
		<path class="st2" d="M108.4,117.6l4.8-33.8h12.5l-4.5,32c-0.7,5.2,0.6,6.7,3.5,6.7c4,0,7.5-4,10.4-8.3l4.3-30.4h12.5l-6.6,47.4
			h-10.9l0.4-7.4c-4.2,5.4-9,8.8-15.2,8.8C111.1,132.6,107.1,126.7,108.4,117.6z"/>
		<linearGradient id="SVGID_4_" gradientUnits="userSpaceOnUse" x1="103.3295" y1="-81.0592" x2="228.2934" y2="226.4362">
			<stop  offset="4.625822e-03" style="stop-color:#535FA9"/>
			<stop  offset="1" style="stop-color:#322E7C"/>
		</linearGradient>
		<path class="st3" d="M198.5,88.2l-6.3,7.4c-2.7-2.4-5.3-3.3-8.5-3.3c-10.2,0-12.9,12.2-12.9,20.6c0,7.1,3.1,9.5,8,9.5
			c3.6,0,6.2-1.2,9.7-3.4l4.7,8.3c-4.7,3.3-9.9,5.3-16,5.3c-12.4,0-19.6-7.8-19.6-20.2c0-12.3,7.1-30,25.9-30
			C189.5,82.4,194.6,84.4,198.5,88.2z"/>
		<linearGradient id="SVGID_5_" gradientUnits="userSpaceOnUse" x1="137.9602" y1="-95.1329" x2="262.9241" y2="212.3626">
			<stop  offset="4.625822e-03" style="stop-color:#535FA9"/>
			<stop  offset="1" style="stop-color:#322E7C"/>
		</linearGradient>
		<path class="st4" d="M243.6,97l-4.8,34.2h-12.5l4.5-31.7c0.7-5.3-0.8-6.6-3.1-6.6c-4.3,0-8.3,5-11.8,11.7l-3.7,26.6h-12.5
			l9.3-66.2l12.7-1.3l-4,28.3c3.5-5.7,9-9.6,15.2-9.6C240.7,82.4,244.9,87.9,243.6,97z"/>
		<linearGradient id="SVGID_6_" gradientUnits="userSpaceOnUse" x1="183.4438" y1="-113.6171" x2="308.4077" y2="193.8784">
			<stop  offset="4.625822e-03" style="stop-color:#535FA9"/>
			<stop  offset="1" style="stop-color:#322E7C"/>
		</linearGradient>
		<path class="st5" d="M263.6,113.9c0.4,6.8,3.8,9.2,8.8,9.2c4.2,0,7.9-1.4,12.2-4.4l4.6,7.7c-5.2,3.8-11.4,6.3-18.4,6.3
			c-13.3,0-20-7.9-20-19.8c0-13,6.8-30.4,26.3-30.4c11.2,0,16.9,5.8,16.9,12.8C294,108.5,278.7,112.4,263.6,113.9z M281.3,95.7
			c0-2.1-1.2-4.6-5.1-4.6c-7.4,0-10.8,7.5-12.1,14.7C276.4,104.8,281.3,101,281.3,95.7z"/>
		<linearGradient id="SVGID_7_" gradientUnits="userSpaceOnUse" x1="219.9743" y1="-128.4628" x2="344.9382" y2="179.0326">
			<stop  offset="4.625822e-03" style="stop-color:#535FA9"/>
			<stop  offset="1" style="stop-color:#322E7C"/>
		</linearGradient>
		<path class="st6" d="M333.4,83.2l-3.6,12.3c-1.4-0.4-2.5-0.6-4-0.6c-5.9,0-9.3,5.6-12.1,13.6l-3.2,22.7h-12.5l6.6-47.4h10.8
			l-0.3,9c3.4-6.9,8.3-10.4,13.5-10.4C330.5,82.5,332,82.8,333.4,83.2z"/>
	</g>
	<g>
		<linearGradient id="SVGID_8_" gradientUnits="userSpaceOnUse" x1="-3.685" y1="-28.0935" x2="121.279" y2="279.402">
			<stop  offset="4.625822e-03" style="stop-color:#535FA9"/>
			<stop  offset="1" style="stop-color:#322E7C"/>
		</linearGradient>
		<path class="st7" d="M38.1,33.7c0,8.6-5.6,15.7-22.8,15.7H0L6.9,0h14.3c10.7,0,18,3.1,18,11.2c0,7.1-5.4,10.8-10.9,12.1
			C33.3,24.3,38.1,26.6,38.1,33.7z M27.4,33c0-4.4-3.4-5.8-8-5.8h-5.9l-2,14.4h4.6C25.2,41.6,27.4,37.9,27.4,33z M16.2,7.6
			l-1.7,12.5h4.9c6,0,9.1-3.1,9.1-7.9c0-3.6-2.8-4.6-7.1-4.6H16.2z"/>
		<linearGradient id="SVGID_9_" gradientUnits="userSpaceOnUse" x1="32.7513" y1="-42.9009" x2="157.7152" y2="264.5946">
			<stop  offset="4.625822e-03" style="stop-color:#535FA9"/>
			<stop  offset="1" style="stop-color:#322E7C"/>
		</linearGradient>
		<path class="st8" d="M44.1,38.5l3.9-27h10l-3.6,25.6c-0.6,4.1,0.5,5.4,2.8,5.4c3.2,0,6-3.2,8.3-6.6l3.4-24.3h10l-5.3,37.8h-8.7
			l0.4-5.9c-3.4,4.3-7.2,7.1-12.1,7.1C46.2,50.5,43.1,45.8,44.1,38.5z"/>
		<linearGradient id="SVGID_10_" gradientUnits="userSpaceOnUse" x1="62.2533" y1="-54.8903" x2="187.2172" y2="252.6052">
			<stop  offset="4.625822e-03" style="stop-color:#535FA9"/>
			<stop  offset="1" style="stop-color:#322E7C"/>
		</linearGradient>
		<path class="st9" d="M103,49.6c-4.1,9.2-11.1,14.7-22.6,15.5l-0.3-7.3c7.6-1,10.6-3.3,13.5-8.4H90l-6.4-37.8h10.5l3.1,31l12.1-31
			h10.5L103,49.6z"/>
		<linearGradient id="SVGID_11_" gradientUnits="userSpaceOnUse" x1="104.0709" y1="-73.8184" x2="229.0348" y2="233.677">
			<stop  offset="4.625822e-03" style="stop-color:#535FA9"/>
			<stop  offset="1" style="stop-color:#322E7C"/>
		</linearGradient>
		<path class="st10" d="M163.9,12.9c0,6.8-3.1,13.1-22.9,28.7l19.9-0.1l-2.2,7.9h-30.2l1-7.4c20.8-18.6,24-22.3,24-28.2
			c0-3.6-2.3-5.6-5.7-5.6c-3.6,0-6.3,1.7-9.6,5.1L132.5,8c4.7-4.9,10.1-7.6,16.8-7.6C158.8,0.4,163.9,5.8,163.9,12.9z"/>
		<linearGradient id="SVGID_12_" gradientUnits="userSpaceOnUse" x1="147.2381" y1="-93.9395" x2="272.202" y2="213.5559">
			<stop  offset="4.625822e-03" style="stop-color:#535FA9"/>
			<stop  offset="1" style="stop-color:#322E7C"/>
		</linearGradient>
		<path class="st11" d="M210.9,7.7H194l-1.9,13.9h14.7l-1.1,7.6H191l-2.8,20.1h-10.4L184.7,0h28.3L210.9,7.7z"/>
		<linearGradient id="SVGID_13_" gradientUnits="userSpaceOnUse" x1="169.3832" y1="-102.9391" x2="294.3471" y2="204.5563">
			<stop  offset="4.625822e-03" style="stop-color:#535FA9"/>
			<stop  offset="1" style="stop-color:#322E7C"/>
		</linearGradient>
		<path class="st12" d="M237.6,11.1l-2.9,9.8c-1.1-0.4-2-0.5-3.2-0.5c-4.7,0-7.4,4.5-9.6,10.8l-2.6,18.1h-10l5.3-37.8h8.6l-0.2,7.2
			c2.7-5.5,6.6-8.3,10.8-8.3C235.3,10.5,236.5,10.7,237.6,11.1z"/>
		<linearGradient id="SVGID_14_" gradientUnits="userSpaceOnUse" x1="194.6702" y1="-113.2156" x2="319.6341" y2="194.2798">
			<stop  offset="4.625822e-03" style="stop-color:#535FA9"/>
			<stop  offset="1" style="stop-color:#322E7C"/>
		</linearGradient>
		<path class="st13" d="M245.3,35.5c0.3,5.4,3.1,7.4,7.1,7.4c3.4,0,6.3-1.1,9.8-3.5l3.7,6.1c-4.1,3-9.1,5-14.7,5
			c-10.6,0-16-6.3-16-15.8c0-10.3,5.4-24.3,21-24.3c8.9,0,13.5,4.6,13.5,10.2C269.6,31.3,257.4,34.3,245.3,35.5z M259.5,21.1
			c0-1.6-0.9-3.6-4.1-3.6c-5.9,0-8.6,6-9.6,11.7C255.5,28.3,259.5,25.3,259.5,21.1z"/>
		<linearGradient id="SVGID_15_" gradientUnits="userSpaceOnUse" x1="226.647" y1="-126.2107" x2="351.6109" y2="181.2847">
			<stop  offset="4.625822e-03" style="stop-color:#535FA9"/>
			<stop  offset="1" style="stop-color:#322E7C"/>
		</linearGradient>
		<path class="st14" d="M282.5,35.5c0.3,5.4,3.1,7.4,7.1,7.4c3.4,0,6.3-1.1,9.8-3.5l3.7,6.1c-4.1,3-9.1,5-14.7,5
			c-10.6,0-16-6.3-16-15.8c0-10.3,5.4-24.3,21-24.3c8.9,0,13.5,4.6,13.5,10.2C306.9,31.3,294.7,34.3,282.5,35.5z M296.7,21.1
			c0-1.6-0.9-3.6-4.1-3.6c-5.9,0-8.6,6-9.6,11.7C292.8,28.3,296.7,25.3,296.7,21.1z"/>
		<linearGradient id="SVGID_16_" gradientUnits="userSpaceOnUse" x1="265.0965" y1="-146.4012" x2="390.0604" y2="161.0942">
			<stop  offset="4.625822e-03" style="stop-color:#535FA9"/>
			<stop  offset="1" style="stop-color:#322E7C"/>
		</linearGradient>
		<path class="st15" d="M336.5,49.4h-9.8l5.3-37.4l-11.3,6.4l-3.4-7.5l17.1-9.6h8.9L336.5,49.4z"/>
	</g>
</g>
</svg>
