<?xml version="1.0" encoding="utf-8"?>
<!-- Generator: Adobe Illustrator 23.0.4, SVG Export Plug-In . SVG Version: 6.00 Build 0)  -->
<svg version="1.1" id="Layer_1" xmlns="http://www.w3.org/2000/svg" xmlns:xlink="http://www.w3.org/1999/xlink" x="0px" y="0px"
	 viewBox="0 0 241.8 156" style="enable-background:new 0 0 241.8 156;" xml:space="preserve">
<style type="text/css">
	.st0{fill:url(#SVGID_1_);}
	.st1{fill:url(#SVGID_2_);}
	.st2{fill:url(#SVGID_3_);}
	.st3{fill:url(#SVGID_4_);}
	.st4{fill:url(#SVGID_5_);}
	.st5{fill:url(#SVGID_6_);}
	.st6{fill:url(#SVGID_7_);}
	.st7{fill:url(#SVGID_8_);}
	.st8{fill:url(#SVGID_9_);}
	.st9{fill:url(#SVGID_10_);}
</style>
<g>
	<linearGradient id="SVGID_1_" gradientUnits="userSpaceOnUse" x1="-0.3358" y1="-24.7922" x2="147.409" y2="290.5861">
		<stop  offset="4.625822e-03" style="stop-color:#535FA9"/>
		<stop  offset="1" style="stop-color:#322E7C"/>
	</linearGradient>
	<path class="st0" d="M53,12.1l-7.5,6.7c-3.9-3.2-7.1-4.6-12-4.6c-15.1,0-19.9,18.2-19.9,32c0,9.9,3.9,13.6,11.2,13.6
		c3.3,0,6.4-0.7,9.4-2.3l2.3-15.2h-8.7l0.1-9.7h22.7l-4.3,30.7c-6.6,4.2-14.4,6.5-22.5,6.5C8.2,69.8,0,61.2,0,44.9
		C0,26.4,9.5,4.3,33.6,4.3C42.3,4.3,48.6,7.5,53,12.1z"/>
	<linearGradient id="SVGID_2_" gradientUnits="userSpaceOnUse" x1="34.213" y1="-40.9772" x2="181.9577" y2="274.4011">
		<stop  offset="4.625822e-03" style="stop-color:#535FA9"/>
		<stop  offset="1" style="stop-color:#322E7C"/>
	</linearGradient>
	<path class="st1" d="M92,19.8l-3.6,12.5c-1.4-0.5-2.5-0.6-4.1-0.6c-6,0-9.4,5.7-12.2,13.7l-3.3,23H56.2l6.7-47.9h10.9l-0.3,9.1
		c3.4-7,8.4-10.5,13.7-10.5C89,19.1,90.5,19.4,92,19.8z"/>
	<linearGradient id="SVGID_3_" gradientUnits="userSpaceOnUse" x1="66.4328" y1="-56.0712" x2="214.1776" y2="259.3071">
		<stop  offset="4.625822e-03" style="stop-color:#535FA9"/>
		<stop  offset="1" style="stop-color:#322E7C"/>
	</linearGradient>
	<path class="st2" d="M134.7,23.8l-4.5,31.5c-0.5,3.3-0.3,4.9,2.4,6l-3.6,8.4c-5.2-0.5-9.3-2.8-10.5-8c-3.4,4.8-8.1,8.1-14.3,8.1
		c-10,0-15.6-7.5-15.6-18.9c0-13.7,7.2-31.9,27.1-31.9C122.2,19,128.6,20.5,134.7,23.8z M101.8,50.9c0,7,2.5,9.3,6.1,9.3
		c3.9,0,7-2.8,9.9-7.1l3.4-23.7c-2-0.8-3.5-1.1-5.9-1.1C105.4,28.3,101.8,41.2,101.8,50.9z"/>
	<linearGradient id="SVGID_4_" gradientUnits="userSpaceOnUse" x1="105.4594" y1="-74.3539" x2="253.2042" y2="241.0243">
		<stop  offset="4.625822e-03" style="stop-color:#535FA9"/>
		<stop  offset="1" style="stop-color:#322E7C"/>
	</linearGradient>
	<path class="st3" d="M184.7,33.9L180,68.4h-12.7l4.5-32.1c0.7-5.3-0.9-6.7-3.3-6.7c-4.3,0-8.1,5.1-11.7,11.8L153,68.4h-12.7
		l6.7-47.9H158l-0.4,8.7C161.8,23,167.5,19,174,19C181.8,19,186.1,24.5,184.7,33.9z"/>
	<linearGradient id="SVGID_5_" gradientUnits="userSpaceOnUse" x1="156.973" y1="-98.4864" x2="304.7177" y2="216.8919">
		<stop  offset="4.625822e-03" style="stop-color:#535FA9"/>
		<stop  offset="1" style="stop-color:#322E7C"/>
	</linearGradient>
	<path class="st4" d="M241.8,1.4l-9.4,67h-11.2l0.1-7.1c-3.2,4.7-7.9,8.5-14.3,8.5c-10,0-15.1-7.4-15.1-19.3
		c0-12.9,6.4-31.6,22.8-31.6c5,0,8.8,2.1,11.3,5l3.3-24L241.8,1.4z M205.1,50.8c0,7.1,2.4,9.4,5.9,9.4c4.5,0,8-4.2,11.2-9.3
		l2.6-18.4c-1.9-2.5-4.2-4-7.4-4C207.8,28.5,205.1,42.4,205.1,50.8z"/>
	<linearGradient id="SVGID_6_" gradientUnits="userSpaceOnUse" x1="-20.0501" y1="-15.5567" x2="127.6947" y2="299.8216">
		<stop  offset="4.625822e-03" style="stop-color:#535FA9"/>
		<stop  offset="1" style="stop-color:#322E7C"/>
	</linearGradient>
	<path class="st5" d="M73.4,109.3c0,11.4-7.2,24-27.5,24h-7.1l-3,21.3H22.7L31.5,92h19C64.7,92,73.4,97.7,73.4,109.3z M59.7,109.7
		c0-5.7-3.7-8.1-10.4-8.1h-6.1l-3,21.9h5.7C57.1,123.5,59.7,115.9,59.7,109.7z"/>
	<linearGradient id="SVGID_7_" gradientUnits="userSpaceOnUse" x1="15.4725" y1="-32.1979" x2="163.2173" y2="283.1804">
		<stop  offset="4.625822e-03" style="stop-color:#535FA9"/>
		<stop  offset="1" style="stop-color:#322E7C"/>
	</linearGradient>
	<path class="st6" d="M109.5,106l-3.6,12.5c-1.4-0.5-2.5-0.6-4.1-0.6c-6,0-9.4,5.7-12.2,13.7l-3.3,23H73.7l6.7-47.9h10.9l-0.3,9.1
		c3.4-7,8.4-10.5,13.7-10.5C106.5,105.3,108.1,105.6,109.5,106z"/>
	<linearGradient id="SVGID_8_" gradientUnits="userSpaceOnUse" x1="42.8944" y1="-45.0442" x2="190.6391" y2="270.3341">
		<stop  offset="4.625822e-03" style="stop-color:#535FA9"/>
		<stop  offset="1" style="stop-color:#322E7C"/>
	</linearGradient>
	<path class="st7" d="M121.6,154.6H109l6.7-47.9h12.7L121.6,154.6z M116.7,90.3c0-4.8,3.7-8.3,8.5-8.3c4.3,0,7,2.8,7,6.7
		c0,4.8-3.7,8.3-8.5,8.3C119.5,97,116.7,94.1,116.7,90.3z"/>
	<linearGradient id="SVGID_9_" gradientUnits="userSpaceOnUse" x1="63.9597" y1="-54.9126" x2="211.7044" y2="260.4657">
		<stop  offset="4.625822e-03" style="stop-color:#535FA9"/>
		<stop  offset="1" style="stop-color:#322E7C"/>
	</linearGradient>
	<path class="st8" d="M171.5,115.9l-25.2,28.8h21.5l-2.6,9.9h-36l1.2-9.2l25.3-28.8h-19.3l1.4-9.9h34.8L171.5,115.9z"/>
	<linearGradient id="SVGID_10_" gradientUnits="userSpaceOnUse" x1="101.3687" y1="-72.4376" x2="249.1135" y2="242.9407">
		<stop  offset="4.625822e-03" style="stop-color:#535FA9"/>
		<stop  offset="1" style="stop-color:#322E7C"/>
	</linearGradient>
	<path class="st9" d="M186.6,137.1c0.4,6.9,3.9,9.3,9,9.3c4.3,0,8-1.4,12.4-4.4l4.7,7.8c-5.2,3.8-11.5,6.3-18.6,6.3
		c-13.5,0-20.3-8-20.3-20.1c0-13.1,6.9-30.7,26.6-30.7c11.3,0,17.1,5.9,17.1,12.9C217.4,131.6,201.9,135.5,186.6,137.1z
		 M204.6,118.7c0-2.1-1.2-4.6-5.2-4.6c-7.5,0-10.9,7.6-12.2,14.8C199.6,127.9,204.6,124,204.6,118.7z"/>
</g>
</svg>
