<?xml version="1.0" encoding="utf-8"?>
<!-- Generator: Adobe Illustrator 23.0.4, SVG Export Plug-In . SVG Version: 6.00 Build 0)  -->
<svg version="1.1" id="Layer_1" xmlns="http://www.w3.org/2000/svg" xmlns:xlink="http://www.w3.org/1999/xlink" x="0px" y="0px"
	 viewBox="0 0 187.2 25.5" style="enable-background:new 0 0 187.2 25.5;" xml:space="preserve">
<style type="text/css">
	.st0{fill:url(#SVGID_1_);}
	.st1{fill:url(#SVGID_2_);}
	.st2{fill:url(#SVGID_3_);}
	.st3{fill:url(#SVGID_4_);}
	.st4{fill:url(#SVGID_5_);}
	.st5{fill:url(#SVGID_6_);}
	.st6{fill:url(#SVGID_7_);}
	.st7{fill:url(#SVGID_8_);}
	.st8{fill:url(#SVGID_9_);}
	.st9{fill:url(#SVGID_10_);}
	.st10{fill:url(#SVGID_11_);}
	.st11{fill:url(#SVGID_12_);}
	.st12{fill:url(#SVGID_13_);}
	.st13{fill:url(#SVGID_14_);}
	.st14{fill:url(#SVGID_15_);}
	.st15{fill:url(#SVGID_16_);}
	.st16{fill:url(#SVGID_17_);}
	.st17{fill:url(#SVGID_18_);}
	.st18{fill:url(#SVGID_19_);}
	.st19{fill:url(#SVGID_20_);}
	.st20{fill:url(#SVGID_21_);}
</style>
<g>
	<linearGradient id="SVGID_1_" gradientUnits="userSpaceOnUse" x1="706.0054" y1="401.7849" x2="751.7937" y2="452.8363">
		<stop  offset="0" style="stop-color:#545EA9"/>
		<stop  offset="0.7457" style="stop-color:#322D7D"/>
	</linearGradient>
	<path class="st0" d="M720.6,402.6l-2,1.9c-1.2-1.1-2.3-1.6-3.8-1.6c-1.9,0-3.2,0.9-3.2,2.5c0,1.2,0.7,1.8,3.3,2.7
		c2.8,0.9,4.8,2.2,4.8,5.2s-2.1,6.3-7.6,6.3c-2.9,0-5-1.1-6.4-2.6l2.1-2c1.1,1.2,2.5,1.8,4.4,1.8c2.4,0,3.9-1.2,3.9-3.1
		c0-1.4-0.8-2.1-3.1-2.9c-3.3-1.1-4.9-2.5-4.9-5c0-2.6,2.2-5.5,6.8-5.5C717.3,400.2,719.2,401.1,720.6,402.6z"/>
	<linearGradient id="SVGID_2_" gradientUnits="userSpaceOnUse" x1="712.7986" y1="395.692" x2="758.5869" y2="446.7434">
		<stop  offset="0" style="stop-color:#545EA9"/>
		<stop  offset="0.7457" style="stop-color:#322D7D"/>
	</linearGradient>
	<path class="st1" d="M726,414.9c-0.2,1.4,0.2,1.9,1.1,1.9c0.6,0,1.2-0.2,1.8-0.5l1,2.3c-1.1,0.7-2.4,1-3.6,1
		c-2.7,0-4.1-1.7-3.7-4.7l1-7.4h-2.2l0.3-2.5h2.3l0.9-3.2l2.8-0.3l-0.5,3.5h3.3l-0.7,2.5H727L726,414.9z"/>
	<linearGradient id="SVGID_3_" gradientUnits="userSpaceOnUse" x1="718.4327" y1="390.6387" x2="764.2211" y2="441.6901">
		<stop  offset="0" style="stop-color:#545EA9"/>
		<stop  offset="0.7457" style="stop-color:#322D7D"/>
	</linearGradient>
	<path class="st2" d="M734.4,413.9c0.1,2.2,1.2,2.9,2.8,2.9c1.3,0,2.4-0.4,3.7-1.3l1.3,2.1c-1.6,1.1-3.3,1.8-5.4,1.8
		c-3.9,0-5.8-2.3-5.8-5.9c0-3.9,2-9.1,7.7-9.1c3.2,0,4.9,1.7,4.9,3.7C743.6,412.3,739.1,413.5,734.4,413.9z M740.1,408.5
		c0-0.6-0.3-1.4-1.6-1.4c-2.4,0-3.5,2.4-3.9,4.7C738.4,411.3,740.1,410.3,740.1,408.5z"/>
	<linearGradient id="SVGID_4_" gradientUnits="userSpaceOnUse" x1="724.0107" y1="385.6358" x2="769.799" y2="436.6872">
		<stop  offset="0" style="stop-color:#545EA9"/>
		<stop  offset="0.7457" style="stop-color:#322D7D"/>
	</linearGradient>
	<path class="st3" d="M747,405h2.9l0,1.7c1.5-1.6,2.9-2.1,4.2-2.1c2.8,0,4.4,2,4.4,5.5c0,4-1.9,9.4-7.5,9.4c-1.1,0-1.9-0.2-2.6-0.4
		l-0.8,5.5l-3.4,0.4L747,405z M755.1,410.1c0-2.2-0.9-2.9-2.1-2.9c-1.3,0-2.2,0.8-3.2,1.8l-1,7.6c0.7,0.2,1.3,0.4,2.1,0.4
		C753.9,417,755.1,413,755.1,410.1z"/>
	<linearGradient id="SVGID_5_" gradientUnits="userSpaceOnUse" x1="738.0214" y1="373.0695" x2="783.8098" y2="424.1209">
		<stop  offset="0" style="stop-color:#545EA9"/>
		<stop  offset="0.7457" style="stop-color:#322D7D"/>
	</linearGradient>
	<path class="st4" d="M778.9,405.5c0,2.6-1.3,5-8.7,11l7.6-0.1l-0.7,2.7h-11.1l0.3-2.6c7.9-7.1,9.2-8.6,9.2-10.9
		c0-1.4-0.9-2.2-2.2-2.2c-1.4,0-2.5,0.6-3.7,1.9l-2-1.8c1.7-1.8,3.7-2.8,6.1-2.8C777,400.8,778.9,402.8,778.9,405.5z"/>
</g>
<g>
	<linearGradient id="SVGID_6_" gradientUnits="userSpaceOnUse" x1="7.186" y1="-22.8222" x2="8.6883" y2="125.1544">
		<stop  offset="0" style="stop-color:#545EA9"/>
		<stop  offset="0.7457" style="stop-color:#322D7D"/>
	</linearGradient>
	<path class="st5" d="M14.6,4.6l-2,2c-1-1-2.2-1.4-3.5-1.4c-1.6,0-2.8,0.8-2.8,2.1c0,1.1,0.6,1.6,3,2.3c2.7,0.9,4.4,2.1,4.4,4.8
		c0,2.8-2,5.9-7.2,5.9c-2.8,0-4.8-1.1-6.1-2.5l2.1-2.1c1,1.1,2.3,1.7,4,1.7c2,0,3.3-1,3.3-2.6c0-1.2-0.7-1.8-2.8-2.6
		c-3.2-1.1-4.5-2.4-4.5-4.7c0-2.6,2.1-5.3,6.5-5.3C11.5,2.4,13.3,3.2,14.6,4.6z"/>
	<linearGradient id="SVGID_7_" gradientUnits="userSpaceOnUse" x1="20.9849" y1="-22.9623" x2="22.4872" y2="125.0143">
		<stop  offset="0" style="stop-color:#545EA9"/>
		<stop  offset="0.7457" style="stop-color:#322D7D"/>
	</linearGradient>
	<path class="st6" d="M17.2,6.8h3.1l0,1.5c1.4-1.4,2.7-1.9,3.9-1.9c2.6,0,4,1.9,4,5.1c0,3.8-1.8,8.8-7,8.8c-1.1,0-1.8-0.2-2.4-0.4
		l-0.7,5.1l-3.5,0.4L17.2,6.8z M24.6,11.5c0-1.9-0.7-2.5-1.7-2.5c-1,0-1.9,0.6-2.7,1.6l-0.9,6.8c0.6,0.2,1.1,0.3,1.8,0.3
		C23.7,17.7,24.6,14.2,24.6,11.5z"/>
	<linearGradient id="SVGID_8_" gradientUnits="userSpaceOnUse" x1="35.4661" y1="-23.1093" x2="36.9684" y2="124.8673">
		<stop  offset="0" style="stop-color:#545EA9"/>
		<stop  offset="0.7457" style="stop-color:#322D7D"/>
	</linearGradient>
	<path class="st7" d="M33.4,15.1c0.1,1.9,1.1,2.6,2.5,2.6c1.2,0,2.2-0.4,3.4-1.2l1.3,2.1c-1.4,1-3.2,1.7-5.1,1.7
		c-3.7,0-5.6-2.2-5.6-5.5c0-3.6,1.9-8.5,7.3-8.5c3.1,0,4.7,1.6,4.7,3.6C41.8,13.7,37.6,14.7,33.4,15.1z M38.3,10.1
		c0-0.6-0.3-1.3-1.4-1.3c-2.1,0-3,2.1-3.4,4.1C36.9,12.6,38.3,11.6,38.3,10.1z"/>
	<linearGradient id="SVGID_9_" gradientUnits="userSpaceOnUse" x1="48.1074" y1="-23.2377" x2="49.6097" y2="124.739">
		<stop  offset="0" style="stop-color:#545EA9"/>
		<stop  offset="0.7457" style="stop-color:#322D7D"/>
	</linearGradient>
	<path class="st8" d="M54.1,8l-1.7,2.1c-0.7-0.7-1.5-0.9-2.4-0.9c-2.8,0-3.6,3.4-3.6,5.7c0,2,0.9,2.6,2.2,2.6c1,0,1.7-0.3,2.7-0.9
		l1.3,2.3c-1.3,0.9-2.8,1.5-4.4,1.5c-3.5,0-5.4-2.2-5.4-5.6c0-3.4,2-8.4,7.2-8.4C51.6,6.4,53,6.9,54.1,8z"/>
	<linearGradient id="SVGID_10_" gradientUnits="userSpaceOnUse" x1="57.316" y1="-23.3312" x2="58.8183" y2="124.6455">
		<stop  offset="0" style="stop-color:#545EA9"/>
		<stop  offset="0.7457" style="stop-color:#322D7D"/>
	</linearGradient>
	<path class="st9" d="M57.9,20h-3.5l1.8-13.2h3.5L57.9,20z M56.6,2.3c0-1.3,1-2.3,2.3-2.3c1.2,0,1.9,0.8,1.9,1.8
		c0,1.3-1,2.3-2.3,2.3C57.4,4.1,56.6,3.3,56.6,2.3z"/>
	<linearGradient id="SVGID_11_" gradientUnits="userSpaceOnUse" x1="67.3206" y1="-23.4327" x2="68.8229" y2="124.5439">
		<stop  offset="0" style="stop-color:#545EA9"/>
		<stop  offset="0.7457" style="stop-color:#322D7D"/>
	</linearGradient>
	<path class="st10" d="M74,7.7l-1.2,8.7c-0.1,0.9-0.1,1.3,0.7,1.6l-1,2.3c-1.4-0.1-2.6-0.8-2.9-2.2c-0.9,1.3-2.2,2.2-3.9,2.2
		c-2.8,0-4.3-2.1-4.3-5.2c0-3.8,2-8.8,7.5-8.8C70.6,6.4,72.3,6.8,74,7.7z M65,15.2c0,1.9,0.7,2.6,1.7,2.6c1.1,0,1.9-0.8,2.7-2
		l0.9-6.5C69.8,9,69.4,9,68.7,9C66,9,65,12.5,65,15.2z"/>
	<linearGradient id="SVGID_12_" gradientUnits="userSpaceOnUse" x1="78.34" y1="-23.5446" x2="79.8423" y2="124.432">
		<stop  offset="0" style="stop-color:#545EA9"/>
		<stop  offset="0.7457" style="stop-color:#322D7D"/>
	</linearGradient>
	<path class="st11" d="M79.4,16.7c-0.1,0.6,0.1,0.9,0.5,0.9c0.2,0,0.5-0.1,0.7-0.1l0.5,2.5c-0.7,0.3-1.5,0.5-2.3,0.5
		c-2.1,0-3.2-1.3-2.9-3.7L78,1.5l3.5-0.4L79.4,16.7z"/>
	<linearGradient id="SVGID_13_" gradientUnits="userSpaceOnUse" x1="95.7742" y1="-23.7216" x2="97.2765" y2="124.255">
		<stop  offset="0" style="stop-color:#545EA9"/>
		<stop  offset="0.7457" style="stop-color:#322D7D"/>
	</linearGradient>
	<path class="st12" d="M103.4,4.5l-2.1,1.8c-1.1-0.9-1.9-1.3-3.3-1.3c-4.1,0-5.5,5-5.5,8.8c0,2.7,1.1,3.7,3.1,3.7
		c0.9,0,1.8-0.2,2.6-0.6l0.6-4.2h-2.4l0-2.7h6.2l-1.2,8.4c-1.8,1.1-3.9,1.8-6.2,1.8c-4.3,0-6.5-2.4-6.5-6.8c0-5.1,2.6-11.2,9.2-11.2
		C100.5,2.4,102.2,3.2,103.4,4.5z"/>
	<linearGradient id="SVGID_14_" gradientUnits="userSpaceOnUse" x1="107.095" y1="-23.8365" x2="108.5973" y2="124.1401">
		<stop  offset="0" style="stop-color:#545EA9"/>
		<stop  offset="0.7457" style="stop-color:#322D7D"/>
	</linearGradient>
	<path class="st13" d="M107.7,20h-3.5l1.8-13.2h3.5L107.7,20z M106.4,2.3c0-1.3,1-2.3,2.3-2.3c1.2,0,1.9,0.8,1.9,1.8
		c0,1.3-1,2.3-2.3,2.3C107.1,4.1,106.4,3.3,106.4,2.3z"/>
	<linearGradient id="SVGID_15_" gradientUnits="userSpaceOnUse" x1="115.0273" y1="-23.9171" x2="116.5296" y2="124.0596">
		<stop  offset="0" style="stop-color:#545EA9"/>
		<stop  offset="0.7457" style="stop-color:#322D7D"/>
	</linearGradient>
	<path class="st14" d="M117,5.6l-0.2,1.2h3.1l-0.7,2.5h-2.7l-1.3,9.4c-0.6,4.2-2.7,5.6-5.8,6.7l-0.9-2.6c1.9-0.7,2.9-1.5,3.3-4.1
		l1.3-9.5h-2l0.3-2.5h2l0.2-1.4c0.3-2.5,2.1-4.3,5.2-4.3c1.5,0,2.6,0.5,3.5,1.1l-1.2,2.1c-0.7-0.4-1.4-0.5-2-0.5
		C117.8,3.8,117.2,4.4,117,5.6z"/>
	<linearGradient id="SVGID_16_" gradientUnits="userSpaceOnUse" x1="123.5557" y1="-24.0037" x2="125.058" y2="123.973">
		<stop  offset="0" style="stop-color:#545EA9"/>
		<stop  offset="0.7457" style="stop-color:#322D7D"/>
	</linearGradient>
	<path class="st15" d="M124,15.8c-0.2,1.3,0.1,1.7,0.9,1.7c0.5,0,1-0.2,1.6-0.4l0.9,2.3c-1,0.6-2.3,1-3.4,1c-2.6,0-3.9-1.6-3.6-4.6
		l0.9-6.5h-1.9l0.3-2.5h2.1l0.8-3l3-0.3l-0.4,3.3h3l-0.7,2.5h-2.7L124,15.8z"/>
	<linearGradient id="SVGID_17_" gradientUnits="userSpaceOnUse" x1="140.5863" y1="-24.1765" x2="142.0886" y2="123.8001">
		<stop  offset="0" style="stop-color:#545EA9"/>
		<stop  offset="0.7457" style="stop-color:#322D7D"/>
	</linearGradient>
	<path class="st16" d="M143.3,10.7L147,20h-3.9l-2.2-6.9l-4.1,6.9h-3.9l6.1-9.2l-3.3-8.1h3.9l1.8,5.8l3.6-5.8h3.9L143.3,10.7z"/>
	<linearGradient id="SVGID_18_" gradientUnits="userSpaceOnUse" x1="153.9886" y1="-24.3126" x2="155.4909" y2="123.664">
		<stop  offset="0" style="stop-color:#545EA9"/>
		<stop  offset="0.7457" style="stop-color:#322D7D"/>
	</linearGradient>
	<path class="st17" d="M159.8,5.6l-8.1,14.7l-3.1-1.1l7.5-13.4h-6.8l0.4-2.7h10.4L159.8,5.6z"/>
	<linearGradient id="SVGID_19_" gradientUnits="userSpaceOnUse" x1="165.8333" y1="-24.4329" x2="167.3356" y2="123.5438">
		<stop  offset="0" style="stop-color:#545EA9"/>
		<stop  offset="0.7457" style="stop-color:#322D7D"/>
	</linearGradient>
	<path class="st18" d="M167.4,2.9c3.3,0,5.1,2.2,5.1,6.3c0,4.5-1.7,11.2-7.4,11.2c-3.3,0-5.1-2.3-5.1-6.3
		C160,9.5,161.6,2.9,167.4,2.9z M167.2,5.5c-2.8,0-3.8,5.6-3.8,9.2c0,2.2,0.6,3,1.8,3c2.7,0,3.8-5.6,3.8-9.3
		C169,6.3,168.3,5.5,167.2,5.5z"/>
	<linearGradient id="SVGID_20_" gradientUnits="userSpaceOnUse" x1="179.9917" y1="-24.5766" x2="181.494" y2="123.4">
		<stop  offset="0" style="stop-color:#545EA9"/>
		<stop  offset="0.7457" style="stop-color:#322D7D"/>
	</linearGradient>
	<path class="st19" d="M181.5,2.9c3.3,0,5.1,2.2,5.1,6.3c0,4.5-1.7,11.2-7.4,11.2c-3.3,0-5.1-2.3-5.1-6.3
		C174.1,9.5,175.8,2.9,181.5,2.9z M181.4,5.5c-2.8,0-3.8,5.6-3.8,9.2c0,2.2,0.6,3,1.8,3c2.7,0,3.8-5.6,3.8-9.3
		C183.2,6.3,182.5,5.5,181.4,5.5z"/>
	<linearGradient id="SVGID_21_" gradientUnits="userSpaceOnUse" x1="93.1907" y1="-18.0917" x2="94.5166" y2="112.5123">
		<stop  offset="0" style="stop-color:#545EA9"/>
		<stop  offset="0.7457" style="stop-color:#322D7D"/>
	</linearGradient>
	<path class="st20" d="M0,23.1v-1.2h187.2v1.2H0z"/>
</g>
</svg>
