<?xml version="1.0" encoding="utf-8"?>
<!-- Generator: Adobe Illustrator 23.0.4, SVG Export Plug-In . SVG Version: 6.00 Build 0)  -->
<svg version="1.1" id="Layer_1" xmlns="http://www.w3.org/2000/svg" xmlns:xlink="http://www.w3.org/1999/xlink" x="0px" y="0px"
	 viewBox="0 0 73 24.8" style="enable-background:new 0 0 73 24.8;" xml:space="preserve">
<style type="text/css">
	.st0{fill:url(#SVGID_1_);}
	.st1{fill:url(#SVGID_2_);}
	.st2{fill:url(#SVGID_3_);}
	.st3{fill:url(#SVGID_4_);}
	.st4{fill:url(#SVGID_5_);}
	.st5{fill:url(#SVGID_6_);}
	.st6{fill:url(#SVGID_7_);}
	.st7{fill:url(#SVGID_8_);}
	.st8{fill:url(#SVGID_9_);}
	.st9{fill:url(#SVGID_10_);}
</style>
<g>
	<linearGradient id="SVGID_1_" gradientUnits="userSpaceOnUse" x1="649.1679" y1="401.8351" x2="694.9563" y2="452.8865">
		<stop  offset="0" style="stop-color:#545EA9"/>
		<stop  offset="0.7457" style="stop-color:#322D7D"/>
	</linearGradient>
	<path class="st0" d="M663.8,402.6l-2,1.9c-1.2-1.1-2.3-1.6-3.8-1.6c-1.9,0-3.2,0.9-3.2,2.5c0,1.2,0.7,1.8,3.3,2.7
		c2.8,0.9,4.8,2.2,4.8,5.2s-2.1,6.3-7.6,6.3c-2.9,0-5-1.1-6.4-2.6l2.1-2c1.1,1.2,2.5,1.8,4.4,1.8c2.4,0,3.9-1.2,3.9-3.1
		c0-1.4-0.8-2.1-3.1-2.9c-3.3-1.1-4.9-2.5-4.9-5c0-2.6,2.2-5.5,6.8-5.5C660.5,400.3,662.4,401.2,663.8,402.6z"/>
	<linearGradient id="SVGID_2_" gradientUnits="userSpaceOnUse" x1="655.9611" y1="395.7422" x2="701.7495" y2="446.7936">
		<stop  offset="0" style="stop-color:#545EA9"/>
		<stop  offset="0.7457" style="stop-color:#322D7D"/>
	</linearGradient>
	<path class="st1" d="M669.1,414.9c-0.2,1.4,0.2,1.9,1.1,1.9c0.6,0,1.2-0.2,1.8-0.5l1,2.3c-1.1,0.7-2.4,1-3.6,1
		c-2.7,0-4.1-1.7-3.7-4.7l1-7.4h-2.2l0.3-2.5h2.3l0.9-3.2l2.8-0.3l-0.5,3.5h3.3l-0.7,2.5h-2.9L669.1,414.9z"/>
	<linearGradient id="SVGID_3_" gradientUnits="userSpaceOnUse" x1="661.5953" y1="390.6889" x2="707.3837" y2="441.7403">
		<stop  offset="0" style="stop-color:#545EA9"/>
		<stop  offset="0.7457" style="stop-color:#322D7D"/>
	</linearGradient>
	<path class="st2" d="M677.6,414c0.1,2.2,1.2,2.9,2.8,2.9c1.3,0,2.4-0.4,3.7-1.3l1.3,2.1c-1.6,1.1-3.3,1.8-5.4,1.8
		c-3.9,0-5.8-2.3-5.8-5.9c0-3.9,2-9.1,7.7-9.1c3.2,0,4.9,1.7,4.9,3.7C686.8,412.4,682.3,413.5,677.6,414z M683.3,408.5
		c0-0.6-0.3-1.4-1.6-1.4c-2.4,0-3.5,2.4-3.9,4.7C681.6,411.4,683.3,410.3,683.3,408.5z"/>
	<linearGradient id="SVGID_4_" gradientUnits="userSpaceOnUse" x1="667.1732" y1="385.686" x2="712.9616" y2="436.7374">
		<stop  offset="0" style="stop-color:#545EA9"/>
		<stop  offset="0.7457" style="stop-color:#322D7D"/>
	</linearGradient>
	<path class="st3" d="M690.2,405h2.9l0,1.7c1.5-1.6,2.9-2.1,4.2-2.1c2.8,0,4.4,2,4.4,5.5c0,4-1.9,9.4-7.5,9.4
		c-1.1,0-1.9-0.2-2.6-0.4l-0.8,5.5l-3.4,0.4L690.2,405z M698.2,410.1c0-2.2-0.9-2.9-2.1-2.9c-1.3,0-2.2,0.8-3.2,1.8l-1,7.6
		c0.7,0.2,1.3,0.4,2.1,0.4C697.1,417,698.2,413,698.2,410.1z"/>
	<linearGradient id="SVGID_5_" gradientUnits="userSpaceOnUse" x1="681.184" y1="373.1197" x2="726.9724" y2="424.1711">
		<stop  offset="0" style="stop-color:#545EA9"/>
		<stop  offset="0.7457" style="stop-color:#322D7D"/>
	</linearGradient>
	<path class="st4" d="M722,405.5c0,2.6-1.3,5-8.7,11l7.6-0.1l-0.7,2.7h-11.1l0.3-2.6c7.9-7.1,9.2-8.6,9.2-10.9
		c0-1.4-0.9-2.2-2.2-2.2c-1.4,0-2.5,0.6-3.7,1.9l-2-1.8c1.7-1.8,3.7-2.8,6.1-2.8C720.1,400.9,722,402.8,722,405.5z"/>
</g>
<g>
	<linearGradient id="SVGID_6_" gradientUnits="userSpaceOnUse" x1="2.1817" y1="0.6832" x2="29.0231" y2="45.4189">
		<stop  offset="0" style="stop-color:#545EA9"/>
		<stop  offset="0.7457" style="stop-color:#322D7D"/>
	</linearGradient>
	<path class="st5" d="M15,2.3l-2,1.9c-1.2-1.1-2.3-1.6-3.8-1.6c-1.9,0-3.2,0.9-3.2,2.5c0,1.2,0.7,1.8,3.3,2.7C12,8.7,14,10.1,14,13
		s-2.1,6.3-7.6,6.3c-2.9,0-5-1.1-6.4-2.6l2.1-2c1.1,1.2,2.5,1.8,4.4,1.8c2.4,0,3.9-1.2,3.9-3.1c0-1.4-0.8-2.1-3.1-2.9
		c-3.3-1.1-4.9-2.5-4.9-5C2.3,2.9,4.5,0,9.1,0C11.7,0,13.5,0.9,15,2.3z"/>
	<linearGradient id="SVGID_7_" gradientUnits="userSpaceOnUse" x1="11.459" y1="-4.8832" x2="38.3005" y2="39.8525">
		<stop  offset="0" style="stop-color:#545EA9"/>
		<stop  offset="0.7457" style="stop-color:#322D7D"/>
	</linearGradient>
	<path class="st6" d="M20.3,14.6c-0.2,1.4,0.2,1.9,1.1,1.9c0.6,0,1.2-0.2,1.8-0.5l1,2.3c-1.1,0.7-2.4,1-3.6,1
		c-2.7,0-4.1-1.7-3.7-4.7l1-7.4h-2.2l0.3-2.5h2.3l0.9-3.2l2.8-0.3l-0.5,3.5h3.3l-0.7,2.5h-2.9L20.3,14.6z"/>
	<linearGradient id="SVGID_8_" gradientUnits="userSpaceOnUse" x1="19.1386" y1="-9.491" x2="45.9801" y2="35.2448">
		<stop  offset="0" style="stop-color:#545EA9"/>
		<stop  offset="0.7457" style="stop-color:#322D7D"/>
	</linearGradient>
	<path class="st7" d="M28.8,13.7c0.1,2.2,1.2,2.9,2.8,2.9c1.3,0,2.4-0.4,3.7-1.3l1.3,2.1c-1.6,1.1-3.3,1.8-5.4,1.8
		c-3.9,0-5.8-2.3-5.8-5.9c0-3.9,2-9.1,7.7-9.1c3.2,0,4.9,1.7,4.9,3.7C37.9,12.1,33.4,13.2,28.8,13.7z M34.4,8.2
		c0-0.6-0.3-1.4-1.6-1.4c-2.4,0-3.5,2.4-3.9,4.7C32.7,11.1,34.4,10,34.4,8.2z"/>
	<linearGradient id="SVGID_9_" gradientUnits="userSpaceOnUse" x1="27.3408" y1="-14.4123" x2="54.1823" y2="30.3235">
		<stop  offset="0" style="stop-color:#545EA9"/>
		<stop  offset="0.7457" style="stop-color:#322D7D"/>
	</linearGradient>
	<path class="st8" d="M41.4,4.7h2.9l0,1.7c1.5-1.6,2.9-2.1,4.2-2.1c2.8,0,4.4,2,4.4,5.5c0,4-1.9,9.4-7.5,9.4c-1.1,0-1.9-0.2-2.6-0.4
		l-0.8,5.5l-3.4,0.4L41.4,4.7z M49.4,9.8c0-2.2-0.9-2.9-2.1-2.9c-1.3,0-2.2,0.8-3.2,1.8l-1,7.6c0.7,0.2,1.3,0.4,2.1,0.4
		C48.3,16.7,49.4,12.7,49.4,9.8z"/>
	<linearGradient id="SVGID_10_" gradientUnits="userSpaceOnUse" x1="45.2315" y1="-25.1467" x2="72.0729" y2="19.5891">
		<stop  offset="0" style="stop-color:#545EA9"/>
		<stop  offset="0.7457" style="stop-color:#322D7D"/>
	</linearGradient>
	<path class="st9" d="M73,4.8c0,2-1.2,3.8-4.1,4.5c1.9,0.2,3.5,1.4,3.5,3.7c0,2.7-2.1,6.2-7.2,6.2c-2.5,0-4.3-1-5.5-2.6l2.1-1.7
		c0.9,1.2,2,1.7,3.4,1.7c2.1,0,3.7-1.5,3.7-3.8c0-1.6-1-2.1-2.8-2.1h-1.5l0.7-2.4h0.9c2.3,0,3.3-1.5,3.3-3.1c0-1.3-0.8-2-2.2-2
		c-1.4,0-2.6,0.5-3.8,1.6l-1.6-2c1.8-1.5,3.7-2.2,5.9-2.2C71.3,0.6,73,2.5,73,4.8z"/>
</g>
</svg>
