<?xml version="1.0" encoding="utf-8"?>
<!-- Generator: Adobe Illustrator 23.0.4, SVG Export Plug-In . SVG Version: 6.00 Build 0)  -->
<svg version="1.1" id="Layer_1" xmlns="http://www.w3.org/2000/svg" xmlns:xlink="http://www.w3.org/1999/xlink" x="0px" y="0px"
	 viewBox="0 0 73.2 24.8" style="enable-background:new 0 0 73.2 24.8;" xml:space="preserve">
<style type="text/css">
	.st0{fill:url(#SVGID_1_);}
	.st1{fill:url(#SVGID_2_);}
	.st2{fill:url(#SVGID_3_);}
	.st3{fill:url(#SVGID_4_);}
	.st4{fill:url(#SVGID_5_);}
	.st5{fill:url(#SVGID_6_);}
	.st6{fill:url(#SVGID_7_);}
	.st7{fill:url(#SVGID_8_);}
	.st8{fill:url(#SVGID_9_);}
	.st9{fill:url(#SVGID_10_);}
</style>
<g>
	<linearGradient id="SVGID_1_" gradientUnits="userSpaceOnUse" x1="652.3281" y1="435.5394" x2="698.1165" y2="486.5908">
		<stop  offset="0" style="stop-color:#545EA9"/>
		<stop  offset="0.7457" style="stop-color:#322D7D"/>
	</linearGradient>
	<path class="st0" d="M667,436.3l-2,1.9c-1.2-1.1-2.3-1.6-3.8-1.6c-1.9,0-3.2,0.9-3.2,2.5c0,1.2,0.7,1.8,3.3,2.7
		c2.8,0.9,4.8,2.2,4.8,5.2c0,3-2.1,6.3-7.6,6.3c-2.9,0-5-1.1-6.4-2.6l2.1-2c1.1,1.2,2.5,1.8,4.4,1.8c2.4,0,3.9-1.2,3.9-3.1
		c0-1.4-0.8-2.1-3.1-2.9c-3.3-1.1-4.9-2.5-4.9-5c0-2.6,2.2-5.5,6.8-5.5C663.7,434,665.5,434.9,667,436.3z"/>
	<linearGradient id="SVGID_2_" gradientUnits="userSpaceOnUse" x1="659.1213" y1="429.4465" x2="704.9097" y2="480.4979">
		<stop  offset="0" style="stop-color:#545EA9"/>
		<stop  offset="0.7457" style="stop-color:#322D7D"/>
	</linearGradient>
	<path class="st1" d="M672.3,448.6c-0.2,1.4,0.2,1.9,1.1,1.9c0.6,0,1.2-0.2,1.8-0.5l1,2.3c-1.1,0.7-2.4,1-3.6,1
		c-2.7,0-4.1-1.7-3.7-4.7l1-7.4h-2.2l0.3-2.5h2.3l0.9-3.2l2.8-0.3l-0.5,3.5h3.3l-0.7,2.5h-2.9L672.3,448.6z"/>
	<linearGradient id="SVGID_3_" gradientUnits="userSpaceOnUse" x1="664.7554" y1="424.3932" x2="710.5438" y2="475.4446">
		<stop  offset="0" style="stop-color:#545EA9"/>
		<stop  offset="0.7457" style="stop-color:#322D7D"/>
	</linearGradient>
	<path class="st2" d="M680.8,447.7c0.1,2.2,1.2,2.9,2.8,2.9c1.3,0,2.4-0.4,3.7-1.3l1.3,2.1c-1.6,1.1-3.3,1.8-5.4,1.8
		c-3.9,0-5.8-2.3-5.8-5.9c0-3.9,2-9.1,7.7-9.1c3.2,0,4.9,1.7,4.9,3.7C689.9,446.1,685.4,447.2,680.8,447.7z M686.4,442.2
		c0-0.6-0.3-1.4-1.6-1.4c-2.4,0-3.5,2.4-3.9,4.7C684.7,445.1,686.4,444,686.4,442.2z"/>
	<linearGradient id="SVGID_4_" gradientUnits="userSpaceOnUse" x1="670.3334" y1="419.3903" x2="716.1218" y2="470.4417">
		<stop  offset="0" style="stop-color:#545EA9"/>
		<stop  offset="0.7457" style="stop-color:#322D7D"/>
	</linearGradient>
	<path class="st3" d="M693.4,438.7h2.9l0,1.7c1.5-1.6,2.9-2.1,4.2-2.1c2.8,0,4.4,2,4.4,5.5c0,4-1.9,9.4-7.5,9.4
		c-1.1,0-1.9-0.2-2.6-0.4l-0.8,5.5l-3.4,0.4L693.4,438.7z M701.4,443.8c0-2.2-0.9-2.9-2.1-2.9c-1.3,0-2.2,0.8-3.2,1.8l-1,7.6
		c0.7,0.2,1.3,0.4,2.1,0.4C700.3,450.7,701.4,446.7,701.4,443.8z"/>
	<linearGradient id="SVGID_5_" gradientUnits="userSpaceOnUse" x1="684.3441" y1="406.8239" x2="730.1324" y2="457.8754">
		<stop  offset="0" style="stop-color:#545EA9"/>
		<stop  offset="0.7457" style="stop-color:#322D7D"/>
	</linearGradient>
	<path class="st4" d="M725.2,439.2c0,2.6-1.3,5-8.7,11l7.6-0.1l-0.7,2.7h-11.1l0.3-2.6c7.9-7.1,9.2-8.6,9.2-10.9
		c0-1.4-0.9-2.2-2.2-2.2c-1.4,0-2.5,0.6-3.7,1.9l-2-1.8c1.7-1.8,3.7-2.8,6.1-2.8C723.3,434.6,725.2,436.5,725.2,439.2z"/>
</g>
<g>
	<linearGradient id="SVGID_6_" gradientUnits="userSpaceOnUse" x1="0.3281" y1="1.5394" x2="46.1164" y2="52.5908">
		<stop  offset="0" style="stop-color:#545EA9"/>
		<stop  offset="0.7457" style="stop-color:#322D7D"/>
	</linearGradient>
	<path class="st5" d="M15,2.3l-2,1.9c-1.2-1.1-2.3-1.6-3.8-1.6c-1.9,0-3.2,0.9-3.2,2.5c0,1.2,0.7,1.8,3.3,2.7C12,8.7,14,10.1,14,13
		s-2.1,6.3-7.6,6.3c-2.9,0-5-1.1-6.4-2.6l2.1-2c1.1,1.2,2.5,1.8,4.4,1.8c2.4,0,3.9-1.2,3.9-3.1c0-1.4-0.8-2.1-3.1-2.9
		c-3.3-1.1-4.9-2.5-4.9-5C2.3,2.9,4.5,0,9.1,0C11.7,0,13.5,0.9,15,2.3z"/>
	<linearGradient id="SVGID_7_" gradientUnits="userSpaceOnUse" x1="7.1213" y1="-4.5535" x2="52.9096" y2="46.4979">
		<stop  offset="0" style="stop-color:#545EA9"/>
		<stop  offset="0.7457" style="stop-color:#322D7D"/>
	</linearGradient>
	<path class="st6" d="M20.3,14.6c-0.2,1.4,0.2,1.9,1.1,1.9c0.6,0,1.2-0.2,1.8-0.5l1,2.3c-1.1,0.7-2.4,1-3.6,1
		c-2.7,0-4.1-1.7-3.7-4.7l1-7.4h-2.2l0.3-2.5h2.3l0.9-3.2l2.8-0.3l-0.5,3.5h3.3l-0.7,2.5h-2.9L20.3,14.6z"/>
	<linearGradient id="SVGID_8_" gradientUnits="userSpaceOnUse" x1="12.7554" y1="-9.6068" x2="58.5438" y2="41.4446">
		<stop  offset="0" style="stop-color:#545EA9"/>
		<stop  offset="0.7457" style="stop-color:#322D7D"/>
	</linearGradient>
	<path class="st7" d="M28.8,13.7c0.1,2.2,1.2,2.9,2.8,2.9c1.3,0,2.4-0.4,3.7-1.3l1.3,2.1c-1.6,1.1-3.3,1.8-5.4,1.8
		c-3.9,0-5.8-2.3-5.8-5.9c0-3.9,2-9.1,7.7-9.1c3.2,0,4.9,1.7,4.9,3.7C37.9,12.1,33.4,13.2,28.8,13.7z M34.4,8.2
		c0-0.6-0.3-1.4-1.6-1.4c-2.4,0-3.5,2.4-3.9,4.7C32.7,11.1,34.4,10,34.4,8.2z"/>
	<linearGradient id="SVGID_9_" gradientUnits="userSpaceOnUse" x1="18.3334" y1="-14.6097" x2="64.1217" y2="36.4417">
		<stop  offset="0" style="stop-color:#545EA9"/>
		<stop  offset="0.7457" style="stop-color:#322D7D"/>
	</linearGradient>
	<path class="st8" d="M41.4,4.7h2.9l0,1.7c1.5-1.6,2.9-2.1,4.2-2.1c2.8,0,4.4,2,4.4,5.5c0,4-1.9,9.4-7.5,9.4c-1.1,0-1.9-0.2-2.6-0.4
		l-0.8,5.5l-3.4,0.4L41.4,4.7z M49.4,9.8c0-2.2-0.9-2.9-2.1-2.9c-1.3,0-2.2,0.8-3.2,1.8l-1,7.6c0.7,0.2,1.3,0.4,2.1,0.4
		C48.3,16.7,49.4,12.7,49.4,9.8z"/>
	<linearGradient id="SVGID_10_" gradientUnits="userSpaceOnUse" x1="32.3441" y1="-27.176" x2="78.1325" y2="23.8754">
		<stop  offset="0" style="stop-color:#545EA9"/>
		<stop  offset="0.7457" style="stop-color:#322D7D"/>
	</linearGradient>
	<path class="st9" d="M73.2,5.2c0,2.6-1.3,5-8.7,11l7.6-0.1l-0.7,2.7H60.2l0.3-2.6c7.9-7.1,9.2-8.6,9.2-10.9c0-1.4-0.9-2.2-2.2-2.2
		c-1.4,0-2.5,0.6-3.7,1.9l-2-1.8c1.7-1.8,3.7-2.8,6.1-2.8C71.3,0.6,73.2,2.5,73.2,5.2z"/>
</g>
</svg>
