<?xml version="1.0" encoding="utf-8"?>
<!-- Generator: Adobe Illustrator 23.0.4, SVG Export Plug-In . SVG Version: 6.00 Build 0)  -->
<svg version="1.1" id="Layer_1" xmlns="http://www.w3.org/2000/svg" xmlns:xlink="http://www.w3.org/1999/xlink" x="0px" y="0px"
	 viewBox="0 0 71.2 24.8" style="enable-background:new 0 0 71.2 24.8;" xml:space="preserve">
<style type="text/css">
	.st0{fill:url(#SVGID_1_);}
	.st1{fill:url(#SVGID_2_);}
	.st2{fill:url(#SVGID_3_);}
	.st3{fill:url(#SVGID_4_);}
	.st4{fill:url(#SVGID_5_);}
</style>
<g>
	<linearGradient id="SVGID_1_" gradientUnits="userSpaceOnUse" x1="4.7419" y1="6.0911" x2="48.9513" y2="61.353">
		<stop  offset="0" style="stop-color:#545EA9"/>
		<stop  offset="0.7457" style="stop-color:#322D7D"/>
	</linearGradient>
	<path class="st0" d="M15,2.3l-2,1.9c-1.2-1.1-2.3-1.6-3.8-1.6c-1.9,0-3.2,0.9-3.2,2.5c0,1.2,0.7,1.8,3.3,2.7C12,8.8,14,10.1,14,13
		c0,3-2.1,6.3-7.6,6.3c-2.9,0-5-1.1-6.4-2.6l2.1-2c1.1,1.2,2.5,1.8,4.4,1.8c2.4,0,3.9-1.2,3.9-3.1c0-1.4-0.8-2.1-3.1-2.9
		c-3.3-1.1-4.9-2.5-4.9-5C2.3,2.9,4.5,0,9.1,0C11.7,0,13.5,0.9,15,2.3z"/>
	<linearGradient id="SVGID_2_" gradientUnits="userSpaceOnUse" x1="12.2261" y1="0.1037" x2="56.4356" y2="55.3656">
		<stop  offset="0" style="stop-color:#545EA9"/>
		<stop  offset="0.7457" style="stop-color:#322D7D"/>
	</linearGradient>
	<path class="st1" d="M20.3,14.6c-0.2,1.4,0.2,1.9,1.1,1.9c0.6,0,1.2-0.2,1.8-0.5l1,2.3c-1.1,0.7-2.4,1-3.6,1
		c-2.7,0-4.1-1.7-3.7-4.7l1-7.4h-2.2l0.3-2.5h2.3l0.9-3.2l2.8-0.3l-0.5,3.5h3.3l-0.7,2.5h-2.9L20.3,14.6z"/>
	<linearGradient id="SVGID_3_" gradientUnits="userSpaceOnUse" x1="18.5443" y1="-4.9508" x2="62.7538" y2="50.311">
		<stop  offset="0" style="stop-color:#545EA9"/>
		<stop  offset="0.7457" style="stop-color:#322D7D"/>
	</linearGradient>
	<path class="st2" d="M28.8,13.7c0.1,2.2,1.2,2.9,2.8,2.9c1.3,0,2.4-0.4,3.7-1.3l1.3,2.1c-1.6,1.1-3.3,1.8-5.4,1.8
		c-3.9,0-5.8-2.3-5.8-5.9c0-3.9,2-9.1,7.7-9.1c3.2,0,4.9,1.7,4.9,3.7C37.9,12.1,33.4,13.2,28.8,13.7z M34.4,8.2
		c0-0.6-0.3-1.4-1.6-1.4c-2.4,0-3.5,2.4-3.9,4.7C32.7,11.1,34.4,10,34.4,8.2z"/>
	<linearGradient id="SVGID_4_" gradientUnits="userSpaceOnUse" x1="24.8907" y1="-10.028" x2="69.1002" y2="45.2339">
		<stop  offset="0" style="stop-color:#545EA9"/>
		<stop  offset="0.7457" style="stop-color:#322D7D"/>
	</linearGradient>
	<path class="st3" d="M41.4,4.7h2.9l0,1.7c1.5-1.6,2.9-2.1,4.2-2.1c2.8,0,4.4,2,4.4,5.5c0,4-1.9,9.4-7.5,9.4c-1.1,0-1.9-0.2-2.6-0.4
		l-0.8,5.5l-3.4,0.4L41.4,4.7z M49.4,9.8c0-2.2-0.9-2.9-2.1-2.9c-1.3,0-2.2,0.8-3.2,1.8l-1,7.6c0.7,0.2,1.3,0.4,2.1,0.4
		C48.3,16.7,49.4,12.7,49.4,9.8z"/>
	<linearGradient id="SVGID_5_" gradientUnits="userSpaceOnUse" x1="41.6233" y1="-23.414" x2="85.8328" y2="31.8478">
		<stop  offset="0" style="stop-color:#545EA9"/>
		<stop  offset="0.7457" style="stop-color:#322D7D"/>
	</linearGradient>
	<path class="st4" d="M68.7,18.9h-3.3l2-14.3L63.1,7l-1.1-2.5l6.3-3.6h3L68.7,18.9z"/>
</g>
</svg>
